<svg id="Layer_1" data-name="Layer 1" xmlns="http://www.w3.org/2000/svg" viewBox="0 0 60 60"><defs><style>.cls-1{fill:#ca2421;}</style></defs><path class="cls-1" d="M32.14,24.76l.77-1.34q1.52-2.62,3-5.25a.24.24,0,0,1,.25-.15h9.26a.27.27,0,0,1,.27.13L50.26,26a.27.27,0,0,1,0,.34L41.4,41.82a.3.3,0,0,1-.3.17H31.94a.28.28,0,0,1-.27-.16c-1.23-2.14-2.48-4.28-3.72-6.42l-.1-.16-.53.91-3.26,5.69a.25.25,0,0,1-.25.14H14.55a.24.24,0,0,1-.25-.15Q12,37.91,9.73,34a.3.3,0,0,1,0-.34q4.45-7.73,8.88-15.47a.27.27,0,0,1,.27-.15h9.18a.25.25,0,0,1,.26.16L32,24.57ZM14.82,39.84,26.49,19.5H19.68a.24.24,0,0,0-.23.15q-4,7-8.06,14a.22.22,0,0,0,0,.27q1.57,2.67,3.12,5.36Zm13-19.63-.11.17Q26,23.24,24.4,26.09a.31.31,0,0,0,0,.32q4.07,7,8.12,14a.21.21,0,0,0,.22.13h6.83Zm17.35,0-.09.13L37.43,33.59a.26.26,0,0,0,0,.29l3.29,5.66.13.22.1-.16Q44.74,33,48.56,26.35a.27.27,0,0,0,0-.32l-3.32-5.71-.1-.14Z"/></svg>