<svg width="41" height="10" viewBox="0 0 41 10" fill="none" xmlns="http://www.w3.org/2000/svg">
<path fill-rule="evenodd" clip-rule="evenodd" d="M40.21 5.56587C39.9774 4.65382 39.6271 4.21787 38.5928 4.11032C35.3586 3.77402 35.5601 9.17569 38.9523 8.17049C40.0763 7.83738 40.4642 6.62975 40.21 5.56587ZM37.9207 5.04798C37.3455 5.29329 37.2946 5.94817 37.4025 6.59579C37.5129 7.2587 37.9661 7.67764 38.6965 7.3604C39.4769 7.02136 39.4625 4.39042 37.9208 5.04798H37.9207Z" fill="white"/>
<path fill-rule="evenodd" clip-rule="evenodd" d="M0.714844 10H10.398V9.86957C9.20654 10.0423 6.90705 9.91163 5.58212 9.91169C4.40081 9.91169 4.22259 10.1217 3.56605 9.4505C3.19159 9.06775 2.60991 8.60199 2.35524 8.18496L2.04882 8.00075C1.76471 5.23231 2.20493 5.70777 3.63882 5.67604L4.62031 3.89094C4.60687 3.87986 4.57425 3.84194 4.56526 3.85921L4.45025 3.78798C4.1418 3.55452 4.19456 3.53757 4.19914 2.74531C4.20201 2.24889 4.08719 1.70131 4.39871 1.37457C4.87136 1.21476 6.64263 1.25503 7.11872 1.38788C7.23628 1.8051 7.25081 2.98227 7.17466 3.47111C7.36263 3.25568 7.26349 2.01499 7.25023 1.63989L7.71358 2.02951C7.86071 2.17912 7.96125 2.2754 8.11041 2.428C8.57797 2.90651 10.3317 4.72933 10.6576 4.90054C10.6674 4.03513 10.6606 3.16661 10.6606 2.30088C10.6606 1.888 10.6576 1.47409 10.662 1.06133C10.6679 0.501961 10.708 0.284178 10.3984 0H0.714908V10H0.714844Z" fill="white"/>
<path fill-rule="evenodd" clip-rule="evenodd" d="M7.17477 3.47118C6.99037 3.94065 7.12947 3.60875 6.75283 3.88604L7.80818 5.66706C8.26153 5.68318 8.94132 5.55766 9.29909 5.84069C9.49687 6.23134 9.42022 7.66051 9.31923 8.08563C8.92609 8.2093 6.91041 8.24454 6.7053 8.15878C6.31452 7.99528 6.58475 8.12877 6.47076 7.92748C6.27865 7.62776 6.37467 6.1724 6.44986 5.80119L7.08505 5.65636C6.80674 5.03422 6.3425 4.4451 6.05692 3.80098L5.40509 3.81162C5.04503 4.27274 4.65686 5.24697 4.32668 5.5279C4.46501 5.6691 4.80316 5.74843 4.95933 5.82457C5.05165 6.25963 5.14487 7.87683 4.834 8.09939C4.56766 8.2901 2.80824 8.19943 2.35547 8.18497C2.61015 8.60193 3.19182 9.0677 3.56628 9.45051C4.22282 10.1217 4.40098 9.9117 5.58235 9.9117C6.90735 9.91163 9.20677 10.0423 10.3983 9.86958C10.7096 9.83447 10.6528 9.87289 10.6725 9.39208L10.6577 4.90054C10.3318 4.72934 8.5782 2.90652 8.11058 2.42801C7.96148 2.27541 7.86087 2.17913 7.71375 2.02952L7.2504 1.63989C7.26365 2.01499 7.3628 3.25569 7.17483 3.47112L7.17477 3.47118Z" fill="white"/>
<path fill-rule="evenodd" clip-rule="evenodd" d="M2.35499 8.18483C2.80783 8.1993 4.56725 8.28997 4.83352 8.09926C5.14439 7.8767 5.05118 6.2595 4.95885 5.82444C4.80274 5.74829 4.4646 5.66897 4.32621 5.52777C4.65632 5.24684 5.04455 4.27261 5.40462 3.81149L6.05644 3.80085C6.34202 4.44496 6.80626 5.03409 7.08458 5.65622L6.44938 5.80105C6.3742 6.17227 6.27818 7.62763 6.47028 7.92735C6.58427 8.12863 6.31398 7.99515 6.70482 8.15864C6.90993 8.24447 8.92562 8.20917 9.31875 8.0855C9.41974 7.66038 9.49639 6.23121 9.29862 5.84056C8.94085 5.55746 8.26105 5.68305 7.8077 5.66693L6.75236 3.88591C7.12905 3.60855 6.98996 3.94045 7.17429 3.47105C7.2505 2.98221 7.23591 1.80504 7.11835 1.38782C6.64225 1.25497 4.87092 1.2147 4.39833 1.3745C4.08682 1.70124 4.20164 2.24877 4.19877 2.74525C4.19418 3.53744 4.14143 3.55445 4.44988 3.78791L4.56489 3.85915C4.57387 3.84194 4.6065 3.87986 4.61994 3.89088L3.63844 5.67598C2.20456 5.70771 1.76434 5.23231 2.04845 8.00069L2.35486 8.1849L2.35499 8.18483Z" fill="#333333"/>
<path fill-rule="evenodd" clip-rule="evenodd" d="M16.3787 2.38303C16.133 2.83676 16.327 3.89835 16.2668 4.47403C15.5217 3.6459 13.6513 3.77741 13.6514 6.19465C13.6515 8.9634 15.8883 8.40773 16.3787 7.71289C16.5577 8.0374 16.2835 8.12756 16.7498 8.2111C17.6069 8.36446 17.3245 7.45892 17.3245 6.01764C17.3245 5.39296 17.4121 2.78145 17.2637 2.39469C16.925 2.26197 16.7223 2.28694 16.3787 2.38297V2.38303ZM16.2883 6.46015L16.2819 5.44788C15.9505 5.2452 15.7759 4.75267 15.1915 4.99842C14.2816 5.38111 14.6698 8.34439 16.0278 7.08159C16.3085 6.82054 16.2882 6.90159 16.2882 6.46022L16.2883 6.46015Z" fill="white"/>
<path fill-rule="evenodd" clip-rule="evenodd" d="M27.6626 8.15465L28.2946 5.88091C28.6787 6.47354 28.7472 7.49945 29.0577 8.11387L30.2782 8.17096C30.4819 7.74279 31.4146 4.73738 31.4179 4.25199L30.411 4.20483L29.678 6.97194L28.8603 4.25052L27.8611 4.20764L27.1335 7.0073L26.3292 4.22822L25.2832 4.21063C25.2926 4.82843 25.765 6.08136 25.9488 6.70732C26.36 8.10826 26.0488 8.25985 27.6626 8.15453V8.15465Z" fill="white"/>
<path fill-rule="evenodd" clip-rule="evenodd" d="M21.6523 5.25658C22.3615 5.1928 23.945 4.29554 23.7185 5.80684C22.5192 5.79735 21.2565 5.88317 21.4044 7.25341C21.5358 8.47098 23.2404 8.54036 23.8512 7.8268C23.9819 8.09976 23.8313 7.95187 24.0251 8.18355C24.955 8.26498 24.7828 8.2344 24.7828 6.72564C24.7828 5.54235 25.1296 3.79873 22.7469 4.12554C21.828 4.25157 21.4908 4.37856 21.6524 5.25658H21.6523ZM22.5507 7.44207C23.1784 7.59818 23.333 7.41595 23.725 7.17389L23.7556 6.47345C22.8328 6.49505 22.1874 6.48135 22.5508 7.44207H22.5507Z" fill="white"/>
<path fill-rule="evenodd" clip-rule="evenodd" d="M18.5905 4.23542C18.4505 4.54694 18.4614 7.68124 18.5513 8.06921C18.8629 8.2429 19.2187 8.18671 19.5709 8.13503C19.7588 7.04286 19.2423 5.6918 20.0745 5.19647C20.449 4.97359 20.5412 5.16429 20.9603 5.12351C21.023 4.74733 21.0457 4.51648 20.936 4.20777C20.2795 3.90435 19.746 4.26257 19.5582 4.70986C19.309 4.37477 19.7064 4.01821 18.5905 4.23542Z" fill="white"/>
<path fill-rule="evenodd" clip-rule="evenodd" d="M34.2959 4.60188V7.87624C34.2959 8.32544 34.8723 8.21604 35.2771 8.10218C35.3905 7.58193 35.319 5.59466 35.3296 4.77099C35.3325 4.54492 35.4237 3.88417 34.5305 4.16249C34.2868 4.23838 34.2959 4.32255 34.2959 4.60188Z" fill="white"/>
<path fill-rule="evenodd" clip-rule="evenodd" d="M31.9149 8.18072C32.2617 8.27585 32.584 8.37862 32.9183 8.15689L33.0095 8.05328C33.1994 7.71647 33.2714 7.03286 32.57 6.97793C31.7132 6.91084 31.7529 7.56069 31.9149 8.18072Z" fill="white"/>
<path fill-rule="evenodd" clip-rule="evenodd" d="M34.2903 2.79369C33.8039 3.79883 35.5986 3.90785 35.2255 2.89602C35.0825 2.50818 34.5474 2.48804 34.2903 2.79369Z" fill="white"/>
</svg>
