<svg width="21" height="18" viewBox="0 0 21 18" fill="none" xmlns="http://www.w3.org/2000/svg">
<path d="M11.247 0.219482V1.85503L17.4553 1.84937C17.8062 1.86069 18.191 1.83805 18.4966 2.04178C18.706 2.34739 18.6834 2.72656 18.7004 3.07744C18.6891 6.62017 18.6891 10.1629 18.6947 13.7056C18.6834 14.2999 18.7513 14.9054 18.6211 15.494C18.5419 15.9184 18.0213 15.9241 17.676 15.9411H11.247V17.7804H9.96238C6.8158 17.2144 3.6579 16.6881 0.5 16.1391V1.86069L6.84976 0.768436L10.019 0.219482H11.247ZM18.0722 2.46623H11.247V3.68865H12.8996V5.12045H11.247V5.9354H12.8996V7.3672H11.247V8.18215H12.8996V9.60829H11.247V10.4289H12.8996V11.855H11.247V12.6756H12.8996V14.1018H11.247V15.3299H18.0722V2.46623ZM16.6234 12.67V14.0961H13.7315V12.67H16.6234ZM8.03255 5.52226L6.62338 5.6015C6.27816 6.44473 5.87069 7.25968 5.59339 8.12555C5.33872 7.30495 5.00482 6.51831 4.69356 5.72034L3.33532 5.79957C3.8107 6.84089 4.32004 7.87654 4.7841 8.92918C4.23515 9.94785 3.72015 10.9835 3.18818 12.0078C3.64092 12.0305 4.09367 12.0475 4.54641 12.0531C4.86899 11.2382 5.27081 10.4572 5.55377 9.63093C5.80278 10.5194 6.23289 11.34 6.58377 12.1946L8.07783 12.2852C7.5119 11.142 6.92333 10.0101 6.3574 8.86692C6.92333 7.75204 7.47228 6.63715 8.02689 5.51661L8.03255 5.52226ZM16.6234 10.4289V11.855H13.7315V10.4289H16.6234ZM16.6234 8.18215V9.61395H13.7315V8.18215H16.6234ZM16.6234 5.9354V7.3672H13.7315V5.9354H16.6234ZM16.6234 3.68865V5.12045H13.7315V3.68865H16.6234Z" fill="white"/>
</svg>
