<svg width="64" height="59" viewBox="0 0 64 59" fill="none" xmlns="http://www.w3.org/2000/svg">
<path d="M18.6504 3.53216e-05H61.3116C62.0291 -0.00371468 62.7129 0.291285 63.2016 0.811285C63.7016 1.34629 63.9804 2.05129 63.9804 2.78379V55.6763C63.9791 56.4088 63.7004 57.1125 63.2016 57.6488C62.7129 58.17 62.0266 58.4638 61.3116 58.46H18.6504C17.1579 58.4338 15.9716 57.2013 15.9979 55.7088V55.6913V2.78629C15.9616 1.29004 17.1379 0.0450353 18.6329 3.53216e-05H18.6504Z" fill="#21A366"/>
<path d="M15.9995 29.2324V55.7599C15.9257 57.2524 17.072 58.5199 18.5645 58.5937L18.587 58.5949H61.317C62.8195 58.5687 64.0157 57.3287 63.9857 55.8274V55.8099V29.2812L15.9995 29.2324Z" fill="#185C37"/>
<path d="M15.999 14.624H63.984V29.249H15.999V14.624Z" fill="#107C41"/>
<path d="M61.3157 1.58279e-05H39.9932V43.8563H63.9857V2.78627C63.9844 2.05377 63.7057 1.35002 63.2069 0.813766C62.7144 0.291266 62.0294 -0.00248417 61.3157 1.58279e-05Z" fill="#33C481"/>
<path d="M64.0009 14.624H39.9922V29.2478H64.0009V14.624Z" fill="#21A366"/>
<path d="M64.0009 29.2324H39.9922V43.8562H64.0009V29.2324Z" fill="#107C41"/>
<path d="M34.9655 29.2487H34.203V29.2524H34.9655V29.2487ZM32.9755 11.9399H31.6143C31.7418 12.1399 31.8355 12.3637 31.8855 12.6024H32.1955V12.6012H32.2118C32.2293 12.6012 32.2455 12.6024 32.263 12.6024C33.3543 12.6387 34.213 13.5399 34.2018 14.6237H34.963V14.0274C34.9955 12.9024 34.1055 11.9674 32.9755 11.9399Z" fill="#209D63"/>
<path d="M34.2035 29.2512V45.1163V45.1337C34.2072 45.3412 34.1785 45.5387 34.1247 45.7288C34.1247 45.895 34.1022 46.0588 34.0635 46.2125C34.621 45.8375 34.9822 45.1937 34.966 44.47V44.4687V29.25L34.2035 29.2512Z" fill="#175935"/>
<path d="M34.9656 14.624H34.2044C34.2044 14.6403 34.2044 14.6578 34.2031 14.6728V29.2478H34.9656V14.624Z" fill="#0F783F"/>
<path d="M16.0488 46.2803V50.9865H29.3138C30.7763 50.9778 31.9613 49.8065 31.9988 48.3528C31.9063 48.3965 31.8076 48.4353 31.7076 48.4653C31.2638 49.339 30.3588 49.9365 29.3138 49.944H16.0488V49.0153V46.2803Z" fill="#175633"/>
<path d="M34.2027 29.2486H34.1202V29.2523H34.2027V29.2486ZM32.2139 12.6011H32.1977V12.6023H31.8877C31.9214 12.7561 31.9364 12.9173 31.9314 13.0823V13.4473H32.1827C32.9677 13.4786 33.6314 13.9536 33.9402 14.6236H34.2064C34.2164 13.5386 33.3577 12.6386 32.2677 12.6023C32.2477 12.6023 32.2314 12.6011 32.2139 12.6011Z" fill="#1E935C"/>
<path d="M34.123 29.2515V45.6002L34.1243 45.639C34.1255 45.669 34.1255 45.7002 34.1255 45.7302C34.1793 45.5415 34.2068 45.3427 34.2043 45.1352V45.1177V29.254L34.123 29.2515Z" fill="#165332"/>
<path d="M34.2057 14.624H33.9395C34.067 14.9015 34.1345 15.2115 34.1232 15.5353V29.2478H34.2057V14.674C34.2057 14.6578 34.2057 14.6415 34.2057 14.624Z" fill="#0E703B"/>
<path d="M34.0642 46.2148C33.9867 46.2661 33.908 46.3136 33.8242 46.3536C33.6417 46.6098 33.4005 46.8223 33.1205 46.9711C33.0667 47.1961 32.9767 47.4061 32.8555 47.5973C33.453 47.3561 33.9067 46.8398 34.0642 46.2148Z" fill="#175633"/>
<path d="M34.1255 45.729C34.0605 45.9553 33.9592 46.1653 33.8242 46.3528C33.908 46.3128 33.9867 46.2653 34.0642 46.214C34.103 46.059 34.1242 45.8978 34.1255 45.729Z" fill="#165332"/>
<path d="M33.8241 46.354C33.6241 46.4528 33.4066 46.519 33.1754 46.5465C33.1716 46.6915 33.1529 46.834 33.1191 46.9703C33.4016 46.8215 33.6416 46.609 33.8241 46.354Z" fill="#155030"/>
<path d="M34.1232 29.2489H33.8394V29.2502H34.1232V29.2489ZM32.1819 13.4502H31.9307V13.5602C31.9307 13.5952 31.9319 13.6302 31.9307 13.6652V14.0914C31.9307 14.1264 31.9319 14.1614 31.9307 14.1964V14.5152C32.1269 14.5252 32.3144 14.5639 32.4919 14.6277H33.9369C33.6294 13.9564 32.9669 13.4789 32.1819 13.4502Z" fill="#1C8A56"/>
<path d="M33.838 29.2512V44.9687V44.97C33.8518 45.5837 33.5955 46.14 33.1768 46.5237C33.1768 46.5312 33.1768 46.5375 33.1768 46.545C33.4068 46.5175 33.6255 46.45 33.8255 46.3525C33.9593 46.165 34.0618 45.955 34.1268 45.7288C34.1268 45.6987 34.1268 45.6687 34.1255 45.6375L34.1243 45.5987V29.25L33.838 29.2512Z" fill="#154E2E"/>
<path d="M33.9382 14.624H32.4932C33.2732 14.9015 33.8332 15.6428 33.8382 16.514V29.249H34.1219V15.5365C34.1332 15.2115 34.0669 14.9015 33.9382 14.624Z" fill="#0D6937"/>
<path d="M29.944 10.9951H29.9265H15.999V12.8839V11.5764H29.9265H29.944C30.359 11.5864 30.7415 11.7201 31.059 11.9414H31.6153C31.2628 11.3864 30.649 11.0126 29.944 10.9951Z" fill="#21A265"/>
<path d="M31.6158 11.9399H31.0596C31.3083 12.1137 31.5158 12.3399 31.6658 12.6024H31.8883C31.8358 12.3637 31.7433 12.1399 31.6158 11.9399Z" fill="#209C62"/>
<path d="M31.8866 12.6025H31.6641C31.8091 12.8563 31.9003 13.1425 31.9253 13.4475H31.9303V13.0825C31.9353 12.9188 31.9203 12.7575 31.8866 12.6025Z" fill="#1E925B"/>
<path d="M31.9327 13.4502H31.9277C31.9315 13.4864 31.9327 13.5239 31.9327 13.5602V13.4502Z" fill="#1C8855"/>
<path d="M31.7066 48.4639C31.5416 48.5126 31.3666 48.5414 31.1854 48.5476H30.8116C30.3841 48.8389 29.8679 49.0089 29.3129 49.0126H16.0479V49.9414H29.3129C30.3591 49.9351 31.2629 49.3364 31.7066 48.4639Z" fill="#144B2D"/>
<path d="M16.0488 46.2803V49.0128H29.3138C29.8701 49.009 30.3851 48.839 30.8126 48.5478H17.2438H17.2426C16.9988 48.5403 16.7763 48.4478 16.6063 48.299H16.0526V47.669V46.2803H16.0488Z" fill="#114227"/>
<path d="M16.2576 47.6699H16.0488V48.2999H16.6026C16.4188 48.1412 16.2951 47.9187 16.2576 47.6699Z" fill="#0F3A23"/>
<path d="M16.0488 46.2803V47.6703H16.2576C16.2488 47.6103 16.2451 47.549 16.2476 47.4878V46.2903C16.2351 46.2903 16.2251 46.2903 16.2126 46.2903C16.1576 46.2903 16.1038 46.2865 16.0488 46.2803Z" fill="#0D321E"/>
<path d="M33.8376 29.2489H33.1764V29.2502H33.8376V29.2489ZM31.9326 14.5127V14.6002C31.9426 14.6089 31.9551 14.6164 31.9664 14.6252H32.4939C32.3164 14.5614 32.1264 14.5227 31.9326 14.5127Z" fill="#1A8050"/>
<path d="M33.1777 29.25V46.4737C33.1777 46.49 33.1777 46.5075 33.1777 46.5225C33.5965 46.1388 33.854 45.5825 33.839 44.9687V44.9675V29.25H33.1777Z" fill="#13492B"/>
<path d="M32.4933 14.624H31.9658C32.3358 14.9078 32.5983 15.2365 32.5983 15.6178V16.5278C32.9696 16.9078 33.1933 17.4303 33.1783 18.004V29.2453H33.8396V16.5128C33.8333 15.6428 33.2746 14.9015 32.4933 14.624Z" fill="#0D6233"/>
<path d="M16.0303 44.9575V46.2775C16.0353 46.2775 16.0428 46.2788 16.0478 46.2788V44.9713C16.0428 44.9675 16.0365 44.9625 16.0303 44.9575Z" fill="#155030"/>
<path d="M16.0651 46.1775H16.0488V46.2788C16.1026 46.2863 16.1576 46.2888 16.2138 46.2888C16.2263 46.2888 16.2363 46.2888 16.2488 46.2888V46.2763H16.0663V46.1763" fill="#0C2E1C"/>
<path d="M16.2479 46.1777H16.0654V46.2777H16.2479V46.1777Z" fill="#0B2919"/>
<path d="M16.0488 44.9736V46.1799H16.0651V44.9874C16.0601 44.9799 16.0551 44.9761 16.0488 44.9736Z" fill="#0B2919"/>
<path d="M16.0654 44.9849V46.1774H16.2479V45.0974C16.1829 45.0674 16.1217 45.0286 16.0654 44.9849Z" fill="#0A2617"/>
<path d="M15.9971 12.8813C15.7896 13.0688 15.6621 13.3426 15.6671 13.6438V13.6613V44.1701C15.6671 44.4676 15.7934 44.7376 15.9971 44.9263V44.2763C15.8659 44.0988 15.7896 43.8788 15.7984 43.6401V43.2251C15.7984 43.2038 15.7984 43.1813 15.7984 43.1601V42.5951C15.7984 42.5851 15.7984 42.5738 15.7984 42.5613V38.2826H15.9971V12.8813Z" fill="#CBCBCB"/>
<path d="M15.9971 44.2773V44.9273L15.9983 44.9286V44.2798C15.9996 44.2786 15.9996 44.2786 15.9971 44.2773Z" fill="#1A8251"/>
<path d="M15.999 44.2803V44.929C16.009 44.9378 16.0203 44.9478 16.0303 44.9565V44.3203C16.019 44.3065 16.009 44.2953 15.999 44.2803Z" fill="#13492C"/>
<path d="M15.9966 38.2852H15.7979V42.5639C15.7979 42.5739 15.7979 42.5852 15.7979 42.5977V38.8839H15.9966V38.2852Z" fill="#CACACA"/>
<path d="M31.9326 14.6001V14.6251H31.9664C31.9526 14.6151 31.9426 14.6088 31.9326 14.6001Z" fill="#156A42"/>
<path d="M31.9644 14.624H31.9307V15.239C32.1557 15.539 32.2969 15.904 32.3257 16.2965C32.4219 16.3665 32.5132 16.444 32.5957 16.5303V15.6203C32.5969 15.2378 32.3344 14.909 31.9644 14.624Z" fill="#0A512A"/>
<path d="M31.9326 15.2402V15.5665C31.9726 15.7402 31.9951 15.9202 31.9989 16.1052C32.1151 16.159 32.2251 16.2227 32.3264 16.2965C32.2964 15.904 32.1551 15.5402 31.9326 15.2402Z" fill="#094926"/>
<path d="M31.9326 15.5674C31.9726 15.7411 31.9951 15.9211 31.9989 16.1061C31.9939 15.9199 31.9701 15.7411 31.9326 15.5674Z" fill="#083F21"/>
<path d="M31.9326 15.5674V16.0761C31.9551 16.0849 31.9764 16.0949 31.9989 16.1061C31.9939 15.9224 31.9701 15.7411 31.9326 15.5674Z" fill="#07381E"/>
<path d="M16.0303 44.3213V44.9575C16.0353 44.9625 16.0428 44.9675 16.0478 44.9713V44.34C16.0428 44.335 16.0365 44.3275 16.0303 44.3213Z" fill="#114127"/>
<path d="M16.0488 44.3428V44.974C16.0538 44.9778 16.0588 44.9828 16.0651 44.9865V44.3603C16.0601 44.354 16.0551 44.3478 16.0488 44.3428Z" fill="#0A2617"/>
<path d="M16.0654 44.3599V44.9861C16.1217 45.0299 16.1829 45.0686 16.2479 45.0999V44.5174C16.1817 44.4711 16.1192 44.4186 16.0654 44.3599Z" fill="#092415"/>
<path d="M32.8565 47.5952C32.6478 47.679 32.4203 47.7302 32.1815 47.739H31.999V48.284C31.999 48.3065 31.999 48.329 31.999 48.3527C32.3515 48.1852 32.6478 47.9215 32.8565 47.5952Z" fill="#175633"/>
<path d="M31.9995 47.7388H31.9545C31.907 47.995 31.8233 48.2388 31.707 48.465C31.807 48.435 31.9058 48.3988 31.9983 48.3525C31.9983 48.33 31.9983 48.3075 31.9983 48.2838V47.7388" fill="#155030"/>
<path d="M33.1215 46.9702C32.8465 47.1177 32.5328 47.2015 32.199 47.2065H31.999V47.2552V47.7377H32.1815C32.4203 47.729 32.6465 47.6777 32.8565 47.594C32.9778 47.4052 33.0665 47.1952 33.1215 46.9702Z" fill="#155030"/>
<path d="M31.9991 47.2563C31.9979 47.4213 31.9816 47.5826 31.9541 47.7388H31.9991V47.2563Z" fill="#144B2D"/>
<path d="M33.1753 46.5439C33.1665 46.5452 33.1578 46.5452 33.149 46.5477C32.8365 46.8227 32.439 47.0052 31.999 47.0489V47.2064H32.1978C32.5315 47.2014 32.8453 47.1152 33.1203 46.9702C33.1528 46.8339 33.1715 46.6914 33.1753 46.5439Z" fill="#144B2D"/>
<path d="M33.1779 46.5239C33.1691 46.5327 33.1604 46.5402 33.1504 46.5489C33.1591 46.5477 33.1679 46.5477 33.1766 46.5452C33.1779 46.5377 33.1779 46.5302 33.1779 46.5239Z" fill="#13492B"/>
<path d="M31.9535 47.7388H31.5922C31.3922 48.06 31.126 48.335 30.8135 48.5475H31.1872C31.3672 48.5425 31.541 48.5125 31.7085 48.4638C31.8222 48.2375 31.9072 47.9938 31.9535 47.7388Z" fill="#12462A"/>
<path d="M31.592 47.7388H30.9345C30.4857 48.0838 29.9245 48.2925 29.3145 48.3H16.6045C16.7757 48.4488 16.997 48.54 17.2407 48.5488H17.242H30.812C31.1257 48.3363 31.3907 48.0588 31.592 47.7388Z" fill="#113E25"/>
<path d="M31.9996 47.2075H31.8471C31.7808 47.395 31.6946 47.5738 31.5908 47.7388H31.9521C31.9821 47.5825 31.9971 47.4213 31.9971 47.2563V47.2075" fill="#114227"/>
<path d="M31.8468 47.2075H31.4593C31.3105 47.4075 31.133 47.5875 30.9355 47.7388H31.593C31.6955 47.5713 31.7818 47.395 31.8468 47.2075Z" fill="#103B23"/>
<path d="M31.9989 47.0488C31.9639 47.0526 31.9302 47.0538 31.8952 47.0563C31.8814 47.1076 31.8652 47.1576 31.8477 47.2076H31.9989V47.0488Z" fill="#113E25"/>
<path d="M31.8955 47.0562C31.8793 47.0562 31.8643 47.0574 31.848 47.0574H31.5618C31.528 47.1087 31.493 47.1574 31.458 47.2062H31.8455C31.8643 47.1574 31.8793 47.1074 31.8955 47.0562Z" fill="#0F3821"/>
<path d="M17.911 47.6699H16.2598C16.296 47.9187 16.4223 48.1412 16.6048 48.2999H29.316C29.926 48.2924 30.4873 48.0837 30.936 47.7387H18.2385C18.1223 47.7324 18.0123 47.7087 17.911 47.6699Z" fill="#0E3821"/>
<path d="M31.4592 47.2075H30.8329C30.4054 47.5 29.8867 47.67 29.3304 47.67C29.3254 47.67 29.3204 47.67 29.3142 47.67H17.9092C18.0104 47.71 18.1217 47.7325 18.2367 47.7388H30.9329C31.1329 47.5863 31.3104 47.4075 31.4592 47.2075Z" fill="#0E3520"/>
<path d="M31.563 47.0576H31.0318C30.968 47.1101 30.9018 47.1589 30.833 47.2064H31.4593C31.4955 47.1576 31.5305 47.1089 31.563 47.0576Z" fill="#0D331E"/>
<path d="M16.9393 46.2773H16.3981C16.3493 46.2848 16.2981 46.2873 16.2493 46.2898V47.4873C16.2481 47.5486 16.2506 47.6098 16.2593 47.6698H17.9106C17.5481 47.5298 17.2843 47.1923 17.2481 46.7936C17.0981 46.6561 16.9893 46.4798 16.9393 46.2773Z" fill="#0D301D"/>
<path d="M17.2471 46.7915C17.2833 47.1915 17.5471 47.5278 17.9096 47.6678H29.3146C29.3196 47.6678 29.3246 47.6678 29.3308 47.6678C29.8883 47.6678 30.4058 47.4978 30.8333 47.2053H18.2696H18.2521C18.0558 47.1978 17.8733 47.1365 17.7221 47.034C17.5421 46.9965 17.3796 46.9115 17.2471 46.7915Z" fill="#0C2E1C"/>
<path d="M17.7207 47.0352C17.8732 47.1364 18.0545 47.2002 18.2507 47.2064H18.2682H30.832C30.9007 47.1589 30.967 47.1102 31.0307 47.0577H17.9195C17.852 47.0564 17.7857 47.0489 17.7207 47.0352Z" fill="#0C2D1B"/>
<path d="M33.149 46.5474C33.0915 46.5549 33.0353 46.5574 32.9753 46.5574H31.999V47.0461C32.439 47.0049 32.8365 46.8249 33.149 46.5474Z" fill="#13462A"/>
<path d="M33.1779 29.249H32.5967V29.2503H33.1779V29.249Z" fill="#18794C"/>
<path d="M32.5965 29.25V43.1262C32.6015 43.505 32.5053 43.8613 32.3303 44.1675V44.1863V44.1875C32.3403 44.6175 32.2178 45.0188 31.999 45.3513V45.5775V46.5562H32.9753C33.0328 46.555 33.0915 46.5513 33.149 46.5463C33.1578 46.5375 33.1665 46.53 33.1765 46.5212C33.1765 46.505 33.1765 46.4875 33.1765 46.4725V29.25H32.5965Z" fill="#124429"/>
<path d="M32.5967 16.5303V29.249H33.1767V18.0078C33.1917 17.434 32.9692 16.9115 32.5967 16.5303Z" fill="#0C5C30"/>
<path d="M31.999 46.5601H31.989C31.9727 46.7301 31.9415 46.8963 31.8965 47.0563C31.9315 47.0551 31.9665 47.0526 32.0002 47.0488V46.5601" fill="#103B23"/>
<path d="M31.9993 46.3262C31.9993 46.4049 31.9955 46.4824 31.9893 46.5599H31.9993V46.3262Z" fill="#103A23"/>
<path d="M31.9882 46.5601H31.8182C31.7495 46.7351 31.6657 46.9026 31.5645 47.0576H31.8507C31.867 47.0576 31.882 47.0563 31.8982 47.0563C31.942 46.8963 31.9732 46.7301 31.9882 46.5601Z" fill="#0E3520"/>
<path d="M31.9989 45.5801C31.9989 45.9251 31.9339 46.2551 31.8164 46.5588H31.9864C31.9939 46.4813 31.9964 46.4051 31.9964 46.3251V45.5801" fill="#0E341F"/>
<path d="M31.8178 46.5601H31.4965C31.3628 46.7463 31.2053 46.9126 31.0303 47.0576H31.5615C31.664 46.9026 31.7503 46.7351 31.8178 46.5601Z" fill="#0D311D"/>
<path d="M31.9993 45.355C31.9905 45.3687 31.9805 45.385 31.9693 45.3987C31.9043 45.8287 31.7393 46.2225 31.498 46.56H31.8193C31.9368 46.2562 32.0018 45.925 32.0018 45.5812V45.355" fill="#0D301D"/>
<path d="M17.2422 46.2773H16.9385C16.9872 46.4786 17.0985 46.6561 17.2472 46.7923C17.2435 46.7611 17.2422 46.7273 17.2422 46.6936V46.2773Z" fill="#0C2E1C"/>
<path d="M17.2772 46.2773H17.2422V46.6948C17.2422 46.7286 17.2434 46.7598 17.2472 46.7936C17.3784 46.9123 17.5422 46.9986 17.7222 47.0373C17.4722 46.8673 17.3034 46.5911 17.2772 46.2773Z" fill="#0C2D1B"/>
<path d="M18.3551 46.2773H17.2764C17.3014 46.5911 17.4714 46.8686 17.7201 47.0348C17.7851 47.0486 17.8501 47.0561 17.9189 47.0573H31.0289C31.2039 46.9123 31.3626 46.7448 31.4951 46.5598H19.0301H19.0289C18.7676 46.5511 18.5326 46.4436 18.3551 46.2773Z" fill="#0B2B1A"/>
<path d="M31.9692 45.3989C31.6117 45.9164 31.0192 46.2614 30.3405 46.2777H29.3292H18.3555C18.5305 46.4464 18.768 46.5514 19.0305 46.5602H19.0317H31.4967C31.7392 46.2239 31.9067 45.8277 31.9692 45.3989Z" fill="#0B2B1A"/>
<path d="M16.3968 46.2773H16.248V46.2898C16.2968 46.2886 16.3455 46.2848 16.3968 46.2773Z" fill="#0C2D1B"/>
<path d="M16.9193 46.1777H16.248V46.2777H16.3968H16.938C16.9318 46.2452 16.9243 46.2115 16.9193 46.1777Z" fill="#0A2818"/>
<path d="M16.248 45.1001V46.1801H16.9193C16.9118 46.1263 16.9068 46.0713 16.9093 46.0151V45.2038H16.6618C16.5143 45.1963 16.3743 45.1588 16.248 45.1001Z" fill="#0A2516"/>
<path d="M32.3303 44.1689C32.239 44.3289 32.1265 44.4739 31.999 44.6039V45.3539C32.2178 45.0202 32.3415 44.6177 32.3303 44.1902V44.1889V44.1689Z" fill="#103D24"/>
<path d="M31.9997 45.0176C31.9997 45.1476 31.9897 45.2751 31.9697 45.4001C31.9797 45.3863 31.9885 45.3701 31.9997 45.3563V45.0176Z" fill="#0C2C1B"/>
<path d="M31.9988 44.6038C31.9001 44.7025 31.7938 44.79 31.6776 44.865C31.2263 45.7 30.3451 46.27 29.3301 46.2763H30.3413C31.0201 46.26 31.6126 45.915 31.9701 45.3975C31.9888 45.2725 31.9976 45.145 32.0001 45.015V44.6025" fill="#0A2818"/>
<path d="M17.2414 46.1777H16.9189C16.9239 46.2115 16.9289 46.244 16.9377 46.2777H17.2414V46.1777Z" fill="#0A2718"/>
<path d="M17.2734 46.1777H17.2422V46.2777H17.2772C17.2759 46.2452 17.2734 46.2115 17.2734 46.1777Z" fill="#0A2617"/>
<path d="M18.2647 46.1777H17.2734C17.2734 46.2115 17.2734 46.244 17.2772 46.2777H18.3559C18.3247 46.2465 18.2922 46.2127 18.2647 46.1777Z" fill="#0A2616"/>
<path d="M31.6784 44.8662C31.6484 44.885 31.6184 44.905 31.5871 44.9225C31.1121 45.6762 30.2721 46.1775 29.3146 46.1775H18.2646C18.2921 46.2125 18.3246 46.2462 18.3559 46.2775H29.3296C30.3459 46.2712 31.2284 45.7012 31.6784 44.8662Z" fill="#0A2516"/>
<path d="M17.242 45.2012H16.9082V46.0124C16.9082 46.0687 16.912 46.1224 16.9182 46.1774H17.2407V45.2012" fill="#0A2416"/>
<path d="M17.2734 45.2012H17.2422V46.1774H17.2734C17.2734 46.1724 17.2734 46.1674 17.2734 46.1612V45.2012Z" fill="#092415"/>
<path d="M18.0369 45.2012H17.2744V46.1624C17.2744 46.1674 17.2744 46.1724 17.2744 46.1787H18.2657C18.1169 45.9924 18.0307 45.7562 18.0382 45.4999L18.0369 45.2012Z" fill="#092315"/>
<path d="M31.5867 44.9224C31.2992 45.0911 30.9642 45.1924 30.6067 45.2011H18.0367V45.4986C18.028 45.7549 18.1155 45.9936 18.2642 46.1774H29.3142C30.2717 46.1774 31.1117 45.6761 31.5867 44.9224Z" fill="#092315"/>
<path d="M32.5963 29.249H32.3301V29.2503H32.5963V29.249Z" fill="#14653F"/>
<path d="M32.3301 29.25V44.17C32.5051 43.8638 32.6013 43.5075 32.5963 43.1288V29.2512L32.3301 29.25Z" fill="#0F3922"/>
<path d="M32.3271 16.2974C32.3321 16.3699 32.3346 16.4411 32.3309 16.5149V29.2486H32.5971V16.5299C32.5146 16.4449 32.4234 16.3674 32.3271 16.2974Z" fill="#0A4D28"/>
<path d="M16.248 44.5151V45.0976C16.3743 45.1589 16.5143 45.1939 16.663 45.1989H16.9105V44.6626L16.7943 44.6851H16.7768C16.5793 44.6801 16.398 44.6176 16.248 44.5151Z" fill="#092315"/>
<path d="M32.3303 29.249H31.999V29.2503H32.3303V29.249Z" fill="#135C39"/>
<path d="M31.999 29.25V44.605C32.129 44.475 32.239 44.33 32.3303 44.17V29.25H31.999Z" fill="#0E341F"/>
<path d="M31.999 16.1064C31.999 16.1277 31.999 16.1489 31.999 16.1677V16.7977V17.3939V29.2489H32.3303V16.5152C32.3315 16.4414 32.3315 16.3702 32.3265 16.2977C32.2228 16.2239 32.114 16.1602 31.999 16.1064Z" fill="#094624"/>
<path d="M31.9326 16.0762V16.2424C31.9726 16.4212 31.9951 16.6074 31.9989 16.7962V16.1662C31.9989 16.1449 31.9989 16.1237 31.9989 16.1049C31.9764 16.0949 31.9526 16.0849 31.9326 16.0762Z" fill="#07361D"/>
<path d="M31.9326 16.2427V16.8564C31.9726 17.0302 31.9951 17.2089 31.9989 17.3927V16.7964C31.9951 16.6077 31.9726 16.4214 31.9326 16.2427Z" fill="#07331B"/>
<path d="M31.999 43.5913C31.999 44.0526 31.8827 44.4851 31.6777 44.8663C31.794 44.7888 31.9002 44.7013 31.999 44.6051V43.5913Z" fill="#0A2516"/>
<path d="M31.9994 43.4937C31.9994 44.0199 31.8482 44.5087 31.5869 44.9249C31.6182 44.9074 31.6482 44.8887 31.6782 44.8687C31.8832 44.4899 31.9994 44.0549 31.9994 43.5937V43.4937Z" fill="#092315"/>
<path d="M31.9326 16.8564V17.5864C31.9726 17.7652 31.9951 17.9514 31.9989 18.1402V19.0689V29.2477V17.3927C31.9951 17.2089 31.9701 17.0302 31.9326 16.8564Z" fill="#063119"/>
<path d="M31.9326 17.5864V18.5152C31.9726 18.6939 31.9951 18.8802 31.9989 19.0689V18.1402C31.9951 17.9489 31.9726 17.7652 31.9326 17.5864Z" fill="#062F19"/>
<path d="M17.2417 44.6001L16.9092 44.6651V45.2013H17.2417V44.6001Z" fill="#092315"/>
<path d="M17.2734 44.5952L17.2422 44.6002V45.2015H17.2734V44.5952Z" fill="#092214"/>
<path d="M31.9326 18.5151V19.5264C31.9751 19.7101 31.9976 19.9001 31.9989 20.0964V29.2476V19.0689C31.9951 18.8789 31.9726 18.6939 31.9326 18.5151Z" fill="#062E18"/>
<path d="M18.0372 44.4487L17.2734 44.595V45.2012H18.0372V44.4487Z" fill="#092214"/>
<path d="M31.9989 29.249H31.9326L31.9989 29.2503V29.249Z" fill="#0C3B25"/>
<path d="M31.9331 29.2486V40.4236C31.9331 41.5673 28.9818 42.5623 27.8718 42.5623L18.0381 44.4473V45.1998H30.6081C30.9656 45.1911 31.2993 45.0911 31.5881 44.9211C31.8493 44.5073 32.0006 44.0161 32.0006 43.4898V29.2461L31.9331 29.2486Z" fill="#092214"/>
<path d="M31.9326 19.5273V29.2486H31.9989V20.0973C31.9964 19.8998 31.9739 19.7086 31.9326 19.5273Z" fill="#062D18"/>
<path d="M29.944 11.5737H29.9265H15.999V12.8812V12.1025H18.5065C18.659 12.0037 18.8403 11.9425 19.0328 11.9375H31.0603C30.7415 11.7187 30.359 11.5837 29.944 11.5737Z" fill="#1F975F"/>
<path d="M31.0596 11.9399H19.0321C18.8371 11.9474 18.6571 12.0062 18.5059 12.1049H29.9259H29.9434C30.4359 12.1174 30.8846 12.3037 31.2309 12.6024H31.6659C31.5159 12.3399 31.3084 12.1137 31.0596 11.9399Z" fill="#1E925B"/>
<path d="M31.6655 12.6025H31.2305C31.4905 12.8288 31.693 13.12 31.813 13.4475H31.9267C31.903 13.1425 31.8092 12.8563 31.6655 12.6025Z" fill="#1C8855"/>
<path d="M31.9253 13.4502H31.8115C31.884 13.6514 31.9253 13.8652 31.9328 14.0902V13.5602C31.9303 13.5214 31.929 13.4852 31.9253 13.4502Z" fill="#1A8050"/>
<path d="M15.9963 38.8838H15.7988V42.595V39.38H15.9963V38.8838Z" fill="#BEBEBE"/>
<path d="M15.7993 43.2261V43.6411C15.7918 43.8798 15.8656 44.1011 15.9981 44.2773V43.7986C15.8781 43.6373 15.8056 43.4386 15.7993 43.2261Z" fill="#B9B9B9"/>
<path d="M15.9971 43.7964V44.2764L15.9983 44.2776V43.7989C15.9996 43.7989 15.9996 43.7989 15.9971 43.7964Z" fill="#18774A"/>
<path d="M15.999 43.7998V44.2798C16.009 44.2936 16.0203 44.3073 16.0303 44.3198V43.8398C16.019 43.8261 16.009 43.8136 15.999 43.7998Z" fill="#114328"/>
<path d="M16.0303 43.8398V44.3198C16.0353 44.3273 16.0428 44.3336 16.0478 44.3411V43.8611C16.0428 43.8548 16.0365 43.8473 16.0303 43.8398Z" fill="#103C24"/>
<path d="M16.0488 43.8613V44.3413C16.0538 44.3463 16.0588 44.3538 16.0651 44.3588V43.8788C16.0601 43.8726 16.0551 43.8663 16.0488 43.8613Z" fill="#0A2516"/>
<path d="M16.0654 43.8789V44.3589C16.1192 44.4189 16.1817 44.4714 16.2479 44.5152V44.0352C16.1817 43.9914 16.1192 43.9389 16.0654 43.8789Z" fill="#092315"/>
<path d="M16.248 44.0352V44.5152C16.3993 44.6164 16.5818 44.6777 16.7755 44.6852H16.793L16.9093 44.6627V44.1827L16.793 44.2052H16.7755C16.5793 44.1989 16.398 44.1364 16.248 44.0352Z" fill="#092214"/>
<path d="M17.2417 44.1187L16.9092 44.1837V44.6649L17.2417 44.5999V44.1187Z" fill="#092214"/>
<path d="M17.2734 44.1123L17.2422 44.1186V44.5998L17.2734 44.5948V44.1123Z" fill="#092214"/>
<path d="M18.0372 43.9648L17.2734 44.1123V44.5948L18.0372 44.4486V43.9648Z" fill="#092114"/>
<path d="M31.9331 29.249V39.9278C31.9331 41.0715 28.9818 42.0665 27.8718 42.0665L18.0381 43.9653V44.4478L27.8718 42.5628C28.9818 42.5628 31.9331 41.569 31.9331 40.424V29.249Z" fill="#092114"/>
<path d="M18.5065 12.105H15.999V12.8837C16.174 12.7237 16.4078 12.6237 16.664 12.6212H18.0978C18.174 12.4062 18.3178 12.225 18.5065 12.105Z" fill="#1C8855"/>
<path d="M29.9439 12.105H29.9264H18.5064C18.3189 12.2262 18.1752 12.4062 18.0977 12.6187H18.1189C18.1677 12.61 18.2189 12.605 18.2702 12.6025H31.2302C30.8839 12.3025 30.4364 12.1162 29.9439 12.105Z" fill="#1B8453"/>
<path d="M31.2294 12.6025H18.2694C18.2182 12.6038 18.1682 12.61 18.1182 12.6188H26.8107C27.7819 12.6238 28.7407 12.87 29.5969 13.3325C29.6244 13.3688 29.6757 13.4075 29.7419 13.45H31.8107C31.6919 13.12 31.4907 12.8288 31.2294 12.6025Z" fill="#197C4E"/>
<path d="M31.8119 13.4502H29.7432C29.7957 13.4814 29.8569 13.5164 29.9294 13.5514C30.1032 13.5914 30.2694 13.6502 30.4294 13.7214C30.6044 13.8027 30.7694 13.9002 30.9219 14.0139C31.2232 14.1589 31.5357 14.3239 31.8057 14.5089H31.8507C31.8782 14.5089 31.9044 14.5102 31.9332 14.5127V14.0902C31.9257 13.8652 31.8857 13.6502 31.8119 13.4502Z" fill="#187549"/>
<path d="M30.4277 13.7212C30.6027 13.8024 30.7677 13.8999 30.9202 14.0137C30.9202 14.0137 30.9202 14.0137 30.9215 14.0137C30.7677 13.8999 30.6027 13.8024 30.4277 13.7212Z" fill="#14623D"/>
<path d="M29.9277 13.5513C30.1815 13.6813 30.5427 13.8338 30.9202 14.0138C30.7677 13.9 30.6027 13.8013 30.4277 13.7213C30.2677 13.65 30.1015 13.5913 29.9277 13.5513Z" fill="#115535"/>
<path d="M31.8507 14.5088H31.8057C31.8494 14.5388 31.8919 14.5688 31.9319 14.6V14.5125C31.9044 14.51 31.8782 14.51 31.8507 14.5088Z" fill="#166F45"/>
<path d="M15.7988 42.5952V43.2265C15.8063 43.439 15.8776 43.6365 15.9976 43.7965V43.1815C15.8751 43.0177 15.8026 42.8152 15.7988 42.5952Z" fill="#AFAFAF"/>
<path d="M15.9971 43.1812V43.7962L15.9996 43.7987V43.1837C15.9996 43.1824 15.9996 43.1824 15.9971 43.1812Z" fill="#177046"/>
<path d="M15.999 43.1851V43.8001C16.009 43.8138 16.0203 43.8276 16.0303 43.8401V43.2251C16.019 43.2113 16.009 43.1988 15.999 43.1851Z" fill="#103F26"/>
<path d="M15.9966 39.3799H15.7979V42.5961C15.8016 42.8149 15.8754 43.0174 15.9966 43.1824V39.3799Z" fill="#AEAEAE"/>
<path d="M18.0978 12.6187H16.664C16.4078 12.6224 16.1753 12.7224 15.999 12.8812V39.3799V43.1812L16.0003 43.1824V29.2299V14.6224H16.0315V14.5062C16.0365 14.5049 16.044 14.5024 16.049 14.5012V13.4787H17.2853C17.3478 13.0512 17.674 12.7074 18.0953 12.6212C18.0953 12.6212 18.0978 12.6199 18.0978 12.6187Z" fill="#176F46"/>
<path d="M15.999 29.2324V43.1849C16.009 43.1987 16.0203 43.2124 16.0303 43.2249V29.2487H15.999V29.2324Z" fill="#103F26"/>
<path d="M16.0303 14.624H15.999V29.2328V29.249H16.0303V14.624Z" fill="#0B552C"/>
<path d="M18.1192 12.6187H18.0979C18.0979 12.6199 18.0967 12.6224 18.0967 12.6224C18.1029 12.6212 18.1117 12.6199 18.1192 12.6187Z" fill="#166D44"/>
<path d="M18.0952 12.624C17.6727 12.7103 17.3464 13.054 17.2852 13.4815H18.0127C18.0214 13.4803 18.0289 13.4778 18.0377 13.4765V12.9853C18.0339 12.8565 18.0552 12.7365 18.0952 12.624Z" fill="#156942"/>
<path d="M26.8092 12.6187H18.1167C18.1092 12.6199 18.103 12.6224 18.0942 12.6224C18.0542 12.7349 18.033 12.8574 18.0342 12.9837V13.4749C18.0992 13.4587 18.1655 13.4499 18.2342 13.4487H29.7392C29.673 13.4062 29.6217 13.3674 29.5942 13.3312C28.7392 12.8687 27.7817 12.6237 26.8092 12.6187Z" fill="#156640"/>
<path d="M18.0367 13.4736C18.028 13.4749 18.0205 13.4774 18.0117 13.4786H18.0367V13.4736Z" fill="#14643F"/>
<path d="M29.7431 13.4502H18.2381C18.1693 13.4514 18.1031 13.4602 18.0381 13.4764V13.4814H29.3131H29.3306C29.5356 13.4827 29.7356 13.5077 29.9281 13.5514C29.8568 13.5152 29.7931 13.4814 29.7431 13.4502Z" fill="#14623D"/>
<path d="M29.331 13.4814H29.3135C29.526 13.4814 29.731 13.5064 29.9285 13.5514C29.736 13.5052 29.536 13.4814 29.331 13.4814Z" fill="#115535"/>
<path d="M30.9209 14.0137C31.1096 14.1562 31.2809 14.3224 31.4271 14.5087H31.8059C31.5346 14.3249 31.2221 14.1599 30.9209 14.0137Z" fill="#14623D"/>
<path d="M17.2851 13.4814H16.0488V14.5039V14.1439H16.0651V13.4814H17.2851Z" fill="#135E3B"/>
<path d="M30.9189 14.0137C31.1077 14.1562 31.2802 14.3224 31.4252 14.5087C31.2802 14.3224 31.1102 14.1562 30.9189 14.0137C30.9202 14.0137 30.9202 14.0137 30.9189 14.0137Z" fill="#115535"/>
<path d="M17.2854 13.4814H16.0654V14.1439H17.2754V13.6314C17.2729 13.5814 17.2792 13.5302 17.2854 13.4814Z" fill="#115233"/>
<path d="M18.0129 13.4814H17.2854C17.2779 13.5302 17.2754 13.5814 17.2754 13.6327V14.1452H17.2979C17.4079 13.8202 17.6766 13.5677 18.0129 13.4814Z" fill="#104F32"/>
<path d="M18.0369 13.4814H18.0119C17.6756 13.5677 17.4069 13.8214 17.2969 14.1439H18.0369V13.4814Z" fill="#104D30"/>
<path d="M29.3131 13.4814H18.0381V14.1439H29.3131C29.7481 14.1452 30.1606 14.2527 30.5231 14.4364C30.6481 14.4489 30.7681 14.4727 30.8856 14.5089H31.4268C31.2818 14.3227 31.1093 14.1564 30.9206 14.0139C30.5456 13.8339 30.1818 13.6802 29.9281 13.5514C29.7306 13.5052 29.5256 13.4814 29.3131 13.4814Z" fill="#0F4C2F"/>
<path d="M16.0651 14.1436H16.0488V14.5036C16.0538 14.5023 16.0588 14.4998 16.0651 14.4986V14.1436Z" fill="#115233"/>
<path d="M17.2735 14.1436H16.0635V14.4973C16.1122 14.4836 16.1622 14.4761 16.2122 14.4761C16.2735 14.4761 16.3347 14.4861 16.3947 14.5061H17.2397C17.236 14.4061 17.2485 14.3098 17.271 14.2173V14.1436" fill="#0F4A2E"/>
<path d="M17.2969 14.1436H17.2744V14.2186C17.2807 14.1948 17.2894 14.1686 17.2969 14.1436Z" fill="#0E472C"/>
<path d="M17.2732 14.2188C17.2482 14.3113 17.2382 14.4075 17.242 14.5075H17.2732V14.2188Z" fill="#0E472C"/>
<path d="M18.0369 14.1436H17.2969C17.2882 14.1686 17.2807 14.1948 17.2744 14.2186V14.5073H18.0369V14.1436Z" fill="#0E462C"/>
<path d="M29.3131 14.1436H18.0381V14.5086H30.3093L30.3443 14.4261H30.3781C30.4268 14.4273 30.4768 14.4311 30.5231 14.4361C30.1581 14.2523 29.7481 14.1473 29.3131 14.1436Z" fill="#0E442B"/>
<path d="M31.8045 14.5088H31.4258C31.4558 14.545 31.4833 14.5838 31.512 14.625H31.9308V14.6C31.8908 14.57 31.8483 14.5388 31.8045 14.5088Z" fill="#135D3A"/>
<path d="M31.9334 14.624H31.5146C31.6021 14.749 31.6796 14.8815 31.7459 15.0215C31.8146 15.0903 31.8771 15.1615 31.9334 15.239V14.624Z" fill="#094725"/>
<path d="M31.4277 14.5088C31.4577 14.545 31.4852 14.5838 31.514 14.625C31.4852 14.5863 31.4565 14.5475 31.4277 14.5088Z" fill="#105133"/>
<path d="M31.5127 14.624C31.6002 14.749 31.6777 14.8815 31.7427 15.0203C31.6777 14.8828 31.6002 14.749 31.5127 14.624Z" fill="#083E20"/>
<path d="M31.428 14.5088H30.8867C30.9905 14.5388 31.0905 14.5788 31.1867 14.625H31.5142C31.4855 14.5863 31.4555 14.5475 31.428 14.5088Z" fill="#0F492E"/>
<path d="M31.5121 14.624H31.1846C31.3933 14.724 31.5808 14.859 31.7421 15.0203C31.6783 14.8828 31.5996 14.749 31.5121 14.624Z" fill="#07371D"/>
<path d="M16.0303 43.2251V43.8401C16.0353 43.8476 16.0428 43.8538 16.0478 43.8613V43.2463C16.0428 43.2388 16.0365 43.2326 16.0303 43.2251Z" fill="#0F3922"/>
<path d="M16.0497 14.5039C16.0447 14.5052 16.0372 14.5077 16.0322 14.5089V14.6252H16.0497V14.5039Z" fill="#14643E"/>
<path d="M16.0497 29.249H16.0322V43.2253C16.0372 43.2328 16.0447 43.239 16.0497 43.2465V29.249Z" fill="#0F3822"/>
<path d="M16.049 14.624H16.0303V29.249H16.049V17.4265V15.4878V14.624Z" fill="#0A4C28"/>
<path d="M30.5234 14.439C30.5672 14.4615 30.6109 14.4865 30.6547 14.5115H30.8859C30.7684 14.4752 30.6472 14.4515 30.5234 14.439Z" fill="#0E472C"/>
<path d="M16.0651 14.4976C16.0601 14.4988 16.0551 14.5013 16.0488 14.5026V14.6238H16.0651V14.4976Z" fill="#0F4C30"/>
<path d="M16.0651 14.624H16.0488V15.4878V14.774H16.0651V14.624Z" fill="#073A1E"/>
<path d="M16.2142 14.479C16.1629 14.479 16.1142 14.4865 16.0654 14.5003V14.6265H17.2442V14.5128V14.5115H16.3992C16.3367 14.489 16.2754 14.479 16.2142 14.479Z" fill="#0E462C"/>
<path d="M17.2422 14.624H16.0635V14.7728H17.2385C17.2397 14.7728 17.2397 14.7715 17.2422 14.7715V14.624Z" fill="#07361C"/>
<path d="M17.2734 14.5088H17.2422V14.51V14.6238H17.2734V14.5088Z" fill="#0E442A"/>
<path d="M17.2734 14.624H17.2422V14.7715C17.2522 14.7628 17.2634 14.7528 17.2734 14.744V14.624Z" fill="#07341B"/>
<path d="M18.0369 14.5088H17.2744V14.625H17.4519C17.5919 14.5513 17.7519 14.5088 17.9219 14.5088H18.0369Z" fill="#0D4229"/>
<path d="M17.4529 14.624H17.2754V14.7428C17.3291 14.6978 17.3891 14.6578 17.4529 14.624Z" fill="#06321A"/>
<path d="M30.3771 14.4277H30.3434L30.3084 14.5102H18.0371H30.6534C30.6096 14.4852 30.5659 14.4615 30.5221 14.4377C30.4734 14.434 30.4271 14.4302 30.3771 14.4277Z" fill="#0D4229"/>
<path d="M16.0651 14.7739H16.0488V15.4877H16.0651V14.7739Z" fill="#07361C"/>
<path d="M16.0651 15.4873H16.0488V16.4161H16.0651V15.4873Z" fill="#07341B"/>
<path d="M16.0488 43.2461V43.8611C16.0538 43.8661 16.0588 43.8736 16.0651 43.8786V43.2636C16.0601 43.2586 16.0551 43.2511 16.0488 43.2461Z" fill="#0A2416"/>
<path d="M16.0651 16.4165H16.0488V17.4265H16.0651V16.4165Z" fill="#06311A"/>
<path d="M16.0651 29.249H16.0488V43.2465C16.0538 43.2515 16.0588 43.259 16.0651 43.264V29.249Z" fill="#0A2416"/>
<path d="M16.0651 17.4263H16.0488V29.2488H16.0651V17.4263Z" fill="#06311A"/>
<path d="M17.2404 14.7739H16.0654V15.4877H16.9104C16.9192 15.2052 17.0454 14.9527 17.2404 14.7739Z" fill="#07321A"/>
<path d="M16.9095 15.4873H16.0645V16.4161H16.4007C16.5182 16.2248 16.6957 16.0723 16.9095 15.9886V15.5536V15.5198C16.9095 15.5098 16.9095 15.4973 16.9095 15.4873Z" fill="#063019"/>
<path d="M16.0654 43.2637V43.8787C16.1192 43.9387 16.1817 43.9912 16.2479 44.0349V43.4199C16.1817 43.3762 16.1192 43.3237 16.0654 43.2637Z" fill="#092214"/>
<path d="M16.4007 16.4165H16.0645V17.4278H16.247V16.9628C16.2482 16.7615 16.3045 16.5765 16.4007 16.4165Z" fill="#062F19"/>
<path d="M16.2479 29.249H16.0654V43.264C16.1192 43.324 16.1817 43.3765 16.2479 43.4215V29.249Z" fill="#092214"/>
<path d="M16.2479 17.4263H16.0654V29.2488H16.2479V17.4263Z" fill="#062E18"/>
<path d="M31.7432 15.0225C31.8244 15.1937 31.8882 15.3762 31.9307 15.5675V15.2412C31.8744 15.1625 31.8119 15.0912 31.7432 15.0225Z" fill="#084122"/>
<path d="M31.7432 15.02C31.8257 15.1913 31.8882 15.3763 31.9319 15.565C31.8882 15.3763 31.8257 15.1938 31.7432 15.02C31.7432 15.0225 31.7432 15.0225 31.7432 15.02Z" fill="#073A1E"/>
<path d="M30.8855 14.5088H30.6543C30.7155 14.545 30.7768 14.5838 30.8343 14.625H31.183C31.0893 14.5788 30.9893 14.54 30.8855 14.5088Z" fill="#0E462B"/>
<path d="M31.1857 14.624H30.8369C31.3294 14.9665 31.7044 15.4678 31.8832 16.0553C31.9007 16.0628 31.9169 16.069 31.9319 16.0765V15.5678C31.8882 15.3765 31.8244 15.194 31.7432 15.0228C31.5819 14.859 31.3944 14.724 31.1857 14.624Z" fill="#07351C"/>
<path d="M17.2423 14.7715C17.2409 14.7715 17.2409 14.7728 17.2383 14.7728H17.2423V14.7715Z" fill="#07341B"/>
<path d="M17.2734 14.7437C17.2634 14.7524 17.2522 14.7612 17.2422 14.7712V14.7724H17.2734V14.7437Z" fill="#06321A"/>
<path d="M18.0364 14.5088H17.9202C17.7502 14.5088 17.5902 14.5513 17.4502 14.625H18.0364V14.5088Z" fill="#0D4128"/>
<path d="M18.0372 14.624H17.4509C17.3884 14.6578 17.3284 14.6978 17.2734 14.7428V14.7728H18.0359L18.0372 14.624Z" fill="#06311A"/>
<path d="M30.6543 14.5088H18.0381V14.625H30.8368C30.7768 14.5838 30.7156 14.545 30.6543 14.5088Z" fill="#0D4128"/>
<path d="M30.8346 14.624H18.0371V14.7728H29.3121C30.2359 14.7728 31.0546 15.2415 31.5396 15.954C31.6571 15.9765 31.7734 16.0115 31.8821 16.054C31.7034 15.4678 31.3296 14.9665 30.8346 14.624Z" fill="#06311A"/>
<path d="M17.242 14.7739H17.2382C17.0432 14.9514 16.9195 15.2052 16.9082 15.4877H17.242V14.7739Z" fill="#06311A"/>
<path d="M17.242 15.4873H16.9082C16.9082 15.4973 16.9082 15.5098 16.9082 15.5211V15.5548V15.9898C17.012 15.9498 17.1245 15.9236 17.242 15.9173V15.4873Z" fill="#062F19"/>
<path d="M17.2734 14.7739H17.2422V15.4877H17.2734V14.7739Z" fill="#063119"/>
<path d="M17.2734 15.4873H17.2422V15.9186H17.2734V15.4873Z" fill="#062F19"/>
<path d="M18.0372 14.7739H17.2734V15.4877H18.0372V14.7739Z" fill="#062F19"/>
<path d="M29.3131 14.7739H18.0381V15.4877H29.3131C29.8456 15.4914 30.3443 15.6489 30.7618 15.9189H31.1881H31.2056C31.3193 15.9227 31.4318 15.9352 31.5406 15.9577C31.0556 15.2414 30.2368 14.7739 29.3131 14.7739Z" fill="#062F19"/>
<path d="M18.0372 15.4873H17.2734V15.9186H18.0372V15.4873Z" fill="#062E18"/>
<path d="M29.3131 15.4873H18.0381V15.9186H30.7618C30.3418 15.6486 29.8456 15.4898 29.3131 15.4873Z" fill="#062E18"/>
<path d="M16.9091 15.9888C16.6966 16.0725 16.5179 16.2238 16.4004 16.4163H16.9091V15.9888Z" fill="#062F19"/>
<path d="M16.248 43.4199V44.0349C16.3993 44.1362 16.5818 44.1974 16.7755 44.2049H16.793L16.9093 44.1824V43.5687L16.793 43.5912C16.5918 43.5874 16.4043 43.5249 16.248 43.4199Z" fill="#092214"/>
<path d="M16.9096 16.4165H16.4008C16.3021 16.5765 16.2471 16.764 16.2471 16.964V17.429H16.9083V16.4178" fill="#062E18"/>
<path d="M16.9093 29.249H16.248V43.4203C16.4043 43.5253 16.5918 43.589 16.7955 43.5915L16.9118 43.569V29.249" fill="#092214"/>
<path d="M16.9093 17.4263H16.248V29.2488H16.9093V17.4263Z" fill="#062E18"/>
<path d="M31.8818 16.0576C31.9006 16.1189 31.9168 16.1801 31.9306 16.2439V16.0776C31.9156 16.0689 31.8993 16.0626 31.8818 16.0576Z" fill="#07331B"/>
<path d="M31.5391 15.9551C31.7216 16.2238 31.8566 16.5288 31.9316 16.8551V16.2413C31.9178 16.1776 31.9003 16.1163 31.8828 16.0551C31.7728 16.0126 31.6566 15.9801 31.5391 15.9551Z" fill="#063019"/>
<path d="M17.242 15.9189C17.1245 15.9239 17.012 15.9489 16.9082 15.9914V16.4189H17.242V15.9189Z" fill="#062F19"/>
<path d="M17.2734 15.9189H17.2422V16.4164H17.2734V15.9189Z" fill="#062E18"/>
<path d="M31.2045 15.9189H31.187H30.7607C31.3432 16.2964 31.772 16.8889 31.932 17.5864V16.8564C31.857 16.5302 31.722 16.2252 31.5395 15.9564C31.4307 15.9339 31.3195 15.9227 31.2045 15.9189Z" fill="#062F19"/>
<path d="M18.0372 15.9189H17.2734V16.4164H18.0372V15.9189Z" fill="#062E18"/>
<path d="M30.7618 15.9189H18.0381V16.4164H29.3131C30.5893 16.4239 31.6593 17.3177 31.9331 18.5152V17.5864C31.7731 16.8877 31.3431 16.2939 30.7618 15.9189Z" fill="#062D18"/>
<path d="M17.2417 43.5049L16.9092 43.5699V44.1836L17.2417 44.1186V43.5049Z" fill="#092214"/>
<path d="M17.2734 43.5L17.2422 43.505V44.1188L17.2734 44.1125V43.5Z" fill="#092114"/>
<path d="M18.0372 43.3525L17.2734 43.5V44.1125L18.0372 43.965V43.3525Z" fill="#092114"/>
<path d="M31.9331 29.249V39.3303C31.9331 40.474 28.9818 41.469 27.8718 41.469L18.0381 43.354V43.9665L27.8718 42.0678C28.9818 42.0678 31.9331 41.0715 31.9331 39.929V29.249Z" fill="#092114"/>
<path d="M17.2417 16.4165H16.9092V17.4265H17.2417V16.4165Z" fill="#062E18"/>
<path d="M17.2417 29.249H16.9092V43.5703L17.2417 43.5053V29.249Z" fill="#092214"/>
<path d="M17.2417 17.4263H16.9092V29.2488H17.2417V17.4263Z" fill="#062D18"/>
<path d="M17.2734 16.4165H17.2422V17.4265H17.2734V16.4165Z" fill="#062D18"/>
<path d="M17.2734 29.249H17.2422V43.5053L17.2734 43.5003V29.249Z" fill="#092114"/>
<path d="M17.2734 17.4263H17.2422V29.2488H17.2734V17.4263Z" fill="#062D17"/>
<path d="M18.0372 16.4165H17.2734V17.4265H18.0372V16.4165Z" fill="#062D17"/>
<path d="M29.3131 16.4165H18.0381V17.4278H29.3131C30.5918 17.4353 31.6593 18.329 31.9331 19.5265V18.5153C31.6593 17.3165 30.5893 16.424 29.3131 16.4165Z" fill="#062C17"/>
<path d="M18.0372 29.249H17.2734V43.5003L18.0372 43.3528V29.249Z" fill="#092114"/>
<path d="M18.0372 17.4263H17.2734V29.2488H18.0372V17.4263Z" fill="#062C17"/>
<path d="M31.3731 29.249H18.0381V43.354L27.8718 41.469C28.9818 41.469 31.9331 40.4728 31.9331 39.3303V29.249H31.3731Z" fill="#092114"/>
<path d="M29.3131 17.4263H18.0381V29.2475H31.3731H31.9318V19.5263C31.6593 18.33 30.5906 17.435 29.3131 17.4263Z" fill="#062C17"/>
<path d="M2.66931 12.5186H29.3306C30.8381 12.5623 32.0293 13.8123 31.9993 15.3211V43.1611C32.0556 44.6686 30.8881 45.9423 29.3793 46.0136H2.66931C1.16681 45.9861 -0.029445 44.7473 0.000554965 43.2461V43.2286V15.3223C-0.029445 13.8136 1.16056 12.5636 2.66931 12.5186Z" fill="#107C41"/>
<path d="M7.25977 39.6802L13.5448 29.4327L7.77352 19.3164H12.4173L15.551 25.7827C15.7735 26.2477 15.9735 26.7239 16.1485 27.2077C16.3473 26.7277 16.5798 26.2289 16.811 25.7827L20.1285 19.3652H24.391L18.5385 29.4277L24.5898 39.6577H20.0485L16.3998 32.6102C16.2335 32.3039 16.0848 31.9877 15.9523 31.6652C15.8423 31.9839 15.6985 32.2889 15.521 32.5764L11.791 39.6889L7.25977 39.6802Z" fill="white"/>
</svg>
