<svg width="37" height="58" viewBox="0 0 37 58" fill="none" xmlns="http://www.w3.org/2000/svg">
<path d="M55.3292 0.855957H27.8115C27.8115 4.15046 29.1203 7.31002 31.4498 9.63958C33.7794 11.9691 36.9389 13.2779 40.2334 13.2779H45.3025V18.1722C45.307 25.0264 50.8622 30.5818 57.7164 30.5863V3.24312C57.7164 1.9251 56.6479 0.855957 55.3292 0.855957Z" fill="#2684FF"/>
<path d="M41.7138 14.5669H14.1963C14.2005 21.4211 19.7557 26.9765 26.6102 26.981H31.6792V31.8909C31.688 38.7451 37.247 44.2967 44.1012 44.2967V16.9545C44.1012 15.636 43.0322 14.5669 41.7138 14.5669Z" fill="url(#paint0_linear_3707_18801)"/>
<path d="M28.09 28.27H0.572266C0.572266 35.1305 6.13395 40.6919 12.9942 40.6919H18.0792V45.586C18.0836 52.4339 23.6292 57.9869 30.4774 57.9999V30.6574C30.4774 29.3389 29.4084 28.27 28.09 28.27Z" fill="url(#paint1_linear_3707_18801)"/>
<defs>
<linearGradient id="paint0_linear_3707_18801" x1="7499.29" y1="28.2544" x2="4530.69" y2="3497.49" gradientUnits="userSpaceOnUse">
<stop offset="0.18" stop-color="#0052CC"/>
<stop offset="1" stop-color="#2684FF"/>
</linearGradient>
<linearGradient id="paint1_linear_3707_18801" x1="7686.84" y1="66.9517" x2="4252.93" y2="3850.81" gradientUnits="userSpaceOnUse">
<stop offset="0.18" stop-color="#0052CC"/>
<stop offset="1" stop-color="#2684FF"/>
</linearGradient>
</defs>
</svg>
