<svg width="37" height="12" viewBox="0 0 37 12" fill="none" xmlns="http://www.w3.org/2000/svg">
<path d="M18.9217 1.50415H20.281V8.22283C20.281 9.99442 19.4723 11.2312 17.5967 11.2312C16.8911 11.2312 16.3405 11.1142 15.9619 10.9805V9.6936C16.3749 9.86074 16.8739 9.94431 17.3729 9.94431C18.5258 9.94431 18.9217 9.27576 18.9217 8.3064V1.50415Z" fill="white"/>
<path d="M22.7763 0.986084C23.3097 0.986084 23.6883 1.30363 23.6883 1.87188C23.6883 2.42342 23.3097 2.75768 22.7763 2.75768C22.2428 2.75768 21.8643 2.44013 21.8643 1.87188C21.8643 1.32035 22.2428 0.986084 22.7763 0.986084ZM22.1052 3.8106H23.4129V11.1644H22.1052V3.8106Z" fill="white"/>
<path d="M26.6474 11.1644H25.374V3.81057H26.6474V5.0975C27.0948 4.22841 27.8519 3.61003 29.3318 3.69359V4.93037C27.6627 4.76323 26.6474 5.24789 26.6474 6.81894V11.1644Z" fill="white"/>
<path d="M35.4411 9.84402C34.9593 10.8134 34.0473 11.3147 32.8772 11.3147C30.8639 11.3147 29.8486 9.66018 29.8486 7.48745C29.8486 5.415 30.9155 3.66016 33.0321 3.66016C34.1333 3.66016 34.9937 4.14481 35.4411 5.09747V3.81054H36.7489V11.1644H35.4411V9.84402ZM33.2213 10.1448C34.3915 10.1448 35.4239 9.42618 35.4239 7.78827V7.20334C35.4239 5.56543 34.4775 4.84677 33.359 4.84677C31.8963 4.84677 31.1392 5.78272 31.1392 7.48745C31.1564 9.25904 31.8791 10.1448 33.2213 10.1448Z" fill="white"/>
<path d="M12.0895 0H6.13574C6.13574 1.43733 7.34026 2.60725 8.8201 2.60725H9.92137V3.62675C9.92137 5.06407 11.1259 6.23402 12.6058 6.23402V0.501396C12.6058 0.217273 12.3821 0 12.0895 0Z" fill="white"/>
<path d="M9.14719 2.87476H3.19336C3.19336 4.31209 4.39789 5.482 5.87776 5.482H6.97902V6.51822C6.97902 7.95554 8.18359 9.1255 9.66343 9.1255V3.37613C9.66343 3.10874 9.43971 2.87476 9.14719 2.87476Z" fill="white"/>
<path d="M6.20482 5.76611H0.250977C0.250977 7.20343 1.45551 8.37334 2.93536 8.37334H4.03665V9.39286C4.03665 10.8302 5.24117 12.0001 6.72102 12.0001V6.26748C6.72102 5.98336 6.48015 5.76611 6.20482 5.76611Z" fill="white"/>
</svg>
