<svg width="39" height="10" viewBox="0 0 39 10" fill="none" xmlns="http://www.w3.org/2000/svg">
<path fill-rule="evenodd" clip-rule="evenodd" d="M2.88268 3.91176C2.89263 4.03149 3.01762 4.2882 3.06742 4.4035C3.1375 4.56578 3.18923 4.73907 3.26504 4.88235C4.64209 4.56152 5.85329 5.59782 5.85329 6.82354C5.85329 7.19936 5.82101 7.4503 5.65745 7.77477C5.32565 8.43292 4.65867 8.97061 3.91209 8.97061C3.13394 8.97061 2.55978 8.74309 2.10073 8.1349C1.3729 7.17058 1.64872 5.66508 2.79444 5.05883C2.75837 4.90403 2.67521 4.73208 2.61801 4.58818C2.57143 4.47097 2.45178 4.24129 2.44149 4.11764C2.11865 4.14451 1.42266 4.83358 1.23546 5.11751C0.913682 5.60555 0.720636 6.14542 0.676758 6.69371V7.17145C0.705283 7.52525 0.798058 7.87731 0.960673 8.21609C1.2797 8.88063 1.78357 9.38379 2.441 9.70635C2.80373 9.88432 3.21947 9.9823 3.64065 10H3.91838C4.33162 9.98279 4.74006 9.88828 5.09874 9.71609C6.10044 9.23523 6.88266 8.15934 6.88266 7.05881C6.88266 6.42623 6.84551 6.13714 6.58843 5.55892C6.52545 5.41725 6.40566 5.23087 6.31148 5.10057C6.19929 4.94533 6.0954 4.81534 5.96385 4.6835C5.25573 3.9737 4.30918 3.70624 3.29918 3.82828C3.16033 3.84506 3.01558 3.90069 2.88264 3.91174L2.88268 3.91176Z" fill="white"/>
<path fill-rule="evenodd" clip-rule="evenodd" d="M25.4707 8.70583H26.3531V7.11758C26.3531 7.02714 27.1736 6.24723 27.2354 6.20581C27.3143 6.26358 27.9729 7.28261 28.0825 7.44697L28.9119 8.70581H29.9707C29.9569 8.53946 29.0267 7.26688 28.9414 7.14687L28.024 5.79958C27.962 5.70873 27.9343 5.68609 27.8825 5.58815C27.9745 5.45069 29.6519 3.77459 29.8163 3.61019C29.9109 3.51566 30.0521 3.43005 30.0884 3.29401C29.8237 3.29401 29.5589 3.29475 29.2942 3.29397C28.8524 3.29265 28.9665 3.28342 28.7281 3.52195L26.3531 5.94108C26.3531 4.50939 26.3321 2.92532 26.3548 1.49815C26.3596 1.19562 26.4447 1.26457 25.4707 1.26457V8.70579V8.70583Z" fill="white"/>
<path fill-rule="evenodd" clip-rule="evenodd" d="M32.1771 4.08818C32.7144 4.08818 33.016 4.08918 33.4345 4.50716C33.5595 4.63193 33.6392 4.73049 33.7115 4.90663C33.7678 5.04369 33.8382 5.25645 33.8535 5.44113H30.7947C30.8071 4.88446 31.4719 4.08818 32.1771 4.08818H32.1771ZM29.8535 5.99996C29.8535 6.82792 30.2323 7.69811 30.7189 8.07581C31.2032 8.45178 31.6453 8.70586 32.383 8.70586C33.1345 8.70586 33.8585 8.41191 34.2861 7.9031C34.3799 7.79139 34.6156 7.4906 34.6477 7.35291C34.4094 7.22682 34.1497 7.12554 33.9124 6.99996C33.8703 7.18064 33.551 7.52027 33.4132 7.61842C32.3631 8.36595 30.7359 7.67674 30.7359 6.17642H34.7359C34.8404 5.72788 34.6956 5.12839 34.5635 4.76054C33.9921 3.16827 31.7395 2.74161 30.5228 4.1104C30.1681 4.50947 29.8535 5.25272 29.8535 5.99994V5.99996Z" fill="white"/>
<path fill-rule="evenodd" clip-rule="evenodd" d="M22.3241 7.91162C21.9861 7.91162 21.7641 7.88899 21.4629 7.74342C20.3559 7.2086 20.1542 5.51338 20.946 4.65124L21.1559 4.44936C21.2225 4.39288 21.3404 4.31703 21.4215 4.27374C22.2575 3.8274 23.4676 4.1524 23.8578 5.23082C23.9447 5.47096 23.9842 5.7031 23.9801 5.99548C23.9714 6.61291 23.8143 6.9814 23.5346 7.32804C23.3132 7.60232 22.8146 7.91165 22.3241 7.91165V7.91162ZM19.6182 5.97043C19.6182 8.40135 22.2049 9.48163 23.9216 8.09736C24.9988 7.22872 25.1692 5.4098 24.2822 4.27694C24.228 4.20763 24.1801 4.14344 24.1254 4.0808C23.7035 3.5976 22.8981 3.29395 22.2064 3.29395C21.7986 3.29395 21.4282 3.4014 21.1463 3.52793C20.7047 3.72607 20.3398 4.02301 20.0766 4.4288C19.7945 4.86366 19.6182 5.38939 19.6182 5.97041V5.97043Z" fill="white"/>
<path fill-rule="evenodd" clip-rule="evenodd" d="M14.7944 6.00011C14.7944 4.99757 15.5049 4.08833 16.4414 4.08833C17.0866 4.08833 17.4146 4.19103 17.8758 4.68341C18.5629 5.41709 18.5184 7.12869 17.3516 7.73383C16.8738 7.98169 16.2582 7.96885 15.774 7.72634C15.1406 7.40907 14.7944 6.70578 14.7944 6.00009L14.7944 6.00011ZM13.9414 6.00011C13.9414 6.35426 14.0346 6.77837 14.1638 7.10127C14.4049 7.70389 14.8894 8.20946 15.4712 8.47038C17.3171 9.29844 19.1767 7.8707 19.1767 6.17657C19.1767 5.63204 19.1692 5.31333 18.9318 4.80384C18.7859 4.49081 18.6328 4.26473 18.4048 4.03672C17.6605 3.29243 16.4576 3.07073 15.4511 3.53914C15.0794 3.71209 14.9533 3.82881 14.684 4.09561C14.2145 4.56091 13.9414 5.33002 13.9414 6.00009V6.00011Z" fill="white"/>
<path fill-rule="evenodd" clip-rule="evenodd" d="M9.88281 8.70586H13.9711V7.85291H10.7652V1.35289C10.7652 1.28513 10.7447 1.26465 10.6769 1.26465H9.88281V8.70586Z" fill="white"/>
<path fill-rule="evenodd" clip-rule="evenodd" d="M35.3242 8.70592H36.2066V5.61768C36.2066 5.00667 36.8041 4.2059 37.4713 4.2059C37.8163 4.2059 38.0008 4.19777 38.3242 4.35295V3.41178C37.7237 3.12361 36.8826 3.37192 36.4345 3.87497C36.358 3.96082 36.2178 4.15931 36.2066 4.29412L36.1478 3.29412H35.3242V8.70592Z" fill="white"/>
<path fill-rule="evenodd" clip-rule="evenodd" d="M0.676758 2.44127C0.676758 3.05787 0.882615 3.4994 1.45053 3.78515C1.74173 3.9317 1.91082 3.91185 2.23559 3.91185C2.38475 3.91185 2.2779 3.76804 2.18936 3.54633C2.03896 3.16981 2.12168 3.2629 1.90066 3.21739C0.902521 3.01185 1.40712 1.43894 2.41207 1.97068L2.91921 1.47782C2.77989 1.40074 2.72896 1.34189 2.5728 1.28052C1.55849 0.88206 0.676758 1.70591 0.676758 2.44125V2.44127Z" fill="white"/>
<path fill-rule="evenodd" clip-rule="evenodd" d="M2.88281 0.794101C2.88281 1.23576 2.94344 1.10817 3.00047 1.35293C3.10222 1.32576 3.3859 1.03344 3.4024 0.963831C3.42436 0.871226 3.36742 0.825506 3.45214 0.687731C3.70861 0.270701 4.41214 0.733705 3.99547 1.14205C3.78235 1.3509 3.80842 1.05605 3.46366 1.40437C3.38919 1.47963 3.3211 1.53412 3.26518 1.61766C4.11347 2.06652 4.64754 1.32542 4.64754 0.911779C4.64754 0.353225 4.24091 0.0273813 3.81494 0H3.69794C3.50026 0.0128542 3.30605 0.0912284 3.15392 0.241688C3.02891 0.365317 2.88281 0.557621 2.88281 0.794121V0.794101Z" fill="white"/>
<path fill-rule="evenodd" clip-rule="evenodd" d="M2.65365 2.21265C2.68611 2.37404 2.81192 2.50849 2.66542 2.84204C2.62042 2.94449 2.5293 2.98947 2.5293 3.08828C2.5293 3.1297 2.73458 3.57712 2.76459 3.70594C3.19322 3.47914 3.41166 3.01319 3.41166 2.50006C3.41166 2.14732 3.28744 1.94513 3.14695 1.73535L2.65367 2.21267L2.65365 2.21265Z" fill="white"/>
</svg>
