<svg width="41" height="64" viewBox="0 0 41 64" fill="none" xmlns="http://www.w3.org/2000/svg">
<path fill-rule="evenodd" clip-rule="evenodd" d="M14.5437 25.0354C14.6074 25.8017 15.4073 27.4446 15.726 28.1825C16.1745 29.2211 16.5056 30.3301 16.9908 31.2471C25.8039 29.1938 33.5556 35.8261 33.5556 43.6708C33.5556 46.076 33.349 47.682 32.3022 49.7586C30.1787 53.9708 25.91 57.412 21.1319 57.412C16.1517 57.412 12.4771 55.9559 9.53923 52.0635C4.88106 45.8918 6.64634 36.2566 13.9789 32.3766C13.7481 31.3859 13.2159 30.2854 12.8498 29.3645C12.5517 28.6143 11.7859 27.1444 11.72 26.353C9.65389 26.525 5.19956 30.935 4.00148 32.7522C1.9421 35.8756 0.7066 39.3308 0.425781 42.8398V45.8974C0.60834 48.1617 1.2021 50.4149 2.24284 52.5831C4.2846 56.8361 7.5094 60.0563 11.7169 62.1207C14.0384 63.2597 16.6992 63.8868 19.3947 64.0001H21.1722C23.8169 63.8899 26.4309 63.2851 28.7265 62.1831C35.1373 59.1056 40.1435 52.2199 40.1435 45.1765C40.1435 41.1279 39.9058 39.2778 38.2605 35.5772C37.8574 34.6705 37.0907 33.4777 36.488 32.6438C35.77 31.6502 35.1051 30.8183 34.2632 29.9745C29.7312 25.4318 23.6733 23.7201 17.2093 24.5011C16.3206 24.6085 15.3943 24.9645 14.5434 25.0352L14.5437 25.0354Z" fill="#4285F3"/>
<path fill-rule="evenodd" clip-rule="evenodd" d="M0.425781 15.6232C0.425781 19.5695 1.74327 22.3953 5.37791 24.2241C7.24159 25.162 8.32379 25.035 10.4023 25.035C11.357 25.035 10.6731 24.1146 10.1064 22.6956C9.14389 20.2859 9.67327 20.8817 8.25874 20.5904C1.87067 19.275 5.10008 9.20834 11.5318 12.6115L14.7775 9.45717C13.8858 8.96384 13.5599 8.5872 12.5605 8.19444C6.06885 5.6443 0.425781 10.917 0.425781 15.6231V15.6232Z" fill="#E94335"/>
<path fill-rule="evenodd" clip-rule="evenodd" d="M14.5439 5.08224C14.5439 7.90886 14.932 7.09229 15.297 8.65874C15.9482 8.48486 17.7637 6.614 17.8693 6.16852C18.0099 5.57584 17.6454 5.28324 18.1877 4.40148C19.8291 1.73248 24.3317 4.69571 21.665 7.30914C20.301 8.64574 20.4678 6.75875 18.2614 8.98794C17.7847 9.46962 17.349 9.81834 16.9911 10.353C22.4201 13.2257 25.8382 8.48269 25.8382 5.83538C25.8382 2.26064 23.2358 0.17524 20.5096 0H19.7608C18.4956 0.0822667 17.2526 0.583862 16.279 1.5468C15.479 2.33803 14.5439 3.56878 14.5439 5.08238V5.08224Z" fill="#33A853"/>
<path fill-rule="evenodd" clip-rule="evenodd" d="M13.081 14.1607C13.2888 15.1935 14.0939 16.054 13.1563 18.1888C12.8683 18.8445 12.2852 19.1323 12.2852 19.7647C12.2852 20.0298 13.599 22.8933 13.791 23.7177C16.5343 22.2662 17.9323 19.2841 17.9323 16.0001C17.9323 13.7426 17.1373 12.4485 16.2382 11.106L13.0811 14.1608L13.081 14.1607Z" fill="#FBBC04"/>
</svg>
