<svg width="65" height="64" viewBox="0 0 65 64" fill="none" xmlns="http://www.w3.org/2000/svg">
<g clip-path="url(#clip0_1755_19686)">
<path d="M63.8711 55.613C63.8711 51.055 60.2241 47.226 55.4841 47.226C50.7441 47.226 47.0971 50.873 47.0971 55.613C47.0971 60.353 50.7421 64 55.4841 64C60.2261 64 63.8711 60.17 63.8711 55.613ZM55.6641 16.775C51.1061 16.775 47.2771 13.128 47.2771 8.388C47.2771 3.648 50.9241 0 55.6641 0C60.4041 0 64.0511 3.647 64.0511 8.387C64.0511 13.127 60.2211 16.775 55.6641 16.775ZM40.3491 55.613C40.3491 60.171 36.7021 64 31.9621 64C27.4041 64 23.5751 60.353 23.5751 55.613C23.5751 47.226 16.6451 40.297 8.25914 40.297C3.88214 40.296 0.244141 36.65 0.244141 32.1C0.244141 27.55 3.89114 23.713 8.63114 23.713C17.0181 23.713 23.9471 16.783 23.9471 8.397C23.7571 3.83 27.5861 0.182 32.1441 0.182C36.7021 0.182 40.3491 3.829 40.3491 8.569C40.3491 13.309 36.7021 16.956 31.9621 16.956C23.5751 16.956 16.6461 23.886 16.6461 32.272C16.6461 40.658 23.3921 47.6 31.9621 47.6C36.7021 47.235 40.3491 51.064 40.3491 55.623V55.613Z" fill="#DE8B30"/>
</g>
<defs>
<clipPath id="clip0_1755_19686">
<rect width="64" height="64" fill="white" transform="translate(0.144531)"/>
</clipPath>
</defs>
</svg>
