<svg width="62" height="64" viewBox="0 0 62 64" fill="none" xmlns="http://www.w3.org/2000/svg">
<mask id="mask0_1755_19941" style="mask-type:luminance" maskUnits="userSpaceOnUse" x="0" y="0" width="62" height="64">
<path d="M61.4263 0H0.635742V64H61.4263V0Z" fill="white"/>
</mask>
<g mask="url(#mask0_1755_19941)">
<path d="M19.8921 51.5402C19.8921 53.6169 18.193 55.5048 15.9275 55.5048C13.662 55.5048 11.9629 53.8057 11.9629 51.5402V34.5491C11.9629 32.4724 13.662 30.5845 15.9275 30.5845C18.193 30.5845 19.8921 32.2836 19.8921 34.5491V51.5402Z" fill="#231F20"/>
</g>
<mask id="mask1_1755_19941" style="mask-type:luminance" maskUnits="userSpaceOnUse" x="0" y="0" width="62" height="64">
<path d="M61.4263 0H0.635742V64H61.4263V0Z" fill="white"/>
</mask>
<g mask="url(#mask1_1755_19941)">
<path d="M31.2199 56.0706C31.2199 58.1473 29.5208 60.0352 27.2553 60.0352C24.9898 60.0352 23.4795 58.3361 23.4795 56.0706V30.2063C23.4795 28.1296 25.1786 26.2417 27.4441 26.2417C29.7096 26.2417 31.4087 27.9408 31.4087 30.2063V56.0706H31.2199Z" fill="#231F20"/>
</g>
<mask id="mask2_1755_19941" style="mask-type:luminance" maskUnits="userSpaceOnUse" x="0" y="0" width="62" height="64">
<path d="M61.4263 0H0.635742V64H61.4263V0Z" fill="white"/>
</mask>
<g mask="url(#mask2_1755_19941)">
<path d="M8.37647 47.7637C8.37647 49.8404 6.67735 51.7283 4.41187 51.7283C2.14638 51.7283 0.447266 50.0292 0.447266 47.7637V38.5129C0.447266 36.4362 2.14638 34.5483 4.41187 34.5483C6.67735 34.5483 8.37647 36.4362 8.37647 38.5129V47.7637Z" fill="#231F20"/>
</g>
<mask id="mask3_1755_19941" style="mask-type:luminance" maskUnits="userSpaceOnUse" x="0" y="0" width="62" height="64">
<path d="M61.4263 0H0.635742V64H61.4263V0Z" fill="white"/>
</mask>
<g mask="url(#mask3_1755_19941)">
<path d="M42.5471 60.2244C42.5471 62.3011 40.8479 64.189 38.5825 64.189C36.5058 64.189 34.8066 62.3011 34.8066 60.2244V25.8645C34.8066 23.7878 36.5058 21.8999 38.7712 21.8999C40.8479 21.8999 42.7358 23.599 42.7358 25.8645V60.2244H42.5471Z" fill="#231F20"/>
</g>
<mask id="mask4_1755_19941" style="mask-type:luminance" maskUnits="userSpaceOnUse" x="0" y="0" width="62" height="64">
<path d="M61.4263 0H0.635742V64H61.4263V0Z" fill="white"/>
</mask>
<g mask="url(#mask4_1755_19941)">
<path d="M55.0072 58.5254C54.252 58.5254 53.6857 58.3366 52.9305 58.1478L48.2108 56.6375C47.4556 56.4487 46.8892 55.5047 47.2668 54.7496C47.4556 53.9944 48.3995 53.428 49.1547 53.8056L54.0633 55.3159C55.0072 55.6935 56.14 55.5047 57.0839 54.7496C58.0279 54.1832 58.4054 53.0504 58.4054 52.1065V20.5785C58.4054 19.0681 57.4615 17.7466 56.14 17.369L9.88627 3.39852C8.94232 3.02094 7.80957 3.20973 6.86562 3.7761C6.11046 4.53127 5.54409 5.47522 5.54409 6.60796V28.3189C5.54409 29.2628 4.78892 29.8292 4.03376 29.8292C3.08981 29.8292 2.52344 29.074 2.52344 28.3189V6.60796C2.52344 4.53127 3.46739 2.64336 5.16651 1.51062C6.86562 0.189084 8.94232 0.000293732 10.8302 0.566665L56.8951 14.5372C59.5382 15.2923 61.4261 17.9354 61.4261 20.7673V52.2953C61.4261 54.372 60.4821 56.2599 58.783 57.5814C57.6503 57.959 56.3287 58.5254 55.0072 58.5254Z" fill="#231F20"/>
</g>
</svg>
