<svg width="46" height="8" viewBox="0 0 46 8" fill="none" xmlns="http://www.w3.org/2000/svg">
<path d="M4.61313 3.32369C4.9327 3.32369 5.14574 3.57934 5.15 3.96282V6.96676C5.15 7.33746 4.93696 7.58459 4.61739 7.58459C4.29782 7.58459 4.08478 7.34598 4.08478 6.97102V3.9543C4.08478 3.57508 4.29782 3.33221 4.61313 3.32795V3.32369ZM3.5266 5.76092C3.5479 5.97397 3.53512 6.18701 3.53512 6.40432C3.53512 6.60884 3.54364 6.80911 3.53512 7.00937C3.52234 7.36302 3.29651 7.59737 2.9812 7.58885C2.67442 7.58459 2.47842 7.3545 2.47842 6.99232V5.8291C2.47842 5.51805 2.68294 5.2837 2.9599 5.2624C3.24538 5.24109 3.49677 5.45414 3.5266 5.76518V5.76092ZM6.21949 4.14178C6.53053 4.14178 6.74358 4.38039 6.74784 4.73831V6.99232C6.74784 7.3545 6.53053 7.59311 6.21949 7.59311C5.90844 7.59311 5.69114 7.35024 5.68688 6.99658V4.74683C5.68688 4.38891 5.90844 4.14604 6.21949 4.14604V4.14178ZM7.82159 1.99428C8.14116 1.99428 8.34994 2.22863 8.34994 2.60785V7.02215C8.34994 7.29911 8.18803 7.50363 7.94942 7.56329C7.83176 7.59466 7.70675 7.58266 7.59722 7.52946C7.48769 7.47626 7.40096 7.38542 7.35289 7.27354C7.31454 7.17554 7.2975 7.07328 7.2975 6.97528V2.59081C7.2975 2.2329 7.51054 1.99002 7.82159 1.98576V1.99428ZM31.7977 2.53116C32.4965 2.76551 32.7905 3.33221 32.8842 4.031C32.914 4.23552 32.9055 4.4443 32.9268 4.64883C32.9481 4.86187 32.8544 4.92579 32.6499 4.92579C31.9085 4.91726 31.1799 4.92579 30.4427 4.92579H30.1445V4.93431C30.1334 5.07014 30.1494 5.20681 30.1915 5.33642C30.2336 5.46603 30.301 5.58601 30.3897 5.68942C30.4785 5.79284 30.5869 5.87763 30.7086 5.93891C30.8303 6.00018 30.963 6.03672 31.0989 6.0464C31.5939 6.11495 32.0964 5.99313 32.505 5.70553H32.6073C32.6073 5.92284 32.6286 6.14867 32.5987 6.36597C32.586 6.43841 32.4965 6.53641 32.4113 6.57049C31.6954 6.89006 30.954 6.95398 30.2169 6.66423C29.9281 6.54497 29.6797 6.34532 29.5011 6.08901C28.9131 5.31779 28.8832 3.73273 29.778 2.94021C30.0419 2.68863 30.3715 2.51674 30.7289 2.44437C31.0862 2.372 31.4567 2.40208 31.7977 2.53116ZM20.1953 2.43742C21.465 2.43742 22.2405 3.25977 22.2405 4.619C22.2405 5.99527 21.4139 6.82615 20.0291 6.82615C18.7508 6.82615 17.9071 5.98675 17.9071 4.68718C17.9071 3.30238 18.7806 2.44594 20.1953 2.43742ZM26.4204 3.21716C26.625 4.03952 26.8337 4.86613 27.0383 5.7311C27.2854 4.72978 27.5283 3.77108 27.7541 2.80812C27.8052 2.60359 27.8904 2.53116 28.095 2.53968C28.308 2.56099 28.5125 2.53968 28.7724 2.53968C28.6574 2.95299 28.5466 3.3109 28.4316 3.6816C28.1546 4.60622 27.8777 5.53083 27.622 6.46823C27.5709 6.65145 27.4984 6.74519 27.2811 6.73667C26.5056 6.72389 26.5056 6.73667 26.3096 5.99527L25.7089 3.74126C25.4319 4.68718 25.1762 5.56492 24.9291 6.44693C24.8652 6.65997 24.7842 6.74519 24.5456 6.74519C23.8426 6.74519 23.8298 6.7665 23.6381 6.08901C23.31 4.98544 22.9904 3.88613 22.6708 2.78681C22.6495 2.72716 22.641 2.65472 22.6197 2.55246C22.9393 2.55246 23.2248 2.53968 23.523 2.56099C23.5827 2.56099 23.6679 2.68455 23.6892 2.75699C23.915 3.60917 24.1153 4.45283 24.3326 5.30501C24.3539 5.39875 24.3837 5.49249 24.4604 5.59475C24.6095 5.07066 24.7544 4.53378 24.9078 4.00969C25.0314 3.57934 25.1422 3.14899 25.2913 2.71438C25.3083 2.64194 25.4191 2.55246 25.4916 2.55246C26.2415 2.49707 26.2415 2.49707 26.429 3.21716H26.4204ZM14.051 0.873667C14.7285 0.903494 15.4145 0.865145 16.092 0.937581C16.5238 0.957513 16.9303 1.1466 17.2238 1.46396C17.5172 1.78131 17.6739 2.20142 17.66 2.63342C17.6816 3.07293 17.5473 3.50595 17.2806 3.85601C17.014 4.20607 16.6322 4.45065 16.2028 4.54657C15.815 4.62752 15.4017 4.62752 15.0012 4.63604C14.8095 4.64883 14.7456 4.70848 14.7456 4.90448C14.7583 5.42857 14.7456 5.94414 14.7583 6.46823C14.7583 6.68128 14.6944 6.75797 14.4814 6.73667C14.2428 6.71537 14.0084 6.73667 13.74 6.73667C13.7315 6.60884 13.7187 6.52789 13.7187 6.45971C13.7187 4.71274 13.7187 2.95299 13.7102 1.20602C13.7102 0.950364 13.7954 0.865145 14.051 0.873667ZM39.5483 0.865145C40.2598 0.894972 40.9672 0.865145 41.6617 0.924798C42.4031 0.997233 42.8973 1.4915 42.957 2.11785C42.9868 2.62916 42.7823 3.25125 41.9813 3.60917C42.7908 3.81369 43.1913 4.27813 43.2212 5.01526C43.2553 5.68849 42.761 6.35319 42.0537 6.58328C41.7895 6.6685 41.5168 6.7111 41.2441 6.72389C40.6178 6.74519 39.9914 6.73667 39.3693 6.72389C39.3352 6.72389 39.2926 6.70258 39.2543 6.69406C39.2415 6.60032 39.2415 6.51084 39.2415 6.42562C39.2415 4.67865 39.2543 2.9189 39.233 1.17193C39.233 0.916276 39.3054 0.852363 39.5525 0.865145H39.5483ZM36.0543 2.50985C36.1225 2.51838 36.2248 2.61212 36.2376 2.67177C36.2589 2.92742 36.2461 3.18734 36.2461 3.4643C36.1055 3.43447 35.9904 3.39186 35.8796 3.38334C35.2618 3.32369 34.8144 3.80517 34.8016 4.53378C34.7888 5.16014 34.8016 5.79075 34.8016 6.42562V6.73667H33.9793C33.9281 6.73667 33.877 6.72389 33.8088 6.72389V2.56951H34.7718V3.22995C34.8954 3.06377 34.9635 2.94021 35.0573 2.83794C35.3129 2.53116 35.6623 2.4289 36.0543 2.50985ZM45.1556 0.88645C45.1982 0.88645 45.2536 1.02706 45.2536 1.11228C45.2664 1.84089 45.2536 2.56951 45.2536 3.2896V6.71537H44.231V0.877928C44.5378 0.877928 44.8446 0.865145 45.1556 0.88645ZM4.30634 0.247314H8.90812C9.64099 0.247314 10.1054 0.741579 10.1054 1.50854V5.42005C10.1135 5.729 9.99866 6.02852 9.7862 6.25296C9.57374 6.4774 9.28095 6.60845 8.97203 6.61736C8.8442 6.61736 8.76751 6.5918 8.78029 6.43415C8.79307 6.30632 8.75047 6.17849 8.95499 6.17423C9.42369 6.16145 9.68786 5.87597 9.68786 5.3817V1.47019C9.68786 0.975929 9.39812 0.677666 8.92942 0.677666H1.90319C1.43876 0.677666 1.15754 0.975929 1.15327 1.45315V5.42431C1.15327 5.8504 1.42171 6.15719 1.81371 6.17423C2.07789 6.18275 2.06085 6.16571 2.05659 6.47249L2.04806 6.57902C1.57937 6.72389 0.99136 6.38728 0.803881 5.85466C0.757359 5.72177 0.732891 5.58215 0.731445 5.44136V1.43185C0.731445 0.767145 1.20867 0.251575 1.84354 0.247314H4.30208H4.30634ZM19.1641 3.74126C19.0106 4.00576 18.9274 4.30511 18.9221 4.61086C18.9169 4.91662 18.9899 5.21864 19.1343 5.48822C19.326 5.88023 19.6967 6.03788 20.1143 6.03788C20.5276 6.03788 20.877 5.86318 21.0389 5.46266C21.154 5.21553 21.1838 4.93431 21.2562 4.67013L21.2136 4.65735C21.2051 4.51674 21.2051 4.37187 21.1838 4.227C21.1327 3.76256 20.8046 3.36203 20.404 3.27256C19.8927 3.15751 19.4112 3.32369 19.1641 3.74126ZM40.2343 4.10343C40.2343 4.69144 40.2343 5.22405 40.2428 5.75666C40.2428 5.81205 40.3451 5.91432 40.3962 5.91432C40.7243 5.91432 41.0652 5.92284 41.3805 5.87171C41.5872 5.84818 41.7773 5.74717 41.9125 5.58904C42.0477 5.4309 42.118 5.22739 42.1091 5.01953C42.1091 4.56361 41.8747 4.26961 41.3932 4.19717C41.0353 4.13326 40.6561 4.12474 40.2343 4.10343ZM30.1487 4.20569H31.9383C31.9852 3.61769 31.6699 3.21716 31.1458 3.18734C30.6345 3.15751 30.1487 3.65178 30.1487 4.20995V4.20569ZM14.8947 1.74715C14.8521 1.74715 14.7669 1.84089 14.7669 1.89202C14.7541 2.50985 14.7541 3.12769 14.7541 3.81369C15.1546 3.78386 15.521 3.78386 15.8704 3.71143C16.3306 3.62195 16.5692 3.22995 16.5692 2.70586C16.5692 2.19881 16.3562 1.8835 15.879 1.78976C15.5636 1.72585 15.2228 1.74715 14.8989 1.74715H14.8947ZM40.3578 1.73011C40.2215 1.81959 40.2726 2.16898 40.2428 2.40759C40.2377 2.42853 40.2348 2.44996 40.2343 2.47151V2.49707C40.2343 2.70586 40.2215 2.91038 40.2428 3.1149C40.2428 3.17882 40.3365 3.28108 40.3877 3.28108C40.6859 3.28108 40.9842 3.2896 41.2697 3.22995C41.8236 3.09786 42.0707 2.36498 41.7213 1.96446C41.5253 1.73863 40.6433 1.53411 40.3578 1.73011Z" fill="white"/>
</svg>
