<svg width="64" height="64" viewBox="0 0 64 64" fill="none" xmlns="http://www.w3.org/2000/svg">
<path d="M31.6084 0C28.9984 0.0115124 26.5051 0.23518 24.3128 0.624955C17.8495 1.76632 16.6785 4.15596 16.6785 8.5619V14.3806H31.9472V16.3212H10.9486C6.51144 16.3212 2.62684 18.9888 1.40982 24.0625C0.0086028 29.8779 -0.0703391 33.5075 1.40982 39.5795C2.49527 44.0989 5.0872 47.3207 9.52439 47.3207H14.774V40.3442C14.774 35.3051 19.1323 30.8597 24.3128 30.8597H39.5634C43.8065 30.8597 47.1978 27.3649 47.1978 23.1004V8.57506C47.1978 4.43719 43.7079 1.32885 39.5634 0.638113C36.9403 0.202288 34.2184 0.00328829 31.6084 0.013156V0ZM23.3524 4.6806C24.9312 4.6806 26.2173 5.98971 26.2173 7.5998C26.2173 9.20989 24.9296 10.5009 23.3524 10.5009C21.7752 10.5009 20.4874 9.20166 20.4874 7.5998C20.4874 5.99794 21.7703 4.6806 23.3524 4.6806Z" fill="url(#paint0_linear_1755_19981)"/>
<path d="M49.1018 16.3179V23.0987C49.1018 28.3549 44.6613 32.7789 39.563 32.7789H24.314C20.1367 32.7789 16.6797 36.3543 16.6797 40.5382V55.0767C16.6797 59.2146 20.2781 61.6486 24.314 62.836C29.1492 64.257 33.7821 64.5135 39.5646 62.836C43.4081 61.7226 47.1989 59.481 47.1989 55.0767V49.258H31.9451V47.3174H54.83C59.2672 47.3174 60.9217 44.2222 62.4643 39.5761C64.0596 34.7936 63.9905 30.1936 62.4643 24.0591C61.3674 19.6417 59.2738 16.3179 54.83 16.3179H49.1018ZM40.5251 53.136C42.1072 53.136 43.39 54.4353 43.39 56.0372C43.39 57.639 42.1072 58.9564 40.5251 58.9564C38.9429 58.9564 37.6601 57.6472 37.6601 56.0372C37.6601 54.4271 38.9479 53.136 40.5251 53.136Z" fill="url(#paint1_linear_1755_19981)"/>
<defs>
<linearGradient id="paint0_linear_1755_19981" x1="0.335883" y1="-2.22979e-07" x2="35.2578" y2="30.3351" gradientUnits="userSpaceOnUse">
<stop stop-color="#5A9FD4"/>
<stop offset="1" stop-color="#306998"/>
</linearGradient>
<linearGradient id="paint1_linear_1755_19981" x1="40.1567" y1="55.5471" x2="27.6871" y2="37.7341" gradientUnits="userSpaceOnUse">
<stop stop-color="#FFD43B"/>
<stop offset="1" stop-color="#FFE873"/>
</linearGradient>
</defs>
</svg>
