<svg width="41" height="14" viewBox="0 0 41 14" fill="none" xmlns="http://www.w3.org/2000/svg">
<path d="M17.2302 7.07318C17.2302 5.89672 16.8947 5.29285 16.2238 5.25972C15.9573 5.24687 15.691 5.2906 15.4426 5.38805C15.2403 5.45805 15.1043 5.53225 15.0324 5.60459V8.41275C15.4618 8.68202 15.8428 8.80942 16.1751 8.78749C16.8783 8.74082 17.2302 8.17008 17.2302 7.07318ZM18.0578 7.11985C18.0578 7.71765 17.9178 8.21372 17.6378 8.60852C17.3235 9.05512 16.8881 9.28519 16.3312 9.29755C15.9112 9.31085 15.479 9.17949 15.0343 8.90392V11.4561L14.3145 11.1995V5.53412C14.4325 5.38945 14.5847 5.26485 14.7688 5.15939C15.1972 4.90972 15.7177 4.78139 16.3302 4.77509L16.3405 4.78535C16.9005 4.77835 17.3322 5.00819 17.635 5.47439C17.9178 5.90209 18.0597 6.45019 18.0597 7.12032L18.0578 7.11985ZM22.4566 8.79659C22.4566 9.59832 22.3764 10.1534 22.2156 10.4621C22.0548 10.7708 21.7471 11.0175 21.2935 11.2009C20.9257 11.3455 20.5281 11.4244 20.1035 11.4379L19.9868 10.9843C20.4208 10.9253 20.7265 10.8663 20.9033 10.807C21.2522 10.6889 21.4913 10.5079 21.6232 10.2652C21.7286 10.0676 21.7807 9.69025 21.7807 9.13212V8.94475C21.295 9.16668 20.7671 9.28083 20.2332 9.27935C19.8785 9.27935 19.5659 9.16828 19.2968 8.94475C18.9944 8.70139 18.8432 8.39269 18.8432 8.01842V5.02359L19.5631 4.77719V7.79232C19.5631 8.11432 19.6669 8.36235 19.8748 8.53899C20.0827 8.71562 20.352 8.79659 20.6821 8.79029C21.0123 8.78399 21.3658 8.65565 21.7415 8.40599V4.88545H22.4613V8.79659H22.4566ZM25.2664 9.25999L25.0294 9.27025C24.6222 9.27025 24.3049 9.17342 24.0781 8.97859C23.8513 8.78375 23.7386 8.51565 23.7386 8.17289V5.33859H23.2455V4.88592H23.7386V3.68355L24.4572 3.42759V4.88592H25.266V5.33859H24.4572V8.15375C24.4572 8.42395 24.5272 8.61529 24.6742 8.72705C24.7986 8.81922 24.9962 8.87172 25.2657 8.88525V9.25999H25.2664ZM29.6242 9.20095H28.9043V6.42265C28.9043 6.13985 28.8383 5.89672 28.7067 5.69349C28.555 5.46365 28.3436 5.34862 28.0727 5.34862C27.7428 5.34862 27.33 5.52269 26.8349 5.87082V9.20095H26.1151V2.56029L26.8351 2.33325V5.35795C27.2948 5.02335 27.7974 4.85559 28.3432 4.85559C28.7242 4.85559 29.0329 4.98392 29.2695 5.23989C29.5061 5.49585 29.6246 5.81482 29.6246 6.19585V9.20118L29.6242 9.20095ZM33.4501 6.95978C33.4501 6.50782 33.3643 6.13449 33.1934 5.83932C32.9904 5.47952 32.6745 5.28959 32.2478 5.26999C31.4586 5.31572 31.0647 5.88132 31.0647 6.96469C31.0647 7.46169 31.1464 7.87655 31.3121 8.20975C31.523 8.63442 31.8394 8.84372 32.2618 8.83648C33.0539 8.83018 33.4501 8.20485 33.4501 6.96002V6.95978ZM34.2383 6.96445C34.2383 7.60775 34.0738 8.14325 33.7453 8.57095C33.3836 9.04975 32.882 9.28962 32.2473 9.28962C31.6157 9.28962 31.1236 9.04929 30.7684 8.57095C30.4464 8.14325 30.2854 7.60775 30.2854 6.96445C30.2854 6.35965 30.4595 5.85099 30.8076 5.43682C31.1754 4.99745 31.6588 4.77695 32.2543 4.77695C32.8498 4.77695 33.3386 4.99745 33.7136 5.43682C34.0617 5.85099 34.2358 6.35965 34.2358 6.96445H34.2383ZM38.3646 9.20095H37.6448V6.26492C37.6448 5.94292 37.5479 5.69162 37.3542 5.51055C37.1606 5.32949 36.9023 5.24292 36.5801 5.24992C36.2382 5.25622 35.9127 5.36799 35.6047 5.58452V9.20072H34.8849V5.49539C35.2991 5.19369 35.6782 4.99699 36.0282 4.90505C36.3565 4.81919 36.6465 4.77672 36.8962 4.77672C37.067 4.77672 37.2276 4.79305 37.3792 4.82642C37.662 4.89175 37.8918 5.01309 38.069 5.19112C38.2666 5.38805 38.3653 5.62419 38.3653 5.90045V9.20072L38.3646 9.20095Z" fill="white"/>
<path d="M7.20342 2.58667C6.83312 2.5883 6.47939 2.62004 6.16835 2.67534C5.25135 2.83727 5.08522 3.1763 5.08522 3.8014V4.62694H7.25149V4.90227H4.27229C3.64275 4.90227 3.09162 5.28074 2.91895 6.00057C2.72015 6.82564 2.70895 7.3406 2.91895 8.20207C3.07295 8.84327 3.44069 9.30037 4.07022 9.30037H4.81502V8.31057C4.81502 7.59564 5.43335 6.96494 6.16835 6.96494H8.33205C8.93405 6.96494 9.41519 6.4691 9.41519 5.86407V3.80327C9.41519 3.2162 8.92005 2.7752 8.33205 2.6772C7.95989 2.61537 7.57372 2.58714 7.20342 2.58854V2.58667ZM6.03209 3.25074C6.25609 3.25074 6.43855 3.43647 6.43855 3.6649C6.43855 3.89334 6.25585 4.0765 6.03209 4.0765C5.80832 4.0765 5.62562 3.89217 5.62562 3.6649C5.62562 3.43764 5.80762 3.25074 6.03209 3.25074Z" fill="white"/>
<path d="M9.68587 4.90186V5.86389C9.68587 6.60962 9.05587 7.23729 8.33254 7.23729H6.16907C5.5764 7.23729 5.08594 7.74456 5.08594 8.33816V10.4008C5.08594 10.9879 5.59647 11.3332 6.16907 11.5017C6.85507 11.7033 7.51237 11.7397 8.33277 11.5017C8.87807 11.3437 9.4159 11.0257 9.4159 10.4008V9.57529H7.25174V9.29995H10.4986C11.1281 9.29995 11.3628 8.86082 11.5817 8.20166C11.808 7.52312 11.7982 6.87049 11.5817 6.00016C11.4261 5.37342 11.129 4.90186 10.4986 4.90186H9.68587ZM8.46904 10.1255C8.6935 10.1255 8.8755 10.3098 8.8755 10.5371C8.8755 10.7644 8.6935 10.9513 8.46904 10.9513C8.24457 10.9513 8.06257 10.7655 8.06257 10.5371C8.06257 10.3087 8.24527 10.1255 8.46904 10.1255Z" fill="white"/>
</svg>
