<svg width="37" height="12" viewBox="0 0 37 12" fill="none" xmlns="http://www.w3.org/2000/svg">
<g clip-path="url(#clip0_1755_19583)">
<path fill-rule="evenodd" clip-rule="evenodd" d="M6.96507 9.384C5.48143 9.40172 3.99964 9.2751 2.54135 9.006C1.99474 8.91545 1.46701 8.73707 0.979312 8.478V10.608C0.979312 11.316 3.66406 11.892 6.96507 11.892C10.2722 11.892 12.9508 11.316 12.9508 10.608V8.484C12.4647 8.74037 11.9391 8.9167 11.3949 9.006C9.93461 9.2755 8.45075 9.40211 6.96507 9.384ZM6.96507 6.03C5.48143 6.04772 3.99964 5.9211 2.54135 5.652C1.9951 5.56334 1.46739 5.38698 0.979312 5.13V7.182H1.01592C1.01592 7.542 3.1088 8.238 6.96507 8.238C10.8274 8.238 12.9142 7.536 12.9142 7.176H12.9508V5.136C12.4627 5.388 11.9319 5.568 11.3888 5.658C9.93031 5.92517 8.44852 6.04977 6.96507 6.03ZM12.9508 1.284C12.9508 0.576 10.2661 0 6.97118 0C3.67626 0 0.979312 0.576 0.979312 1.284C0.97825 1.29798 0.97825 1.31202 0.979312 1.326C0.97825 1.33998 0.97825 1.35402 0.979312 1.368V3.696H1.01592C1.01592 4.056 3.1088 4.752 6.96507 4.752C10.8274 4.752 12.9142 4.05 12.9142 3.69H12.9508V1.362C12.9519 1.34802 12.9519 1.33398 12.9508 1.32C12.9516 1.30801 12.9516 1.29599 12.9508 1.284ZM21.658 3.396C21.6278 3.46361 21.5792 3.52174 21.5176 3.564C21.4624 3.59665 21.399 3.61329 21.3346 3.612C21.2468 3.60732 21.1621 3.57819 21.0905 3.528C20.9862 3.46363 20.8804 3.40162 20.7732 3.342C20.637 3.2654 20.4941 3.20113 20.3461 3.15C20.157 3.08986 19.959 3.06146 19.7603 3.066C19.559 3.066 19.382 3.09 19.2356 3.138C19.0971 3.18088 18.9685 3.2502 18.8573 3.342C18.7549 3.42794 18.6753 3.53708 18.6254 3.66C18.5725 3.78763 18.5456 3.92419 18.5461 4.062C18.5461 4.242 18.601 4.398 18.7047 4.524C18.8085 4.644 18.9427 4.752 19.1135 4.842C19.2783 4.926 19.4797 5.004 19.6871 5.076C19.9068 5.142 20.1264 5.214 20.3522 5.298C20.578 5.376 20.7976 5.466 21.0173 5.568C21.2308 5.67 21.4261 5.802 21.5908 5.958C21.7649 6.1235 21.9039 6.32132 21.9997 6.54C22.1034 6.768 22.1583 7.05 22.1583 7.38C22.1583 7.734 22.0973 8.064 21.9752 8.376C21.8532 8.688 21.6763 8.958 21.4444 9.192C21.2004 9.4278 20.9096 9.61163 20.5902 9.732C19.9822 9.93919 19.3286 9.98065 18.6986 9.852C18.4629 9.80765 18.2321 9.74135 18.0091 9.654C17.7911 9.56442 17.5827 9.45388 17.3868 9.324C17.2007 9.2007 17.0289 9.05786 16.8742 8.898L17.2952 8.196C17.3336 8.14406 17.3811 8.09935 17.4356 8.064C17.4925 8.03024 17.5583 8.01356 17.6247 8.016C17.7163 8.016 17.8078 8.052 17.9176 8.124L18.2837 8.376C18.4302 8.466 18.5949 8.55 18.7902 8.622C18.9793 8.7 19.2173 8.736 19.4858 8.736C19.9007 8.736 20.218 8.634 20.4437 8.436C20.6756 8.238 20.7854 7.956 20.7854 7.584C20.7854 7.374 20.7366 7.206 20.6329 7.074C20.5221 6.9366 20.3827 6.82409 20.2241 6.744C20.0392 6.6505 19.8449 6.5761 19.6444 6.522C19.4235 6.458 19.2038 6.38999 18.9854 6.318C18.7603 6.24379 18.5402 6.15561 18.3264 6.054C18.1121 5.95472 17.9162 5.82087 17.7468 5.658C17.5696 5.48348 17.4305 5.27523 17.338 5.046C17.2275 4.75459 17.1757 4.44485 17.1854 4.134C17.187 3.84328 17.2472 3.55575 17.3624 3.288C17.4776 3.02025 17.6455 2.77758 17.8566 2.574C18.0865 2.35413 18.3581 2.18085 18.6559 2.064C19.4235 1.8093 20.2566 1.81988 21.0173 2.094C21.3876 2.22664 21.7262 2.43294 22.0119 2.7L21.658 3.396ZM29.2729 5.904C29.2729 5.472 29.218 5.082 29.1081 4.74C29.0076 4.41844 28.8415 4.12039 28.62 3.864C28.4063 3.62336 28.139 3.43446 27.839 3.312C27.512 3.18004 27.1612 3.11472 26.8078 3.12C26.4295 3.12 26.0817 3.18 25.7766 3.312C25.4769 3.43502 25.2097 3.62384 24.9956 3.864C24.7744 4.12058 24.6083 4.41858 24.5074 4.74C24.3834 5.11586 24.3216 5.50886 24.3244 5.904C24.3244 6.336 24.3854 6.726 24.5074 7.068C24.6173 7.41 24.782 7.704 24.9956 7.944C25.2091 8.184 25.4715 8.364 25.7766 8.484C26.0817 8.616 26.4295 8.682 26.8139 8.682C27.1922 8.682 27.5339 8.622 27.839 8.49C28.136 8.36811 28.401 8.1814 28.6139 7.944C28.8274 7.704 28.9922 7.41 29.102 7.068C29.2241 6.726 29.2729 6.336 29.2729 5.904ZM30.7678 5.904C30.7678 6.258 30.7312 6.594 30.658 6.918C30.5911 7.22834 30.4887 7.53025 30.3529 7.818C30.2187 8.09501 30.0506 8.35493 29.8525 8.592C29.6588 8.82525 29.4352 9.03296 29.1874 9.21L31.1705 11.394H29.9746C29.7976 11.394 29.6451 11.37 29.5047 11.322C29.3577 11.2674 29.2274 11.1765 29.1264 11.058L27.9793 9.78C27.7963 9.834 27.6071 9.87 27.4119 9.9C27.2115 9.92527 27.0097 9.9373 26.8078 9.936C26.2538 9.94315 25.704 9.84114 25.1908 9.636C24.7162 9.44377 24.2879 9.15554 23.9339 8.79C23.5815 8.42103 23.3076 7.98652 23.1285 7.512C22.9334 6.99782 22.8362 6.45275 22.8417 5.904C22.8417 5.322 22.9393 4.788 23.1285 4.296C23.3078 3.82155 23.5816 3.38707 23.9339 3.018C24.2886 2.65476 24.7168 2.36862 25.1908 2.178C25.679 1.974 26.2159 1.872 26.8078 1.872C27.3997 1.872 27.9427 1.974 28.4247 2.172C28.9129 2.382 29.3278 2.664 29.6756 3.018C30.0281 3.38687 30.302 3.82141 30.481 4.296C30.6702 4.788 30.7678 5.322 30.7678 5.904ZM33.3671 8.634H36.4973V9.846H31.9149V1.956H33.3671V8.634Z" fill="white"/>
</g>
<defs>
<clipPath id="clip0_1755_19583">
<rect width="36" height="12" fill="white" transform="translate(0.979492)"/>
</clipPath>
</defs>
</svg>
