<svg width="66" height="64" viewBox="0 0 66 64" fill="none" xmlns="http://www.w3.org/2000/svg">
<path d="M31.6257 2.95849V5.92906H26.3125V7.86113H31.6257V13.7781H33.7027V7.86113H39.1487V5.92906H33.7027V0H31.6257V2.95849Z" fill="#7099A6"/>
<path d="M14.261 10.4936V14.8045H6.21875V17.5094H14.261V26.2641H17.2437V17.5094H25.4067V14.8045H17.2437V6.18262H14.261V10.4936Z" fill="#EB912C"/>
<path d="M47.9641 10.4936V14.8045H39.9219V17.6422H47.9641V26.2641H51.0675V17.6422H59.1098V14.8045H51.0675V6.18262H47.9641V10.4936Z" fill="#59879B"/>
<path d="M30.8522 25.1774V30.0075H21.9043V33.606H30.8522V43.2664H34.4749V33.606H43.4228V30.0075H34.4749V20.3472H30.8522V25.1774Z" fill="#E8762C"/>
<path d="M57.1658 27.617V30.648H51.7197V33.0993H57.1658V39.1491H59.8827V33.0993H65.3288V30.648H59.8827V24.5981H57.1658V27.617Z" fill="#5B6591"/>
<path d="M5.31321 27.8825V30.7806H0V32.8334H5.31321V38.6297H7.39019V32.8334L12.8362 32.6402V30.7806H7.39019V24.9844H5.31321V27.8825Z" fill="#7099A6"/>
<path d="M14.261 41.5277V45.8387H6.21875V48.6764H14.261V57.2983H17.3644V48.6764H25.4067V45.8387H17.3644V37.2168H14.261V41.5277Z" fill="#C72035"/>
<path d="M47.9641 41.5277V45.8387H39.9219V48.5436H47.9641V57.2983H51.0675V48.5436H59.1098V45.8387H51.0675V37.2168H47.9641V41.5277Z" fill="#1F447E"/>
<path d="M31.3718 52.4802V55.499H25.9258V57.9504H31.3718V64.0002H34.0888V57.9504H39.5348V55.499H34.0888V49.4492H31.3718V52.4802Z" fill="#5B6591"/>
</svg>
