<svg width="46" height="10" viewBox="0 0 46 10" fill="none" xmlns="http://www.w3.org/2000/svg">
<path fill-rule="evenodd" clip-rule="evenodd" d="M17.6179 8.48023C17.747 8.48023 17.8502 8.51752 17.9334 8.59495C17.9749 8.63325 18.0078 8.67986 18.03 8.73175C18.0523 8.78364 18.0633 8.83963 18.0624 8.89608C18.0624 9.01653 18.0166 9.11977 17.9334 9.19721C17.8502 9.27464 17.747 9.31192 17.6179 9.31192C17.4889 9.31192 17.3828 9.27464 17.3025 9.19721C17.2608 9.15902 17.2278 9.11243 17.2056 9.06051C17.1833 9.0086 17.1723 8.95255 17.1734 8.89608C17.1722 8.83985 17.1828 8.78398 17.2045 8.73211C17.2262 8.68023 17.2586 8.6335 17.2996 8.59495C17.3856 8.51752 17.4889 8.48023 17.6151 8.48023H17.6179ZM13.4509 8.48023C13.5226 8.48023 13.5971 8.49457 13.6746 8.52325L13.7319 8.5462V8.71253C13.6493 8.66582 13.5571 8.63837 13.4623 8.63223C13.3849 8.63223 13.3419 8.65518 13.3419 8.69533C13.3419 8.72974 13.3792 8.75842 13.4537 8.7871C13.5254 8.81291 13.5971 8.83585 13.6545 8.87313C13.7291 8.91615 13.7635 8.98498 13.7635 9.07389C13.7635 9.21728 13.6488 9.31192 13.4423 9.31192C13.3562 9.31192 13.2759 9.29471 13.2014 9.25743L13.1583 9.23449V9.05668C13.2616 9.11691 13.3448 9.15706 13.4365 9.15706C13.5168 9.15706 13.557 9.13124 13.557 9.08536C13.557 9.0366 13.5197 9.02227 13.448 8.99932C13.2444 8.92476 13.144 8.85593 13.144 8.71253C13.144 8.57774 13.2645 8.4831 13.4509 8.4831V8.48023ZM30.0359 8.49457L30.1936 8.93049L30.3542 8.49457H30.4919L30.6525 8.93336L30.8102 8.49457H31.0224L30.6926 9.30619H30.6066L30.423 8.80144L30.2366 9.30619H30.1535L29.8208 8.49457H30.0359ZM42.993 8.49457V8.64084H42.6489V8.80717H42.9787V8.9563H42.6517V9.14845H43.0045V9.29758H42.4481V8.49457H42.993ZM38.6453 8.49457C38.8633 8.49457 38.9694 8.56627 38.9694 8.72687C38.9694 8.81291 38.9263 8.87887 38.826 8.92189C38.861 8.93568 38.8903 8.96096 38.9091 8.99359L38.9235 9.02227L39.0554 9.29758H38.826L38.7199 9.06815C38.6883 8.99359 38.651 8.97064 38.5707 8.97064H38.5478V9.29758H38.3442V8.49457H38.6453ZM34.7048 8.49457L35.026 9.29758H34.8081L34.7507 9.14272H34.3979L34.332 9.29758H34.114L34.4696 8.49457H34.7048ZM26.5227 8.49457V8.6437H26.2531V9.29758H26.038V8.6437H25.7685V8.49457H26.5227ZM22.2209 8.49457V8.64084H21.8911V8.81578H22.1951V8.96778H21.8911V9.29758H21.6875V8.49457H22.2151H22.2209ZM17.6179 8.64944C17.4803 8.64944 17.3828 8.75268 17.3828 8.89608C17.3828 9.03947 17.4803 9.14272 17.6179 9.14272C17.7527 9.14272 17.8502 9.04234 17.8502 8.89608C17.8502 8.75268 17.7527 8.64944 17.6179 8.64944ZM5.11965 7.20689V8.0013H5.84236V8.30816H5.11965V9.10257H4.77551V8.30816H4.0528V8.0013H4.77551V7.20689H5.11965ZM34.5815 8.69819L34.4553 9.00506H34.6991L34.5844 8.69819H34.5815ZM38.6453 8.63797H38.5478V8.82438H38.6453C38.7227 8.82438 38.76 8.7957 38.76 8.72974C38.76 8.67238 38.7199 8.63797 38.6453 8.63797ZM2.90564 5.598V6.73656H3.9725V7.08357H2.90851V8.22212H2.50414V7.08357H1.43728V6.73942H2.50414V5.598H2.90564ZM7.37955 5.598V6.73656H8.44354V7.08357H7.37955V8.22212H6.97518V7.08357H5.90832V6.73942H6.97518V5.598H7.37668H7.37955ZM28.7367 2.21676V7.43059H28.1431V2.21676H28.7367ZM32.7145 4.0981C33.5634 4.0981 34.0567 4.71756 34.0136 5.62955H31.9688C32.0176 6.1343 32.3245 6.3752 32.746 6.40388C33.0988 6.43256 33.5921 6.35226 33.8645 6.18879V6.74229C33.4951 6.92159 33.0821 6.99125 32.6743 6.94304C31.7624 6.85701 31.3178 6.22607 31.3436 5.48042C31.3723 4.67168 31.9029 4.0981 32.7145 4.0981ZM13.6602 2.96241V4.61719H15.2605V5.16209H13.6602V6.95165H13.0694V5.15922H11.4692V4.61432H13.0694V2.96528H13.6602V2.96241ZM23.6233 2.776V4.23289C23.9072 4.12391 24.1567 4.08949 24.3173 4.08949C25.1146 4.08949 25.6566 4.643 25.6566 5.5091C25.6566 6.40675 25.0888 6.93157 24.0879 6.93157C23.7409 6.93157 23.3996 6.86561 23.044 6.74803L23.0296 2.77313H23.6262L23.6233 2.776ZM20.1474 4.07802L20.1302 6.74516C19.8807 6.85414 19.4677 6.93157 19.0863 6.93157C18.0883 6.93444 17.5204 6.40675 17.5204 5.5091C17.5204 4.643 18.0596 4.08949 18.8568 4.08949C19.1264 4.08949 19.3501 4.14685 19.5509 4.27591V4.07802H20.1474ZM39.0468 4.07802L39.0296 6.74516C38.7772 6.85414 38.3642 6.93157 37.9857 6.93157C36.9819 6.93444 36.4169 6.40675 36.4169 5.5091C36.4169 4.643 36.9561 4.08949 37.7562 4.08949C38.0258 4.08949 38.2467 4.14685 38.4474 4.27591V4.07802H39.0468ZM42.1585 4.14972V5.87332C42.1585 6.2949 42.4137 6.48418 42.7894 6.48418C43.1622 6.48418 43.4146 6.2949 43.4146 5.87332V4.14972H44.0169V5.94789C44.0169 6.55014 43.5408 6.91437 42.7865 6.91437C42.0351 6.91437 41.5619 6.54728 41.5619 5.94789V4.14972H42.1585ZM24.2026 4.63153C23.9846 4.63153 23.7753 4.70609 23.6233 4.77492V6.29203C23.8097 6.358 23.9818 6.39241 24.1481 6.39241C24.7073 6.39241 25.0257 6.07694 25.0257 5.51484C25.0257 4.9642 24.7045 4.63153 24.2026 4.63153ZM18.9716 4.63153C18.4697 4.63153 18.1485 4.9642 18.1485 5.51484C18.1485 6.07694 18.4697 6.39815 19.0261 6.39241C19.1992 6.39105 19.3715 6.36891 19.5394 6.32645L19.5509 4.82081C19.3821 4.6992 19.1796 4.63305 18.9716 4.63153ZM37.871 4.63153C37.3662 4.63153 37.045 4.9642 37.045 5.51484C37.045 6.07694 37.3662 6.39241 37.9255 6.39241C38.0976 6.39064 38.269 6.36849 38.4359 6.32645L38.4474 4.82081C38.2794 4.69976 38.078 4.63365 37.871 4.63153ZM5.17127 3.38973V4.6602H6.36145V5.11333H5.17127V6.38381H4.70381V5.11333H3.51363V4.6602H4.70381V3.38973H5.17127ZM8.53818 3.94036V4.7319H9.26089V5.04163H8.53818V5.83317H8.19403V5.03877H7.46845V4.73477H8.19116V3.94036H8.53531H8.53818ZM1.57781 3.99772V4.76345H2.29478V4.99862L1.57781 5.00435V5.77295H1.3283V5.00435L0.611328 5.01009V4.76345H1.3283V4.00059H1.58068L1.57781 3.99772ZM32.0033 5.20224H33.3598C33.3454 4.84375 33.1504 4.65734 32.8063 4.63726C32.6289 4.62816 32.4536 4.67851 32.3082 4.78033C32.1627 4.88216 32.0554 5.02963 32.0033 5.19937V5.20224ZM44.9977 4.12678C45.1927 4.12678 45.3476 4.28164 45.3476 4.47666C45.3483 4.52282 45.3398 4.56867 45.3225 4.61147C45.3052 4.65427 45.2794 4.69315 45.2468 4.72579C45.2142 4.75844 45.1753 4.78418 45.1325 4.80149C45.0897 4.8188 45.0438 4.82732 44.9977 4.82654C44.9517 4.82654 44.9062 4.81749 44.8638 4.79991C44.8213 4.78233 44.7828 4.75655 44.7503 4.72406C44.7178 4.69157 44.692 4.653 44.6744 4.61055C44.6568 4.5681 44.6478 4.52261 44.6478 4.47666C44.6478 4.43071 44.6568 4.38521 44.6744 4.34277C44.692 4.30032 44.7178 4.26174 44.7503 4.22925C44.7828 4.19677 44.8213 4.17099 44.8638 4.15341C44.9062 4.13583 44.9517 4.12678 44.9977 4.12678ZM44.9977 4.18127C44.8399 4.18127 44.7109 4.31319 44.7109 4.47666C44.7109 4.643 44.8399 4.77205 44.9977 4.77205C45.0361 4.77207 45.0741 4.76438 45.1094 4.74943C45.1448 4.73448 45.1768 4.71258 45.2036 4.68503C45.2303 4.65749 45.2513 4.62485 45.2651 4.58905C45.279 4.55326 45.2856 4.51504 45.2845 4.47666C45.2856 4.43828 45.279 4.40006 45.2651 4.36427C45.2513 4.32847 45.2303 4.29583 45.2036 4.26828C45.1768 4.24074 45.1448 4.21884 45.1094 4.20389C45.0741 4.18894 45.0361 4.18125 44.9977 4.18127ZM44.9805 4.27877C45.0378 4.27877 45.078 4.29311 45.1038 4.30745C45.1267 4.32753 45.1382 4.35334 45.1382 4.39062C45.1382 4.44224 45.1038 4.47379 45.0636 4.48526V4.48813C45.098 4.49387 45.121 4.52541 45.1296 4.58277C45.1382 4.643 45.1468 4.66881 45.1525 4.68028H45.0866C45.0717 4.64876 45.0629 4.61469 45.0608 4.5799C45.0522 4.53115 45.0264 4.51107 44.9747 4.51107H44.9317V4.68028H44.8686V4.29025C44.9002 4.28451 44.9317 4.27877 44.9805 4.27877ZM44.9776 4.32753L44.9317 4.3304V4.46232H44.9776C45.0292 4.46232 45.0722 4.44511 45.0722 4.39636C45.0722 4.36194 45.0493 4.32753 44.9776 4.32753ZM7.37955 1.51986V2.66415H8.44354V3.01117H7.37955V4.14398H6.97518V3.01117H5.90832V2.66415H6.97518V1.51986H7.37668H7.37955ZM2.89417 1.51986V2.66415H3.9725V2.9997H2.89417V4.14398H2.51561V2.9997H1.43728V2.66415H2.51561V1.51986H2.89417ZM5.07663 0.708252V1.48832H5.79361V1.72348H5.07663V2.50355H4.81852V1.72348H4.10155V1.48832H4.81852V0.708252H5.07663Z" fill="white"/>
</svg>
