<svg width="65" height="64" viewBox="0 0 65 64" fill="none" xmlns="http://www.w3.org/2000/svg">
<g clip-path="url(#clip0_1755_19984)">
<path d="M55.0357 0H10.2357C4.93381 0 0.635742 4.29807 0.635742 9.6V54.4C0.635742 59.7019 4.93381 64 10.2357 64H55.0357C60.3377 64 64.6357 59.7019 64.6357 54.4V9.6C64.6357 4.29807 60.3377 0 55.0357 0Z" fill="#0079BF"/>
<path d="M49.7607 11.875H39.0107C37.4229 11.875 36.1357 13.1622 36.1357 14.75V32.5C36.1357 34.0878 37.4229 35.375 39.0107 35.375H49.7607C51.3486 35.375 52.6357 34.0878 52.6357 32.5V14.75C52.6357 13.1622 51.3486 11.875 49.7607 11.875Z" fill="white"/>
<path d="M26.3857 11.875H15.6357C14.0479 11.875 12.7607 13.1622 12.7607 14.75V46C12.7607 47.5878 14.0479 48.875 15.6357 48.875H26.3857C27.9736 48.875 29.2607 47.5878 29.2607 46V14.75C29.2607 13.1622 27.9736 11.875 26.3857 11.875Z" fill="white"/>
</g>
<defs>
<clipPath id="clip0_1755_19984">
<rect width="64" height="64" fill="white" transform="translate(0.635742)"/>
</clipPath>
</defs>
</svg>
