<svg width="36" height="36" viewBox="0 0 36 36" fill="none" xmlns="http://www.w3.org/2000/svg">
<circle cx="18.0003" cy="18.0001" r="17.3333" fill="#D9D9D9" fill-opacity="0.31"/>
<path d="M18.0003 1.67168C18.0003 1.11667 18.4507 0.663711 19.0048 0.695862C22.5984 0.90439 26.0475 2.2278 28.8652 4.49456C31.9445 6.97181 34.0848 10.427 34.9314 14.2874C35.7779 18.1477 35.2798 22.1815 33.5196 25.72C31.909 28.9578 29.3302 31.603 26.1535 33.2962C25.6637 33.5572 25.0652 33.3343 24.8329 32.8302C24.6007 32.3261 24.8229 31.7321 25.3107 31.4674C28.0719 29.9686 30.3136 27.6523 31.7201 24.8248C33.2762 21.6966 33.7165 18.1306 32.9682 14.7179C32.2198 11.3051 30.3277 8.25058 27.6054 6.06057C25.1448 4.0811 22.1396 2.91538 19.0046 2.70953C18.4508 2.67317 18.0003 2.22668 18.0003 1.67168Z" fill="#FA5252"/>
<path d="M10.7543 18.6305V16.2541C10.7543 16.0347 10.7581 15.8525 10.7655 15.7075C10.7766 15.5587 10.7915 15.4323 10.8101 15.3281C10.7395 15.488 10.6595 15.648 10.5703 15.8079C10.4847 15.9678 10.3787 16.1463 10.2523 16.3434L8.75175 18.6305H10.7543ZM10.7543 22.0667V20.237H7.03923V18.6305L10.0794 13.9447H12.6175V18.6305H13.5211V20.237H12.6175V22.0667H10.7543ZM14.3411 19.3612H16.4107V19.4951C16.4107 19.8521 16.4943 20.1236 16.6617 20.3095C16.829 20.4917 17.0763 20.5828 17.4036 20.5828C17.7457 20.5828 18.0079 20.4954 18.1901 20.3207C18.3724 20.1422 18.4635 19.8856 18.4635 19.5509C18.4635 19.1753 18.3649 18.9001 18.1678 18.7253C17.9744 18.5468 17.6695 18.4575 17.253 18.4575C17.1861 18.4575 17.134 18.4594 17.0968 18.4631C17.0633 18.4631 17.0317 18.4631 17.002 18.4631V17.1522H17.1191C17.4947 17.1522 17.7829 17.0704 17.9837 16.9068C18.1846 16.7431 18.285 16.5051 18.285 16.1928C18.285 15.9436 18.1994 15.7409 18.0284 15.5847C17.861 15.4285 17.6453 15.3504 17.3813 15.3504C17.0987 15.3504 16.8792 15.4267 16.7231 15.5792C16.5669 15.7316 16.4851 15.9473 16.4776 16.2262H14.5029C14.5178 15.4639 14.7837 14.8726 15.3006 14.4523C15.8212 14.0284 16.5483 13.8164 17.4817 13.8164C18.3147 13.8164 18.9692 14.0061 19.4452 14.3854C19.925 14.761 20.1648 15.2723 20.1648 15.9194C20.1648 16.3322 20.0551 16.6836 19.8357 16.9737C19.6163 17.2601 19.2965 17.4683 18.8763 17.5985C19.3857 17.6914 19.7818 17.9146 20.0644 18.2679C20.3471 18.6174 20.4884 19.0656 20.4884 19.6122C20.4884 20.4043 20.2057 21.0477 19.6405 21.5423C19.0789 22.0369 18.3445 22.2842 17.4371 22.2842C16.4851 22.2842 15.7301 22.0295 15.1723 21.52C14.6182 21.0068 14.3411 20.3132 14.3411 19.4393V19.3612ZM23.3891 17.4646C23.6382 17.4646 23.8186 17.3568 23.9301 17.1411C24.0417 16.9217 24.0975 16.5646 24.0975 16.07C24.0975 15.5754 24.0417 15.2203 23.9301 15.0046C23.8186 14.7852 23.6382 14.6755 23.3891 14.6755C23.1399 14.6755 22.9595 14.7852 22.848 15.0046C22.7364 15.2203 22.6806 15.5754 22.6806 16.07C22.6806 16.5646 22.7364 16.9217 22.848 17.1411C22.9595 17.3568 23.1399 17.4646 23.3891 17.4646ZM25.4921 16.07C25.4921 16.7543 25.3005 17.301 24.9175 17.71C24.5382 18.1154 24.0287 18.3181 23.3891 18.3181C22.7457 18.3181 22.2344 18.1154 21.855 17.71C21.4757 17.3047 21.2861 16.758 21.2861 16.07C21.2861 15.3821 21.4757 14.8354 21.855 14.43C22.2344 14.021 22.7457 13.8164 23.3891 13.8164C24.0324 13.8164 24.5438 14.021 24.9231 14.43C25.3024 14.8354 25.4921 15.3821 25.4921 16.07ZM29.0677 21.4252C29.3169 21.4252 29.4972 21.3154 29.6088 21.096C29.7204 20.8766 29.7761 20.5178 29.7761 20.0194C29.7761 19.5248 29.7204 19.1697 29.6088 18.954C29.4972 18.7383 29.3169 18.6305 29.0677 18.6305C28.8185 18.6305 28.6382 18.7383 28.5266 18.954C28.4151 19.1697 28.3593 19.5248 28.3593 20.0194C28.3593 20.5178 28.4151 20.8766 28.5266 21.096C28.6382 21.3154 28.8185 21.4252 29.0677 21.4252ZM31.1596 20.0194C31.1596 20.7111 30.9699 21.2615 30.5906 21.6706C30.2112 22.0797 29.7036 22.2842 29.0677 22.2842C28.4244 22.2842 27.913 22.0797 27.5337 21.6706C27.1544 21.2615 26.9647 20.7111 26.9647 20.0194C26.9647 19.3315 27.1544 18.7848 27.5337 18.3794C27.913 17.9741 28.4244 17.7714 29.0677 17.7714C29.7073 17.7714 30.215 17.9741 30.5906 18.3794C30.9699 18.7848 31.1596 19.3315 31.1596 20.0194ZM23.205 22.2842L28.1083 13.8164H29.157L24.2202 22.2842H23.205Z" fill="#333333"/>
</svg>
