<svg width="12" height="14" viewBox="0 0 12 14" fill="none" xmlns="http://www.w3.org/2000/svg">
<path d="M6 2C4.81331 2 3.65328 2.35189 2.66658 3.01118C1.67989 3.67047 0.910851 4.60754 0.456725 5.7039C0.00259972 6.80026 -0.11622 8.00665 0.115291 9.17054C0.346802 10.3344 0.918247 11.4035 1.75736 12.2426C2.59648 13.0818 3.66557 13.6532 4.82946 13.8847C5.99335 14.1162 7.19975 13.9974 8.2961 13.5433C9.39246 13.0891 10.3295 12.3201 10.9888 11.3334C11.6481 10.3467 12 9.18669 12 8C11.9982 6.40926 11.3655 4.88419 10.2406 3.75937C9.11581 2.63454 7.59074 2.00182 6 2ZM6 13C5.0111 13 4.0444 12.7068 3.22215 12.1573C2.39991 11.6079 1.75904 10.827 1.3806 9.91342C1.00217 8.99979 0.90315 7.99445 1.09608 7.02455C1.289 6.05464 1.76521 5.16373 2.46447 4.46447C3.16373 3.7652 4.05465 3.289 5.02455 3.09607C5.99446 2.90315 6.99979 3.00216 7.91342 3.3806C8.82705 3.75904 9.60794 4.3999 10.1573 5.22215C10.7068 6.04439 11 7.01109 11 8C10.9985 9.32562 10.4713 10.5965 9.53389 11.5339C8.59653 12.4712 7.32563 12.9985 6 13ZM8.85375 5.14625C8.90024 5.19269 8.93712 5.24783 8.96228 5.30853C8.98744 5.36923 9.00039 5.43429 9.00039 5.5C9.00039 5.56571 8.98744 5.63077 8.96228 5.69147C8.93712 5.75217 8.90024 5.80731 8.85375 5.85375L6.35375 8.35375C6.3073 8.4002 6.25215 8.43705 6.19145 8.4622C6.13075 8.48734 6.0657 8.50028 6 8.50028C5.9343 8.50028 5.86925 8.48734 5.80855 8.4622C5.74786 8.43705 5.69271 8.4002 5.64625 8.35375C5.5998 8.30729 5.56295 8.25214 5.53781 8.19145C5.51266 8.13075 5.49972 8.0657 5.49972 8C5.49972 7.9343 5.51266 7.86925 5.53781 7.80855C5.56295 7.74785 5.5998 7.6927 5.64625 7.64625L8.14625 5.14625C8.19269 5.09976 8.24783 5.06288 8.30853 5.03772C8.36923 5.01256 8.43429 4.99961 8.5 4.99961C8.56571 4.99961 8.63077 5.01256 8.69147 5.03772C8.75217 5.06288 8.80731 5.09976 8.85375 5.14625ZM4 0.5C4 0.367392 4.05268 0.240215 4.14645 0.146447C4.24022 0.0526784 4.36739 0 4.5 0H7.5C7.63261 0 7.75979 0.0526784 7.85356 0.146447C7.94732 0.240215 8 0.367392 8 0.5C8 0.632608 7.94732 0.759785 7.85356 0.853553C7.75979 0.947321 7.63261 1 7.5 1H4.5C4.36739 1 4.24022 0.947321 4.14645 0.853553C4.05268 0.759785 4 0.632608 4 0.5Z" fill="#6D6D6D"/>
</svg>
