<svg width="24" height="24" viewBox="0 0 24 24" fill="none" xmlns="http://www.w3.org/2000/svg">
<path d="M7.7135 3.90538L4.4485 7.17038C3.9745 7.64438 3.5845 8.31538 3.5285 9.13038C3.497 9.59138 3.4825 10.2589 3.5335 11.1604C3.56743 11.7609 3.82128 12.3279 4.2466 12.7533C4.67193 13.1786 5.23896 13.4324 5.8395 13.4664C6.741 13.5174 7.4085 13.5029 7.8695 13.4714C8.6845 13.4154 9.3555 13.0254 9.8295 12.5514L14.893 7.48788C15.6955 6.68538 16.325 5.32888 15.937 4.00238C17.337 3.59738 18.869 3.35438 20.741 3.28138C21.2714 3.25779 21.7912 3.43553 22.1961 3.77897C22.601 4.12242 22.8612 4.6062 22.9245 5.13338C22.943 5.28438 22.9615 5.44888 22.9805 5.62688C23.113 6.87038 23.25 8.75888 23.25 11.2574C23.25 14.1134 23.071 16.1724 22.9245 17.3824C22.789 18.4994 21.838 19.2394 20.7995 19.2804C20.587 19.2884 20.3795 19.2994 20.1765 19.3119C17.1295 19.5054 15.105 20.2119 12.833 21.4109C12.5763 21.5464 12.2903 21.6173 12 21.6173C11.7097 21.6173 11.4237 21.5464 11.167 21.4109C8.743 20.1319 6.6015 19.4134 3.2005 19.2804C2.162 19.2394 1.211 18.4994 1.0755 17.3819C0.9285 16.1719 0.75 14.1134 0.75 11.2574C0.75 8.40238 0.9285 6.34288 1.0755 5.13338C1.13879 4.6062 1.39897 4.12242 1.80389 3.77897C2.20881 3.43553 2.72857 3.25779 3.259 3.28138C4.9765 3.34838 6.408 3.55888 7.7135 3.90538Z" fill="#FFB5B4"/>
<path d="M11.25 11.1309L12.75 9.63086V21.4519L12.734 21.4594C12.5006 21.5648 12.2473 21.6187 11.9912 21.6175C11.7352 21.6163 11.4824 21.56 11.25 21.4524V11.1309Z" fill="#CA2421"/>
<path d="M13.8326 6.42698C14.5596 5.69998 14.8315 4.63448 14.1785 3.84048C14.0254 3.65508 13.8634 3.4772 13.693 3.30748C13.5232 3.13695 13.3451 2.97476 13.1595 2.82148C12.3655 2.16848 11.2995 2.44048 10.573 3.16748L5.50905 8.23098C5.23755 8.50298 5.05155 8.84898 5.02555 9.23248C4.99805 9.62748 4.98355 10.2325 5.03055 11.076C5.0437 11.3086 5.14208 11.5283 5.30689 11.693C5.4717 11.8577 5.6914 11.956 5.92405 11.969C6.76755 12.0165 7.37255 12.002 7.76755 11.9745C8.15105 11.9485 8.49705 11.7625 8.76905 11.4905L13.8326 6.42698Z" fill="#CA2421"/>
<path d="M13.3474 6.91258C13.0804 6.42658 12.6409 5.78808 11.9264 5.07408C11.2124 4.35958 10.5739 3.92008 10.0879 3.65308L8.96387 4.77708C9.04987 4.81008 9.17287 4.86408 9.32787 4.94708C9.69037 5.14208 10.2299 5.49858 10.8659 6.13458C11.5019 6.77008 11.8589 7.31008 12.0529 7.67258C12.1364 7.82758 12.1904 7.95108 12.2234 8.03658L13.3474 6.91258Z" fill="#FFB5B4"/>
</svg>
