<svg width="28" height="24" viewBox="0 0 28 24" fill="none" xmlns="http://www.w3.org/2000/svg">
<path d="M3.66699 19.5H9.66699C10.8605 19.5 12.0051 19.9741 12.849 20.818C13.6929 21.6619 14.167 22.8065 14.167 24V9C14.167 4.758 14.167 2.6355 12.8485 1.3185C11.5315 2.68221e-07 9.40899 0 5.16699 0H3.66699C2.25249 0 1.54599 3.12924e-07 1.10649 0.4395C0.666992 0.879 0.666992 1.5855 0.666992 3V16.5C0.666992 17.9145 0.666992 18.621 1.10649 19.0605C1.54599 19.5 2.25249 19.5 3.66699 19.5Z" fill="#FA5252" fill-opacity="0.25"/>
<path d="M24.667 19.5H20.167C18.9735 19.5 17.8289 19.9741 16.985 20.818C16.1411 21.6619 15.667 22.8065 15.667 24V9C15.667 4.758 15.667 2.6355 16.9855 1.3185C18.3025 2.68221e-07 20.425 0 24.667 0C26.0815 0 26.788 3.12924e-07 27.2275 0.4395C27.667 0.879 27.667 1.5855 27.667 3V16.5C27.667 17.9145 27.667 18.621 27.2275 19.0605C26.788 19.5 26.0815 19.5 24.667 19.5ZM3.66699 0.225C3.66699 0.165326 3.6907 0.108096 3.73289 0.0659008C3.77509 0.0237051 3.83232 0 3.89199 0H7.94199C8.00167 0 8.0589 0.0237051 8.10109 0.0659008C8.14329 0.108096 8.16699 0.165326 8.16699 0.225V6.594C8.16713 6.66827 8.1452 6.7409 8.10401 6.80269C8.06281 6.86448 8.0042 6.91265 7.93559 6.94109C7.86699 6.96953 7.79148 6.97695 7.71865 6.96243C7.64582 6.9479 7.57894 6.91208 7.52649 6.8595L6.18249 5.5155C6.14766 5.48058 6.10628 5.45287 6.06072 5.43397C6.01516 5.41506 5.96632 5.40533 5.91699 5.40533C5.86767 5.40533 5.81883 5.41506 5.77327 5.43397C5.72771 5.45287 5.68633 5.48058 5.65149 5.5155L4.30749 6.8595C4.25505 6.91208 4.18817 6.9479 4.11534 6.96243C4.0425 6.97695 3.967 6.96953 3.8984 6.94109C3.82979 6.91265 3.77117 6.86448 3.72998 6.80269C3.68878 6.7409 3.66686 6.66827 3.66699 6.594V0.225Z" fill="#CA2421"/>
</svg>
