<svg width="42" height="57" viewBox="0 0 42 57" fill="none" xmlns="http://www.w3.org/2000/svg">
<rect x="0.5" y="0.5" width="41" height="56" rx="3.5" fill="#CA2421"/>
<rect x="0.5" y="0.5" width="41" height="56" rx="3.5" stroke="#ECECEC"/>
<path opacity="0.5" d="M31 27H11V36C11 36.7956 11.3161 37.5587 11.8787 38.1213C12.4413 38.6839 13.2044 39 14 39H28C28.7956 39 29.5587 38.6839 30.1213 38.1213C30.6839 37.5587 31 36.7956 31 36V27ZM16 25C15.7348 25 15.4804 24.8946 15.2929 24.7071C15.1054 24.5196 15 24.2652 15 24V20C15 19.7348 15.1054 19.4804 15.2929 19.2929C15.4804 19.1054 15.7348 19 16 19C16.2652 19 16.5196 19.1054 16.7071 19.2929C16.8946 19.4804 17 19.7348 17 20V24C17 24.2652 16.8946 24.5196 16.7071 24.7071C16.5196 24.8946 16.2652 25 16 25ZM26 25C25.7348 25 25.4804 24.8946 25.2929 24.7071C25.1054 24.5196 25 24.2652 25 24V20C25 19.7348 25.1054 19.4804 25.2929 19.2929C25.4804 19.1054 25.7348 19 26 19C26.2652 19 26.5196 19.1054 26.7071 19.2929C26.8946 19.4804 27 19.7348 27 20V24C27 24.2652 26.8946 24.5196 26.7071 24.7071C26.5196 24.8946 26.2652 25 26 25Z" fill="white"/>
<path d="M28 21H27V24C27 24.2652 26.8946 24.5196 26.7071 24.7071C26.5196 24.8946 26.2652 25 26 25C25.7348 25 25.4804 24.8946 25.2929 24.7071C25.1054 24.5196 25 24.2652 25 24V21H17V24C17 24.2652 16.8946 24.5196 16.7071 24.7071C16.5196 24.8946 16.2652 25 16 25C15.7348 25 15.4804 24.8946 15.2929 24.7071C15.1054 24.5196 15 24.2652 15 24V21H14C13.2044 21 12.4413 21.3161 11.8787 21.8787C11.3161 22.4413 11 23.2044 11 24V27H31V24C31 23.2044 30.6839 22.4413 30.1213 21.8787C29.5587 21.3161 28.7956 21 28 21Z" fill="white"/>
</svg>
