<svg width="14" height="15" viewBox="0 0 14 15" fill="none" xmlns="http://www.w3.org/2000/svg">
<path opacity="0.5" d="M14 5.93203H0V12.232C0 12.789 0.221249 13.3231 0.615076 13.717C1.0089 14.1108 1.54305 14.332 2.1 14.332H11.9C12.457 14.332 12.9911 14.1108 13.3849 13.717C13.7788 13.3231 14 12.789 14 12.232V5.93203ZM3.5 4.53203C3.31435 4.53203 3.1363 4.45828 3.00503 4.32701C2.87375 4.19573 2.8 4.01768 2.8 3.83203V1.03203C2.8 0.84638 2.87375 0.668332 3.00503 0.537056C3.1363 0.405781 3.31435 0.332031 3.5 0.332031C3.68565 0.332031 3.8637 0.405781 3.99497 0.537056C4.12625 0.668332 4.2 0.84638 4.2 1.03203V3.83203C4.2 4.01768 4.12625 4.19573 3.99497 4.32701C3.8637 4.45828 3.68565 4.53203 3.5 4.53203ZM10.5 4.53203C10.3143 4.53203 10.1363 4.45828 10.005 4.32701C9.87375 4.19573 9.8 4.01768 9.8 3.83203V1.03203C9.8 0.84638 9.87375 0.668332 10.005 0.537056C10.1363 0.405781 10.3143 0.332031 10.5 0.332031C10.6857 0.332031 10.8637 0.405781 10.995 0.537056C11.1263 0.668332 11.2 0.84638 11.2 1.03203V3.83203C11.2 4.01768 11.1263 4.19573 10.995 4.32701C10.8637 4.45828 10.6857 4.53203 10.5 4.53203Z" fill="#CA2421"/>
<path d="M11.9 1.73242H11.2V3.83242C11.2 4.01807 11.1263 4.19612 10.995 4.3274C10.8637 4.45867 10.6857 4.53242 10.5 4.53242C10.3143 4.53242 10.1363 4.45867 10.005 4.3274C9.87375 4.19612 9.8 4.01807 9.8 3.83242V1.73242H4.2V3.83242C4.2 4.01807 4.12625 4.19612 3.99497 4.3274C3.8637 4.45867 3.68565 4.53242 3.5 4.53242C3.31435 4.53242 3.1363 4.45867 3.00503 4.3274C2.87375 4.19612 2.8 4.01807 2.8 3.83242V1.73242H2.1C1.54305 1.73242 1.0089 1.95367 0.615076 2.3475C0.221249 2.74132 0 3.27547 0 3.83242V5.93242H14V3.83242C14 3.27547 13.7788 2.74132 13.3849 2.3475C12.9911 1.95367 12.457 1.73242 11.9 1.73242Z" fill="#CA2421"/>
</svg>
