<svg width="13" height="15" viewBox="0 0 13 15" fill="none" xmlns="http://www.w3.org/2000/svg">
<path d="M12.2271 4.42673L8.45788 0.6575C8.40784 0.607512 8.34844 0.567874 8.28307 0.54085C8.21771 0.513825 8.14766 0.499945 8.07692 0.5H1.61538C1.32977 0.5 1.05585 0.613461 0.853885 0.815424C0.651923 1.01739 0.538462 1.29131 0.538462 1.57692V6.42308C0.538462 6.56589 0.595192 6.70285 0.696173 6.80383C0.797154 6.90481 0.934114 6.96154 1.07692 6.96154C1.21973 6.96154 1.35669 6.90481 1.45767 6.80383C1.55865 6.70285 1.61538 6.56589 1.61538 6.42308V1.57692H7.53846V4.80769C7.53846 4.9505 7.59519 5.08746 7.69617 5.18844C7.79715 5.28942 7.93411 5.34615 8.07692 5.34615H11.3077V13.4231H10.7692C10.6264 13.4231 10.4895 13.4798 10.3885 13.5808C10.2875 13.6818 10.2308 13.8187 10.2308 13.9615C10.2308 14.1043 10.2875 14.2413 10.3885 14.3423C10.4895 14.4433 10.6264 14.5 10.7692 14.5H11.3077C11.5933 14.5 11.8672 14.3865 12.0692 14.1846C12.2712 13.9826 12.3846 13.7087 12.3846 13.4231V4.80769C12.3847 4.73696 12.3708 4.66691 12.3438 4.60154C12.3167 4.53618 12.2771 4.47677 12.2271 4.42673ZM8.61538 2.33817L10.5464 4.26923H8.61538V2.33817ZM8.33808 8.64423C8.25395 8.59768 8.1589 8.5745 8.06279 8.57711C7.96668 8.57971 7.87302 8.608 7.79154 8.65904L6.44875 9.49769C6.41129 9.2421 6.28321 9.00849 6.08787 8.83947C5.89253 8.67044 5.64293 8.57726 5.38461 8.57692H1.07692C0.791305 8.57692 0.517386 8.69038 0.315423 8.89235C0.113461 9.09431 0 9.36823 0 9.65385V12.8846C0 13.1702 0.113461 13.4442 0.315423 13.6461C0.517386 13.8481 0.791305 13.9615 1.07692 13.9615H5.38461C5.64293 13.9612 5.89253 13.868 6.08787 13.699C6.28321 13.53 6.41129 13.2964 6.44875 13.0408L7.79154 13.8794C7.87303 13.9304 7.96666 13.9585 8.06272 13.9611C8.15878 13.9636 8.25377 13.9404 8.33783 13.8938C8.4219 13.8473 8.49196 13.7791 8.54077 13.6963C8.58957 13.6135 8.61534 13.5192 8.61538 13.4231V9.11539C8.61543 9.01925 8.58974 8.92485 8.54097 8.842C8.49221 8.75914 8.42215 8.69086 8.33808 8.64423ZM5.38461 12.8846H1.07692V9.65385H5.38461V12.8846ZM7.53846 12.4518L6.46154 11.7788V10.7597L7.53846 10.0866V12.4518Z" fill="#CA2421"/>
</svg>
