<svg width="20" height="15" viewBox="0 0 20 15" fill="none" xmlns="http://www.w3.org/2000/svg">
<path fill-rule="evenodd" clip-rule="evenodd" d="M11.5342 1.12026C9.16884 0.871804 6.78501 0.853384 4.41615 1.06526L2.83415 1.20626C2.19934 1.26319 1.60223 1.53237 1.13921 1.97036C0.676181 2.40835 0.374251 2.98959 0.282151 3.62026C-0.0940503 6.19324 -0.0940503 8.80727 0.282151 11.3803C0.374464 12.011 0.676591 12.5923 1.13978 13.0302C1.60298 13.4682 2.20022 13.7374 2.83515 13.7943L4.41715 13.9343C6.78598 14.1465 9.16981 14.1284 11.5352 13.8803L12.1432 13.8163C12.7467 13.7529 13.3141 13.4983 13.7627 13.0895C14.2112 12.6808 14.5172 12.1393 14.6362 11.5443L17.6832 13.1623C17.7925 13.2204 17.9146 13.2505 18.0385 13.2499C18.1624 13.2493 18.2842 13.2181 18.393 13.159C18.5019 13.0998 18.5944 13.0147 18.6623 12.9111C18.7302 12.8075 18.7714 12.6887 18.7822 12.5653L18.8071 12.2813C19.086 9.09969 19.086 5.89982 18.8071 2.71826L18.7822 2.43426C18.7713 2.3108 18.73 2.19197 18.662 2.08837C18.5939 1.98478 18.5013 1.89966 18.3923 1.84062C18.2834 1.78158 18.1615 1.75046 18.0375 1.75005C17.9136 1.74964 17.7915 1.77994 17.6821 1.83826L14.6362 3.45626C14.5172 2.86118 14.2112 2.31972 13.7627 1.91097C13.3141 1.50221 12.7467 1.24757 12.1432 1.18426L11.5342 1.12026ZM4.55015 2.55926C6.82218 2.35614 9.10855 2.37389 11.3772 2.61226L11.9852 2.67626C12.2822 2.70771 12.5604 2.8371 12.7758 3.04403C12.9913 3.25097 13.1318 3.5237 13.1752 3.81926C13.5332 6.26026 13.5332 8.73926 13.1752 11.1813C13.1318 11.4768 12.9913 11.7495 12.7758 11.9565C12.5604 12.1634 12.2822 12.2928 11.9852 12.3243L11.3772 12.3883C9.10855 12.6266 6.82218 12.6444 4.55015 12.4413L2.96815 12.2993C2.66916 12.2726 2.38787 12.146 2.16963 11.9399C1.95138 11.7338 1.8089 11.4602 1.76515 11.1633C1.40999 8.73417 1.40999 6.26634 1.76515 3.83726C1.80852 3.54003 1.95086 3.26612 2.16916 3.0598C2.38746 2.85348 2.66896 2.72681 2.96815 2.70026L4.55015 2.55926ZM14.8322 5.05026C14.9812 6.68026 14.9812 8.32026 14.8322 9.95026L17.3792 11.3033C17.5605 8.77117 17.5605 6.22935 17.3792 3.69726L14.8322 5.05026Z" fill="#CA2421"/>
</svg>
