<svg width="20" height="14" viewBox="0 0 20 14" fill="none" xmlns="http://www.w3.org/2000/svg">
<path fill-rule="evenodd" clip-rule="evenodd" d="M11.5342 0.620287C9.16884 0.371834 6.78501 0.353415 4.41615 0.565287L2.83415 0.706287C2.19934 0.763221 1.60223 1.03241 1.13921 1.47039C0.676181 1.90838 0.374251 2.48962 0.282151 3.12029C-0.0940503 5.69327 -0.0940503 8.3073 0.282151 10.8803C0.374464 11.511 0.676591 12.0923 1.13978 12.5303C1.60298 12.9682 2.20022 13.2374 2.83515 13.2943L4.41715 13.4343C6.78598 13.6465 9.16981 13.6284 11.5352 13.3803L12.1432 13.3163C12.7467 13.253 13.3141 12.9983 13.7627 12.5896C14.2112 12.1808 14.5172 11.6394 14.6362 11.0443L17.6832 12.6623C17.7925 12.7204 17.9146 12.7505 18.0385 12.7499C18.1624 12.7494 18.2842 12.7181 18.393 12.659C18.5019 12.5999 18.5944 12.5147 18.6623 12.4111C18.7302 12.3075 18.7714 12.1887 18.7822 12.0653L18.8071 11.7813C19.086 8.59972 19.086 5.39985 18.8071 2.21829L18.7822 1.93429C18.7713 1.81083 18.73 1.692 18.662 1.5884C18.5939 1.48481 18.5013 1.39969 18.3923 1.34065C18.2834 1.28161 18.1615 1.25049 18.0375 1.25008C17.9136 1.24967 17.7915 1.27997 17.6821 1.33829L14.6362 2.95629C14.5172 2.36121 14.2112 1.81975 13.7627 1.411C13.3141 1.00224 12.7467 0.747604 12.1432 0.684287L11.5342 0.620287ZM4.55015 2.05929C6.82218 1.85617 9.10855 1.87392 11.3772 2.11229L11.9852 2.17629C12.2822 2.20774 12.5604 2.33713 12.7758 2.54406C12.9913 2.751 13.1318 3.02373 13.1752 3.31929C13.5332 5.76029 13.5332 8.23929 13.1752 10.6813C13.1318 10.9768 12.9913 11.2496 12.7758 11.4565C12.5604 11.6634 12.2822 11.7928 11.9852 11.8243L11.3772 11.8883C9.10855 12.1267 6.82218 12.1444 4.55015 11.9413L2.96815 11.7993C2.66916 11.7726 2.38787 11.646 2.16963 11.4399C1.95138 11.2338 1.8089 10.9603 1.76515 10.6633C1.40999 8.2342 1.40999 5.76637 1.76515 3.33729C1.80852 3.04006 1.95086 2.76615 2.16916 2.55983C2.38746 2.35351 2.66896 2.22684 2.96815 2.20029L4.55015 2.05929ZM14.8322 4.55029C14.9812 6.18029 14.9812 7.82029 14.8322 9.45029L17.3792 10.8033C17.5605 8.2712 17.5605 5.72938 17.3792 3.19729L14.8322 4.55029Z" fill="#828282"/>
</svg>
