<svg width="22" height="16" viewBox="0 0 22 16" fill="none" xmlns="http://www.w3.org/2000/svg">
<path d="M3.66667 0C2.69421 0 1.76158 0.386308 1.07394 1.07394C0.386309 1.76157 0 2.69421 0 3.66667V5.33333H21.3333V3.66667C21.3333 2.69421 20.947 1.76157 20.2594 1.07394C19.5718 0.386308 18.6391 0 17.6667 0H3.66667ZM21.3333 6.66667H0V12.3333C0 13.3058 0.386309 14.2384 1.07394 14.9261C1.76158 15.6137 2.69421 16 3.66667 16H17.6667C18.6391 16 19.5718 15.6137 20.2594 14.9261C20.947 14.2384 21.3333 13.3058 21.3333 12.3333V6.66667ZM15.3333 12H18C18.1768 12 18.3464 12.0702 18.4714 12.1953C18.5964 12.3203 18.6667 12.4899 18.6667 12.6667C18.6667 12.8435 18.5964 13.013 18.4714 13.1381C18.3464 13.2631 18.1768 13.3333 18 13.3333H15.3333C15.1565 13.3333 14.987 13.2631 14.8619 13.1381C14.7369 13.013 14.6667 12.8435 14.6667 12.6667C14.6667 12.4899 14.7369 12.3203 14.8619 12.1953C14.987 12.0702 15.1565 12 15.3333 12Z" fill="#CA2421"/>
</svg>
