<svg width="30" height="30" viewBox="0 0 30 30" fill="none" xmlns="http://www.w3.org/2000/svg">
<path fill-rule="evenodd" clip-rule="evenodd" d="M9.77714 18.6554H13.5835V29.0296H9.77714V18.6554ZM10.3742 8.50501C9.74561 8.50501 8.52673 5.83133 8.13902 10.5987C7.94315 13.0073 8.10241 12.895 9.40669 12.9058C9.7987 12.909 10.71 13.0008 11.103 13.0753C11.596 13.1688 11.6198 13.5528 11.8677 14.1766C11.9805 14.4605 12.62 16.0099 12.5874 16.2429C12.5196 16.7276 11.8495 16.9799 11.5649 16.3452C11.4703 16.1344 11.3877 15.895 11.2977 15.6421C10.7901 14.2166 10.8487 14.0812 10.0798 14.0239C8.71393 13.9222 8.41039 13.8787 7.01563 13.8787C6.37789 13.8787 6.55155 15.2794 6.42962 15.8303C6.32932 16.2833 5.84468 17.1162 5.62245 17.5607C5.32772 18.1502 5.06072 18.6842 4.77659 19.2524C4.52614 19.7534 4.12374 20.8198 3.73173 20.8198C3.41236 20.8198 3.13461 20.5897 3.13461 20.2973L4.86185 16.203C5.59408 14.4343 5.02232 13.1212 5.2856 10.8052L5.66393 8.2835C5.61586 7.70207 4.94631 7.58716 4.12123 8.52127L2.45202 10.4346C1.76263 11.2909 1.73698 11.3357 1.11952 11.1919C0.778583 10.4813 1.04945 10.6253 2.27156 9.05993L3.63294 7.43592C3.79291 7.24593 3.74398 7.2382 3.97681 7.1081C4.15039 7.0111 4.31609 6.9439 4.47807 6.86302C7.24301 5.48223 7.46725 4.73273 9.8684 6.84647C10.6815 7.5623 10.5161 7.40261 12.7733 6.50059C13.1529 6.34886 13.4488 6.23681 13.8504 6.07935C14.0785 5.98994 14.1669 5.93643 14.396 6.0426C14.5469 6.11252 14.7031 6.27973 14.7031 6.48992C14.7031 7.03911 13.506 7.35791 12.7311 7.65263C12.3185 7.80953 10.6754 8.50515 10.3743 8.50515L10.3742 8.50501ZM8.43367 1.19071C10.3712 1.19071 10.2793 3.65369 8.50832 3.65369C6.88424 3.65369 7.08448 1.19071 8.43367 1.19071ZM6.34394 2.23558C6.34394 3.97965 7.25118 4.08303 7.5381 4.47462C7.13849 4.6664 6.98962 4.32711 5.07182 5.44154C2.87491 6.71823 3.58064 5.7761 1.35306 8.58918C0.538877 9.61736 0 9.91216 0 10.8932C0 11.9154 1.50974 13.2979 3.10316 11.2348L4.4035 9.77368C4.15039 10.86 4.14867 12.4249 4.25126 13.585C4.29145 14.0396 4.18076 14.2783 4.1784 14.6985C4.17389 15.5038 3.98913 15.6855 3.60313 16.5862C3.40405 17.0507 2.16439 19.8075 2.16439 20.0734C2.16439 20.6425 2.15565 21.0628 2.78923 21.5382C3.44825 22.0329 4.57407 21.913 5.02726 20.9957C5.23008 20.5852 5.40445 20.2358 5.59759 19.8494L7.31466 16.4166C7.42749 16.1525 7.5381 15.3006 7.5381 14.9234L10.0011 14.9981C10.1212 15.5138 10.6572 17.0967 11.2078 17.4485C11.2848 17.4977 11.32 17.513 11.3939 17.5609C11.5389 17.655 11.4548 17.5862 11.5684 17.6849C10.7051 17.6849 9.61838 17.588 8.88149 17.7596C8.79488 17.9401 8.73227 18.0861 8.73227 18.3567V29.4027C8.73227 29.6755 8.93823 29.9999 9.18009 29.9999H14.1807C14.3547 29.9999 14.5539 29.8007 14.5539 29.6267V18.0582C14.5539 17.8787 14.4329 17.8388 14.3299 17.685H12.5386L12.9093 17.4586C13.0371 17.3805 13.1211 17.3098 13.2317 17.1839C14.0553 16.2461 13.2379 14.9741 12.7513 13.6659C12.6839 13.4847 12.5392 13.0379 12.4333 12.8644L11.9318 12.3211C11.6416 12.1329 11.5057 12.1174 11.0805 12.0528C10.8023 12.0106 10.3744 11.9601 10.1454 11.9429C9.77886 11.9156 9.39651 11.8634 9.10544 11.8634C9.10544 11.2283 9.22336 9.55288 9.40396 9.17649C10.4738 9.74259 10.5228 9.60962 11.8989 9.05914C13.5 8.41868 15.6734 7.96756 15.6734 6.63893C15.6734 6.14927 15.672 5.81808 15.211 5.38473C13.9333 4.18347 11.7583 6.19111 10.6728 6.19111L8.58304 4.69842C9.73451 4.69842 10.8221 3.72297 10.8221 2.68326C10.8221 1.97882 10.7667 1.30541 10.1302 0.762877C8.3745 -0.73361 6.34394 0.834444 6.34394 2.23551V2.23558Z" fill="#CA2421"/>
<path fill-rule="evenodd" clip-rule="evenodd" d="M24.5543 10.5948H28.3606V29.0297H24.5543V10.5948ZM23.5841 10.147V29.4775C23.5841 29.729 23.7159 30 23.9572 30H28.8831C29.2315 30 29.4056 29.826 29.4056 29.4775V10.0723C29.4056 9.89259 29.1375 9.62451 28.9578 9.62451H24.1065C23.7581 9.62451 23.584 9.79853 23.584 10.147H23.5841Z" fill="#CA2421"/>
<path fill-rule="evenodd" clip-rule="evenodd" d="M17.0166 9.99769C17.1313 9.84109 19.0974 8.74944 19.3449 8.59427C20.112 8.11321 20.8214 7.59905 21.5182 7.03581C22.2254 6.46427 22.8572 5.91558 23.4533 5.23908C23.6014 5.07102 23.708 4.92946 23.8602 4.75043C24.0164 4.5666 24.1306 4.39345 24.2779 4.19787C25.6373 2.39412 24.75 2.74809 24.1069 1.78776L28.2865 1.11606C28.2865 1.62872 27.9128 3.97342 27.8166 4.67664C27.7472 5.1837 27.8509 5.59743 27.4102 5.13585C26.2242 3.89347 26.4951 5.22805 24.5547 6.71379C24.2946 6.91295 24.1072 7.1066 23.8192 7.32166C23.5459 7.52576 23.3389 7.68781 23.0306 7.87644C22.4144 8.25348 21.9464 8.51024 21.2728 8.80554C19.3425 9.65196 18.7817 9.58641 17.0166 9.99762V9.99769ZM22.4649 1.41466C22.4649 1.94436 23.6012 2.6993 23.8083 2.982C23.6646 3.59867 22.217 5.0794 21.7387 5.53976L20.4718 6.58649C20.0109 6.93122 19.5715 7.2238 19.1064 7.53479L13.9305 10.4205C13.8047 10.5071 13.7178 10.5996 13.6917 10.767C13.6714 10.8964 13.7263 11.0686 13.8221 11.1732C14.186 11.5701 17.1871 10.9907 17.8279 10.8837C20.2572 10.4779 22.472 9.59916 24.3736 8.1746C24.9993 7.70586 26.3834 6.52753 26.7192 5.8928C27.2154 6.22506 28.3582 8.04522 28.6288 6.16044L29.1204 2.69637C29.5842 -0.592409 30.1538 -0.250614 25.5892 0.508554C24.9965 0.607131 24.4623 0.683212 23.8512 0.785657C23.3256 0.873703 22.4651 0.88144 22.4651 1.41466H22.4649Z" fill="#CA2421"/>
<path fill-rule="evenodd" clip-rule="evenodd" d="M17.166 14.0281H20.9723V29.0298H17.166V14.0281ZM16.1211 13.8042V29.2537C16.1211 29.5898 16.2623 30.0001 16.5689 30.0001H21.5695C21.8113 30.0001 22.0173 29.6758 22.0173 29.4029V13.6549C22.0173 13.3822 21.8113 13.0579 21.5695 13.0579H16.5689C16.2623 13.0579 16.1211 13.4682 16.1211 13.8042Z" fill="#CA2421"/>
<path fill-rule="evenodd" clip-rule="evenodd" d="M2.38862 23.3574H6.19499V29.0297H2.38862V23.3574ZM1.34375 22.9095V29.4775C1.34375 29.8259 1.51784 30 1.86622 30H6.64289C6.99134 30 7.16536 29.826 7.16536 29.4775V22.7603C7.16536 22.5185 6.84104 22.3125 6.56824 22.3125H1.94087C1.57988 22.3125 1.34375 22.5486 1.34375 22.9095Z" fill="#CA2421"/>
</svg>
