<svg width="16" height="14" viewBox="0 0 16 14" fill="none" xmlns="http://www.w3.org/2000/svg">
<path d="M14.7692 2.33333H11.6923V1.75C11.6923 1.28587 11.4978 0.840752 11.1516 0.512563C10.8054 0.184375 10.3358 0 9.84615 0H6.15385C5.66422 0 5.19464 0.184375 4.84842 0.512563C4.5022 0.840752 4.30769 1.28587 4.30769 1.75V2.33333H1.23077C0.904349 2.33333 0.591298 2.45625 0.360484 2.67504C0.12967 2.89383 0 3.19058 0 3.5V12.8333C0 13.1428 0.12967 13.4395 0.360484 13.6583C0.591298 13.8771 0.904349 14 1.23077 14H14.7692C15.0957 14 15.4087 13.8771 15.6395 13.6583C15.8703 13.4395 16 13.1428 16 12.8333V3.5C16 3.19058 15.8703 2.89383 15.6395 2.67504C15.4087 2.45625 15.0957 2.33333 14.7692 2.33333ZM5.53846 1.75C5.53846 1.59529 5.6033 1.44692 5.7187 1.33752C5.83411 1.22812 5.99064 1.16667 6.15385 1.16667H9.84615C10.0094 1.16667 10.1659 1.22812 10.2813 1.33752C10.3967 1.44692 10.4615 1.59529 10.4615 1.75V2.33333H5.53846V1.75ZM14.7692 3.5V8.75H1.23077V3.5H14.7692ZM14.7692 12.8333H1.23077V9.91667H14.7692V12.8333Z" fill="#6D6D6D"/>
</svg>
