<svg width="59" height="43" viewBox="0 0 59 43" fill="none" xmlns="http://www.w3.org/2000/svg">
<rect y="11" width="32" height="32" rx="5.33333" fill="#F5D7D7"/>
<path opacity="0.2" d="M53.651 3.33206V10.4252C52.7239 9.65054 51.6528 9.06683 50.4992 8.70771C49.3456 8.34859 48.1324 8.22114 46.9294 8.3327C45.7264 8.44425 44.5573 8.79261 43.4894 9.35773C42.4216 9.92284 41.476 10.6936 40.7072 11.6255C39.9383 12.5575 39.3613 13.6323 39.0095 14.7881C38.6576 15.9439 38.5378 17.1579 38.6569 18.3602C38.776 19.5625 39.1317 20.7293 39.7035 21.7936C40.2753 22.8579 41.052 23.7986 41.9887 24.5616V31.6548H15.3321C14.8902 31.6548 14.4664 31.4792 14.154 31.1668C13.8415 30.8544 13.666 30.4306 13.666 29.9887V3.33206C13.666 2.8902 13.8415 2.46643 14.154 2.15399C14.4664 1.84154 14.8902 1.66602 15.3321 1.66602H51.985C52.4268 1.66602 52.8506 1.84154 53.1631 2.15399C53.4755 2.46643 53.651 2.8902 53.651 3.33206Z" fill="#CA2421"/>
<path d="M33.6585 19.9925C33.6585 20.4344 33.483 20.8581 33.1706 21.1706C32.8581 21.483 32.4344 21.6585 31.9925 21.6585H21.9963C21.5544 21.6585 21.1306 21.483 20.8182 21.1706C20.5057 20.8581 20.3302 20.4344 20.3302 19.9925C20.3302 19.5506 20.5057 19.1269 20.8182 18.8144C21.1306 18.502 21.5544 18.3265 21.9963 18.3265H31.9925C32.4344 18.3265 32.8581 18.502 33.1706 18.8144C33.483 19.1269 33.6585 19.5506 33.6585 19.9925ZM31.9925 11.6623H21.9963C21.5544 11.6623 21.1306 11.8378 20.8182 12.1503C20.5057 12.4627 20.3302 12.8865 20.3302 13.3283C20.3302 13.7702 20.5057 14.194 20.8182 14.5064C21.1306 14.8188 21.5544 14.9944 21.9963 14.9944H31.9925C32.4344 14.9944 32.8581 14.8188 33.1706 14.5064C33.483 14.194 33.6585 13.7702 33.6585 13.3283C33.6585 12.8865 33.483 12.4627 33.1706 12.1503C32.8581 11.8378 32.4344 11.6623 31.9925 11.6623ZM55.3171 25.2968V38.319C55.3197 38.6127 55.2447 38.9019 55.0995 39.1572C54.9544 39.4126 54.7443 39.625 54.4906 39.773C54.2369 39.9211 53.9485 39.9993 53.6548 40C53.3611 40.0006 53.0724 39.9236 52.818 39.7768L47.8199 36.9153L42.8218 39.7768C42.5674 39.9236 42.2787 40.0006 41.985 40C41.6913 39.9993 41.4029 39.9211 41.1492 39.773C40.8955 39.625 40.6854 39.4126 40.5403 39.1572C40.3951 38.9019 40.3201 38.6127 40.3227 38.319V33.3208H15.3321C14.4484 33.3208 13.6008 32.9698 12.9759 32.3449C12.3511 31.72 12 30.8725 12 29.9888V3.33208C12 2.44836 12.3511 1.60083 12.9759 0.975945C13.6008 0.351058 14.4484 0 15.3321 0H51.985C52.8687 0 53.7163 0.351058 54.3412 0.975945C54.966 1.60083 55.3171 2.44836 55.3171 3.33208V9.69012C56.3703 10.6987 57.2084 11.91 57.781 13.251C58.3535 14.5921 58.6487 16.0352 58.6487 17.4934C58.6487 18.9516 58.3535 20.3948 57.781 21.7358C57.2084 23.0769 56.3703 24.2882 55.3171 25.2968ZM40.3227 29.9888V25.2968C38.5072 23.5458 37.3598 21.216 37.0785 18.7095C36.7972 16.2029 37.3997 13.6768 38.7821 11.567C40.1644 9.4572 42.2398 7.89612 44.6502 7.15312C47.0606 6.41012 49.6548 6.53181 51.985 7.49719V3.33208H15.3321V29.9888H40.3227ZM51.985 27.4897C50.6656 28.0409 49.2499 28.3248 47.8199 28.3248C46.39 28.3248 44.9742 28.0409 43.6548 27.4897V35.4492L46.9869 33.5416C47.2387 33.3977 47.5237 33.322 47.8137 33.322C48.1037 33.322 48.3887 33.3977 48.6404 33.5416L51.9725 35.4492L51.985 27.4897ZM55.3171 17.4934C55.3171 16.0106 54.8774 14.5611 54.0536 13.3282C53.2298 12.0953 52.0589 11.1344 50.689 10.5669C49.319 9.9995 47.8116 9.85103 46.3573 10.1403C44.903 10.4296 43.5671 11.1436 42.5186 12.1921C41.4701 13.2406 40.7561 14.5765 40.4668 16.0308C40.1775 17.4851 40.326 18.9926 40.8934 20.3625C41.4609 21.7324 42.4218 22.9033 43.6547 23.7271C44.8876 24.5509 46.3371 24.9906 47.8199 24.9906C48.8045 24.9906 49.7794 24.7967 50.689 24.4199C51.5986 24.0432 52.425 23.4909 53.1212 22.7948C53.8174 22.0986 54.3696 21.2721 54.7464 20.3625C55.1232 19.4529 55.3171 18.478 55.3171 17.4934Z" fill="#CA2421"/>
<circle cx="48" cy="18" r="5" fill="#FFAC33"/>
</svg>
