<svg width="17" height="15" viewBox="0 0 17 15" fill="none" xmlns="http://www.w3.org/2000/svg">
<path d="M7.58049 7.49738C7.58049 7.65203 7.51906 7.80035 7.4097 7.9097C7.30035 8.01906 7.15203 8.08049 6.99738 8.08049H3.49869C3.34404 8.08049 3.19572 8.01906 3.08636 7.9097C2.97701 7.80035 2.91557 7.65203 2.91557 7.49738C2.91557 7.34273 2.97701 7.19441 3.08636 7.08505C3.19572 6.9757 3.34404 6.91426 3.49869 6.91426H6.99738C7.15203 6.91426 7.30035 6.9757 7.4097 7.08505C7.51906 7.19441 7.58049 7.34273 7.58049 7.49738ZM6.99738 4.5818H3.49869C3.34404 4.5818 3.19572 4.64324 3.08636 4.75259C2.97701 4.86195 2.91557 5.01027 2.91557 5.16492C2.91557 5.31957 2.97701 5.46789 3.08636 5.57724C3.19572 5.6866 3.34404 5.74803 3.49869 5.74803H6.99738C7.15203 5.74803 7.30035 5.6866 7.4097 5.57724C7.51906 5.46789 7.58049 5.31957 7.58049 5.16492C7.58049 5.01027 7.51906 4.86195 7.4097 4.75259C7.30035 4.64324 7.15203 4.5818 6.99738 4.5818ZM15.161 9.35387V13.9116C15.1619 14.0144 15.1356 14.1157 15.0848 14.205C15.034 14.2944 14.9605 14.3688 14.8717 14.4206C14.7829 14.4724 14.682 14.4998 14.5792 14.5C14.4764 14.5002 14.3753 14.4733 14.2863 14.4219L12.537 13.4204L10.7876 14.4219C10.6986 14.4733 10.5976 14.5002 10.4948 14.5C10.3919 14.4998 10.291 14.4724 10.2022 14.4206C10.1134 14.3688 10.0399 14.2944 9.9891 14.205C9.93829 14.1157 9.91203 14.0144 9.91295 13.9116V12.1623H1.16623C0.856926 12.1623 0.560291 12.0394 0.341581 11.8207C0.12287 11.602 0 11.3054 0 10.9961V1.66623C0 1.35693 0.12287 1.06029 0.341581 0.841581C0.560291 0.62287 0.856926 0.5 1.16623 0.5H13.9948C14.3041 0.5 14.6007 0.62287 14.8194 0.841581C15.0381 1.06029 15.161 1.35693 15.161 1.66623V3.89154C15.5296 4.24453 15.8229 4.66849 16.0233 5.13787C16.2237 5.60725 16.3271 6.11234 16.3271 6.6227C16.3271 7.13307 16.2237 7.63816 16.0233 8.10754C15.8229 8.57692 15.5296 9.00088 15.161 9.35387ZM9.91295 10.9961V9.35387C9.27751 8.74104 8.87592 7.92562 8.77747 7.04832C8.67903 6.17101 8.88991 5.28687 9.37373 4.54844C9.85754 3.81002 10.5839 3.26364 11.4276 3.00359C12.2712 2.74354 13.1792 2.78613 13.9948 3.12402V1.66623H1.16623V10.9961H9.91295ZM13.9948 10.1214C13.533 10.3143 13.0374 10.4137 12.537 10.4137C12.0365 10.4137 11.541 10.3143 11.0792 10.1214V12.9072L12.2454 12.2396C12.3335 12.1892 12.4333 12.1627 12.5348 12.1627C12.6363 12.1627 12.736 12.1892 12.8242 12.2396L13.9904 12.9072L13.9948 10.1214ZM15.161 6.6227C15.161 6.10372 15.0071 5.5964 14.7188 5.16488C14.4304 4.73336 14.0206 4.39704 13.5411 4.19843C13.0617 3.99982 12.5341 3.94786 12.025 4.04911C11.516 4.15036 11.0485 4.40027 10.6815 4.76725C10.3145 5.13422 10.0646 5.60178 9.96337 6.11078C9.86212 6.61979 9.91409 7.1474 10.1127 7.62687C10.3113 8.10635 10.6476 8.51616 11.0791 8.80449C11.5107 9.09282 12.018 9.24672 12.537 9.24672C12.8816 9.24672 13.2228 9.17885 13.5411 9.04698C13.8595 8.91511 14.1488 8.72183 14.3924 8.47816C14.6361 8.2345 14.8294 7.94523 14.9612 7.62687C15.0931 7.30851 15.161 6.9673 15.161 6.6227Z" fill="#6D6D6D"/>
</svg>
