<svg width="38" height="32" viewBox="0 0 38 32" fill="none" xmlns="http://www.w3.org/2000/svg">
<path opacity="0.2" d="M33.32 2.66584V8.34038C32.5784 7.72062 31.7214 7.25366 30.7986 6.96637C29.8757 6.67907 28.9051 6.57711 27.9427 6.66635C26.9803 6.7556 26.0451 7.03428 25.1908 7.48638C24.3365 7.93847 23.58 8.55504 22.9649 9.30061C22.3499 10.0462 21.8883 10.906 21.6068 11.8307C21.3253 12.7553 21.2294 13.7265 21.3247 14.6883C21.42 15.6502 21.7046 16.5837 22.162 17.4351C22.6195 18.2865 23.2408 19.0391 23.9902 19.6495V25.324H2.66487C2.31138 25.324 1.97236 25.1836 1.72241 24.9336C1.47245 24.6837 1.33203 24.3447 1.33203 23.9912V2.66584C1.33203 2.31235 1.47245 1.97334 1.72241 1.72339C1.97236 1.47343 2.31138 1.33301 2.66487 1.33301H31.9872C32.3407 1.33301 32.6797 1.47343 32.9297 1.72339C33.1796 1.97334 33.32 2.31235 33.32 2.66584Z" fill="#CA2421"/>
<path d="M17.3268 15.994C17.3268 16.3475 17.1864 16.6865 16.9365 16.9365C16.6865 17.1864 16.3475 17.3268 15.994 17.3268H7.997C7.64351 17.3268 7.3045 17.1864 7.05455 16.9365C6.80459 16.6865 6.66417 16.3475 6.66417 15.994C6.66417 15.6405 6.80459 15.3015 7.05455 15.0515C7.3045 14.8016 7.64351 14.6612 7.997 14.6612H15.994C16.3475 14.6612 16.6865 14.8016 16.9365 15.0515C17.1864 15.3015 17.3268 15.6405 17.3268 15.994ZM15.994 9.32984H7.997C7.64351 9.32984 7.3045 9.47026 7.05455 9.72021C6.80459 9.97017 6.66417 10.3092 6.66417 10.6627C6.66417 11.0162 6.80459 11.3552 7.05455 11.6051C7.3045 11.8551 7.64351 11.9955 7.997 11.9955H15.994C16.3475 11.9955 16.6865 11.8551 16.9365 11.6051C17.1864 11.3552 17.3268 11.0162 17.3268 10.6627C17.3268 10.3092 17.1864 9.97017 16.9365 9.72021C16.6865 9.47026 16.3475 9.32984 15.994 9.32984ZM34.6537 20.2374V30.6552C34.6558 30.8901 34.5957 31.1215 34.4796 31.3258C34.3635 31.5301 34.1954 31.7 33.9925 31.8184C33.7895 31.9368 33.5588 31.9995 33.3238 32C33.0889 32.0005 32.8579 31.9389 32.6544 31.8214L28.6559 29.5323L24.6574 31.8214C24.4539 31.9389 24.223 32.0005 23.988 32C23.753 31.9995 23.5224 31.9368 23.3194 31.8184C23.1164 31.7 22.9483 31.5301 22.8322 31.3258C22.7161 31.1215 22.6561 30.8901 22.6582 30.6552V26.6567H2.66567C1.95869 26.6567 1.28067 26.3758 0.780756 25.8759C0.280846 25.376 0 24.698 0 23.991V2.66567C0 1.95869 0.280846 1.28067 0.780756 0.780756C1.28067 0.280846 1.95869 0 2.66567 0H31.988C32.695 0 33.373 0.280846 33.8729 0.780756C34.3728 1.28067 34.6537 1.95869 34.6537 2.66567V7.75209C35.4962 8.55893 36.1667 9.52797 36.6248 10.6008C37.0828 11.6737 37.319 12.8282 37.319 13.9948C37.319 15.1613 37.0828 16.3158 36.6248 17.3887C36.1667 18.4615 35.4962 19.4306 34.6537 20.2374ZM22.6582 23.991V20.2374C21.2057 18.8367 20.2878 16.9728 20.0628 14.9676C19.8378 12.9623 20.3198 10.9414 21.4257 9.25358C22.5315 7.56576 24.1919 6.31689 26.1202 5.72249C28.0485 5.12809 30.1238 5.22544 31.988 5.99775V2.66567H2.66567V23.991H22.6582ZM31.988 21.9918C30.9325 22.4328 29.7999 22.6598 28.6559 22.6598C27.512 22.6598 26.3794 22.4328 25.3238 21.9918V28.3594L27.9895 26.8333C28.1909 26.7181 28.4189 26.6576 28.6509 26.6576C28.8829 26.6576 29.1109 26.7181 29.3123 26.8333L31.978 28.3594L31.988 21.9918ZM34.6537 13.9948C34.6537 12.8085 34.3019 11.6489 33.6429 10.6626C32.9838 9.67626 32.0471 8.90751 30.9512 8.45355C29.8552 7.9996 28.6493 7.88082 27.4858 8.11225C26.3224 8.34367 25.2537 8.9149 24.4149 9.7537C23.5761 10.5925 23.0048 11.6612 22.7734 12.8246C22.542 13.9881 22.6608 15.194 23.1147 16.29C23.5687 17.3859 24.3374 18.3227 25.3238 18.9817C26.3101 19.6407 27.4697 19.9925 28.6559 19.9925C29.4436 19.9925 30.2235 19.8374 30.9512 19.536C31.6788 19.2345 32.34 18.7927 32.897 18.2358C33.4539 17.6789 33.8957 17.0177 34.1971 16.29C34.4985 15.5623 34.6537 14.7824 34.6537 13.9948Z" fill="#CA2421"/>
</svg>
