<svg width="129" height="129" viewBox="0 0 129 129" fill="none" xmlns="http://www.w3.org/2000/svg">
<g filter="url(#filter0_d_1873_20688)">
<rect x="24" y="20" width="81" height="81" rx="40.5" fill="#E64748"/>
<rect x="25.0125" y="21.0125" width="78.975" height="78.975" rx="39.4875" stroke="white" stroke-width="2.025"/>
<path d="M64.5008 44.3008C66.9472 44.3022 69.3615 44.8577 71.5626 45.9255C73.7637 46.9934 75.6943 48.5458 77.2096 50.4665C78.7249 52.3871 79.7856 54.626 80.312 57.0151C80.8384 59.4042 80.8168 61.8815 80.2489 64.2611C79.6811 66.6407 78.5816 68.8608 77.0331 70.7548C75.4846 72.6488 73.5273 74.1674 71.308 75.1968C69.0887 76.2262 66.665 76.7396 64.219 76.6985C61.7729 76.6573 59.3679 76.0627 57.1845 74.9593L56.9394 74.8277L49.5583 76.6704C49.4163 76.7061 49.2681 76.7106 49.1242 76.6835C48.9802 76.6564 48.8439 76.5984 48.7245 76.5135C48.6052 76.4286 48.5057 76.3189 48.4328 76.1918C48.36 76.0647 48.3157 75.9233 48.3028 75.7774V75.6113L48.3312 75.4433L50.1739 68.0642L50.0463 67.8212C49.122 65.996 48.5517 64.0124 48.3656 61.975L48.315 61.2014L48.3008 60.5008C48.3008 56.2043 50.0076 52.0837 53.0457 49.0457C56.0837 46.0076 60.2043 44.3008 64.5008 44.3008ZM65.5133 62.5258H59.4383L59.256 62.542C59.0226 62.5842 58.8114 62.7072 58.6593 62.8892C58.5072 63.0713 58.4239 63.301 58.4239 63.5383C58.4239 63.7755 58.5072 64.0052 58.6593 64.1873C58.8114 64.3694 59.0226 64.4923 59.256 64.5346L59.4383 64.5508H65.5133L65.6955 64.5346C65.929 64.4923 66.1402 64.3694 66.2922 64.1873C66.4443 64.0052 66.5276 63.7755 66.5276 63.5383C66.5276 63.301 66.4443 63.0713 66.2922 62.8892C66.1402 62.7072 65.929 62.5842 65.6955 62.542L65.5133 62.5258ZM69.5633 56.4508H59.4383L59.256 56.467C59.0226 56.5093 58.8114 56.6322 58.6593 56.8142C58.5072 56.9963 58.4239 57.226 58.4239 57.4633C58.4239 57.7005 58.5072 57.9302 58.6593 58.1123C58.8114 58.2944 59.0226 58.4173 59.256 58.4596L59.4383 58.4758H69.5633L69.7455 58.4596C69.979 58.4173 70.1902 58.2944 70.3422 58.1123C70.4943 57.9302 70.5776 57.7005 70.5776 57.4633C70.5776 57.226 70.4943 56.9963 70.3422 56.8142C70.1902 56.6322 69.979 56.5093 69.7455 56.467L69.5633 56.4508Z" fill="white"/>
</g>
<defs>
<filter id="filter0_d_1873_20688" x="0" y="0" width="129" height="129" filterUnits="userSpaceOnUse" color-interpolation-filters="sRGB">
<feFlood flood-opacity="0" result="BackgroundImageFix"/>
<feColorMatrix in="SourceAlpha" type="matrix" values="0 0 0 0 0 0 0 0 0 0 0 0 0 0 0 0 0 0 127 0" result="hardAlpha"/>
<feOffset dy="4"/>
<feGaussianBlur stdDeviation="12"/>
<feComposite in2="hardAlpha" operator="out"/>
<feColorMatrix type="matrix" values="0 0 0 0 0.901961 0 0 0 0 0.278431 0 0 0 0 0.282353 0 0 0 0.1 0"/>
<feBlend mode="normal" in2="BackgroundImageFix" result="effect1_dropShadow_1873_20688"/>
<feBlend mode="normal" in="SourceGraphic" in2="effect1_dropShadow_1873_20688" result="shape"/>
</filter>
</defs>
</svg>
