<svg width="57" height="53" viewBox="0 0 57 53" fill="none" xmlns="http://www.w3.org/2000/svg">
<rect y="20.5" width="32" height="32" rx="5.33333" fill="#F5D7D7"/>
<path fill-rule="evenodd" clip-rule="evenodd" d="M16.2137 3.71366C13 6.92457 13 12.096 13 22.4362V37.7532C13 40.1936 15.9532 41.4193 17.6806 39.6918L23.5678 33.8047C23.7652 33.6072 23.8639 33.5085 23.99 33.4564C24.1162 33.4043 24.256 33.4043 24.5385 33.4043H40.4203C45.5314 33.4043 48.087 33.4043 50.0996 32.568C52.7869 31.4554 54.9223 29.3211 56.0361 26.6343C56.8724 24.6189 56.8724 22.0633 56.8724 16.9522C56.8724 11.841 56.8724 9.28545 56.0361 7.27281C55.4855 5.94168 54.6781 4.73204 53.66 3.71298C52.6419 2.69392 51.433 1.88539 50.1024 1.33358C48.087 0.5 45.5314 0.5 40.4203 0.5H34.9362C24.596 0.5 19.4246 0.5 16.2137 3.71366Z" fill="#CA2421"/>
<path d="M25.3391 12.8394H44.5333H25.3391ZM25.3391 21.0654H39.0492H25.3391Z" fill="#CA2421"/>
<path d="M25.3391 12.8394H44.5333M25.3391 21.0654H39.0492" stroke="#FFB140" stroke-width="2" stroke-linecap="round" stroke-linejoin="round"/>
</svg>
