<svg width="8" height="8" viewBox="0 0 8 8" fill="none" xmlns="http://www.w3.org/2000/svg">
<path d="M8 4C8 2.6 8 1.9 7.7275 1.365C7.48782 0.894616 7.10538 0.51218 6.635 0.2725C6.1 2.98023e-08 5.4 0 4 0C2.6 0 1.9 2.98023e-08 1.365 0.2725C0.894616 0.51218 0.51218 0.894616 0.2725 1.365C2.98023e-08 1.9 0 2.6 0 4V7C0 7.4715 1.04308e-07 7.707 0.1465 7.8535C0.293 8 0.5285 8 1 8H4C5.4 8 6.1 8 6.635 7.7275C7.10538 7.48782 7.48782 7.10538 7.7275 6.635C8 6.1 8 5.4 8 4Z" fill="#CA2421"/>
<path d="M2.25 3.25H5.75M2.25 4.75H4.75" stroke="#FFB5B4" stroke-width="0.5" stroke-linecap="round" stroke-linejoin="round"/>
</svg>
