<svg width="18" height="16" viewBox="0 0 18 16" fill="none" xmlns="http://www.w3.org/2000/svg">
<path opacity="0.16" d="M9.55465 14.9999C13.4206 14.9999 16.5546 11.8659 16.5546 7.99996C16.5546 4.13399 13.4206 1 9.55465 1C5.68868 1 2.55469 4.13399 2.55469 7.99996C2.55469 11.8659 5.68868 14.9999 9.55465 14.9999Z" fill="#6D6D6D" fill-opacity="0.34"/>
<path d="M4.6049 12.9497C5.75013 14.0949 7.25706 14.8076 8.86888 14.9663C10.4807 15.1249 12.0977 14.7198 13.4442 13.8198C14.7908 12.9199 15.7836 11.5808 16.2535 10.0309C16.7234 8.48094 16.6413 6.81601 16.0212 5.31982C15.4011 3.82362 14.2813 2.58876 12.8527 1.82567C11.4242 1.06257 9.77518 0.818471 8.18679 1.13496C6.5984 1.45145 5.16891 2.30894 4.14192 3.56131C3.11492 4.81367 2.55398 6.38342 2.55469 8.00303V9.55546" fill="#6D6D6D" fill-opacity="0.34"/>
<path d="M4.6049 12.9497C5.75013 14.0949 7.25706 14.8076 8.86888 14.9663C10.4807 15.1249 12.0977 14.7198 13.4442 13.8198C14.7908 12.9199 15.7836 11.5808 16.2535 10.0309C16.7234 8.48094 16.6413 6.81601 16.0212 5.31982C15.4011 3.82362 14.2813 2.58876 12.8527 1.82567C11.4242 1.06257 9.77518 0.818471 8.18679 1.13496C6.5984 1.45145 5.16891 2.30894 4.14192 3.56131C3.11492 4.81367 2.55398 6.38342 2.55469 8.00303V9.55546" stroke="#6D6D6D" stroke-linecap="round" stroke-linejoin="round"/>
<path d="M1 8.00001L2.55555 9.55556L4.1111 8.00001M8.77774 4.88892V8.77779H12.6666" fill="#6D6D6D" fill-opacity="0.34"/>
<path d="M1 8.00001L2.55555 9.55556L4.1111 8.00001M8.77774 4.88892V8.77779H12.6666" stroke="#6D6D6D" stroke-linecap="round" stroke-linejoin="round"/>
</svg>
