<svg width="17" height="15" viewBox="0 0 17 15" fill="none" xmlns="http://www.w3.org/2000/svg">
<path d="M1.75774 1.55883L1.75804 1.55852C2.25168 1.06447 2.91433 0.78936 3.97891 0.646178C5.05787 0.501063 6.47238 0.5 8.4253 0.5H10.4818C11.447 0.5 12.1459 0.50027 12.6986 0.537918C13.2467 0.575255 13.6145 0.647682 13.9213 0.77456C14.3596 0.956333 14.7577 1.22263 15.093 1.55826L15.4395 1.21208L15.093 1.55826C15.4284 1.89395 15.6944 2.29242 15.8757 2.73091L15.876 2.73166C16.0032 3.03773 16.0759 3.40502 16.1133 3.95305C16.1511 4.50556 16.1514 5.20437 16.1514 6.16956C16.1514 7.13475 16.1511 7.83356 16.1133 8.3862C16.0759 8.93434 16.0032 9.302 15.8759 9.60871L15.8759 9.60888C15.509 10.4939 14.8056 11.197 13.9203 11.5635L13.9197 11.5638C13.6136 11.691 13.2464 11.7636 12.6983 11.8011C12.1458 11.8389 11.447 11.8391 10.4818 11.8391H4.52614C4.5201 11.8391 4.51315 11.839 4.50538 11.839C4.4294 11.8381 4.27507 11.8364 4.12961 11.8965C3.98363 11.9568 3.8755 12.0674 3.82289 12.1212C3.81754 12.1266 3.81276 12.1315 3.80858 12.1357L1.60091 14.3434L1.95446 14.6969L1.60091 14.3434C1.2684 14.6759 0.699219 14.4401 0.699219 13.9699V8.22608C0.699219 6.27316 0.700281 4.85865 0.845397 3.7797C0.988579 2.71511 1.26369 2.05246 1.75774 1.55883Z" fill="#CA2421" fill-opacity="0.24" stroke="#CA2421"/>
<path d="M4.82617 4.62695H12.024H4.82617ZM4.82617 7.71173H9.96747H4.82617Z" fill="#CA2421" fill-opacity="0.24"/>
<path d="M4.82617 4.62695H12.024M4.82617 7.71173H9.96747" stroke="#CA2421" stroke-linecap="round" stroke-linejoin="round"/>
</svg>
