<svg width="6" height="16" viewBox="0 0 6 16" fill="none" xmlns="http://www.w3.org/2000/svg">
<path opacity="0.2" d="M2.26172 3.26929C2.26172 2.87146 2.41975 2.48993 2.70106 2.20863C2.98236 1.92732 3.36389 1.76929 3.76172 1.76929C4.15954 1.76929 4.54107 1.92732 4.82238 2.20863C5.10368 2.48993 5.26172 2.87146 5.26172 3.26929V14.2693C5.26172 14.6671 5.10368 15.0486 4.82238 15.3299C4.54107 15.6113 4.15954 15.7693 3.76172 15.7693C3.36389 15.7693 2.98236 15.6113 2.70106 15.3299C2.41975 15.0486 2.26172 14.6671 2.26172 14.2693V3.26929Z" fill="black"/>
<path d="M0.261719 12.0193C0.261719 11.6878 0.393415 11.3698 0.627835 11.1354C0.862256 10.901 1.1802 10.7693 1.51172 10.7693C1.84324 10.7693 2.16118 10.901 2.3956 11.1354C2.63002 11.3698 2.76172 11.6878 2.76172 12.0193C2.76172 12.3508 2.63002 12.6688 2.3956 12.9032C2.16118 13.1376 1.84324 13.2693 1.51172 13.2693C1.1802 13.2693 0.862256 13.1376 0.627835 12.9032C0.393415 12.6688 0.261719 12.3508 0.261719 12.0193ZM0.261719 7.01929C0.261719 6.68777 0.393415 6.36982 0.627835 6.1354C0.862256 5.90098 1.1802 5.76929 1.51172 5.76929C1.84324 5.76929 2.16118 5.90098 2.3956 6.1354C2.63002 6.36982 2.76172 6.68777 2.76172 7.01929C2.76172 7.35081 2.63002 7.66875 2.3956 7.90317C2.16118 8.13759 1.84324 8.26929 1.51172 8.26929C1.1802 8.26929 0.862256 8.13759 0.627835 7.90317C0.393415 7.66875 0.261719 7.35081 0.261719 7.01929ZM0.261719 2.01929C0.261719 1.68777 0.393415 1.36982 0.627835 1.1354C0.862256 0.900983 1.1802 0.769287 1.51172 0.769287C1.84324 0.769287 2.16118 0.900983 2.3956 1.1354C2.63002 1.36982 2.76172 1.68777 2.76172 2.01929C2.76172 2.35081 2.63002 2.66875 2.3956 2.90317C2.16118 3.13759 1.84324 3.26929 1.51172 3.26929C1.1802 3.26929 0.862256 3.13759 0.627835 2.90317C0.393415 2.66875 0.261719 2.35081 0.261719 2.01929Z" fill="black"/>
</svg>
