<svg width="16" height="14" viewBox="0 0 16 14" fill="none" xmlns="http://www.w3.org/2000/svg">
<path d="M14.5 13H1.5C0.67 13 0 12.33 0 11.5V2.5C0 1.67 0.67 1 1.5 1H14.5C15.33 1 16 1.67 16 2.5V11.5C16 12.33 15.33 13 14.5 13ZM1.5 2C1.22 2 1 2.22 1 2.5V11.5C1 11.78 1.22 12 1.5 12H14.5C14.78 12 15 11.78 15 11.5V2.5C15 2.22 14.78 2 14.5 2H1.5Z" fill="#6D6D6D"/>
<path d="M7.99943 8.96012C7.29944 8.96012 6.65943 8.68012 6.17943 8.17012L0.929435 2.59012C0.739435 2.39012 0.749435 2.07012 0.949435 1.88012C1.14944 1.69012 1.46943 1.70012 1.65943 1.90012L6.90943 7.48012C7.47943 8.09012 8.51944 8.09012 9.08944 7.48012L14.3394 1.91012C14.5294 1.71012 14.8494 1.70012 15.0494 1.89012C15.2494 2.08012 15.2594 2.40012 15.0694 2.60012L9.81944 8.18012C9.33944 8.69012 8.69943 8.97012 7.99943 8.97012V8.96012Z" fill="#6D6D6D"/>
</svg>
