<svg width="20" height="12" viewBox="0 0 20 12" fill="none" xmlns="http://www.w3.org/2000/svg">
<path d="M0.75 0.28125C0.551088 0.28125 0.360322 0.360268 0.21967 0.50092C0.0790175 0.641572 0 0.832338 0 1.03125C0 1.23016 0.0790175 1.42093 0.21967 1.56158C0.360322 1.70223 0.551088 1.78125 0.75 1.78125H19.25C19.4489 1.78125 19.6397 1.70223 19.7803 1.56158C19.921 1.42093 20 1.23016 20 1.03125C20 0.832338 19.921 0.641572 19.7803 0.50092C19.6397 0.360268 19.4489 0.28125 19.25 0.28125H0.75ZM4 6.03125C4 5.83234 4.07902 5.64157 4.21967 5.50092C4.36032 5.36027 4.55109 5.28125 4.75 5.28125H15.25C15.4489 5.28125 15.6397 5.36027 15.7803 5.50092C15.921 5.64157 16 5.83234 16 6.03125C16 6.23016 15.921 6.42093 15.7803 6.56158C15.6397 6.70223 15.4489 6.78125 15.25 6.78125H4.75C4.55109 6.78125 4.36032 6.70223 4.21967 6.56158C4.07902 6.42093 4 6.23016 4 6.03125ZM8 10.9692C8 10.7703 8.07902 10.5796 8.21967 10.4389C8.36032 10.2983 8.55109 10.2192 8.75 10.2192H11.25C11.4489 10.2192 11.6397 10.2983 11.7803 10.4389C11.921 10.5796 12 10.7703 12 10.9692C12 11.1682 11.921 11.3589 11.7803 11.4996C11.6397 11.6402 11.4489 11.7192 11.25 11.7192H8.75C8.55109 11.7192 8.36032 11.6402 8.21967 11.4996C8.07902 11.3589 8 11.1682 8 10.9692Z" fill="#CA2421"/>
</svg>
