<svg width="14" height="14" viewBox="0 0 14 14" fill="none" xmlns="http://www.w3.org/2000/svg">
<path fill-rule="evenodd" clip-rule="evenodd" d="M5.99029 3.53578C6.33231 3.60027 6.65296 3.74873 6.92341 3.96782C7.19386 4.18691 7.40563 4.46977 7.5397 4.79096C7.67377 5.11216 7.72594 5.46164 7.69151 5.80799C7.65708 6.15434 7.53713 6.48671 7.34245 6.77522L12.7223 10.9511C12.8976 10.8603 13.0983 10.8315 13.292 10.8692C13.4857 10.9068 13.661 11.0089 13.7894 11.1588C13.9177 11.3086 13.9917 11.4975 13.9992 11.6947C14.0067 11.8919 13.9474 12.0858 13.8308 12.245C13.7142 12.4042 13.5472 12.5194 13.3569 12.5717C13.1667 12.624 12.9643 12.6105 12.7827 12.5334C12.6011 12.4562 12.4509 12.3199 12.3565 12.1466C12.2621 11.9733 12.229 11.7732 12.2627 11.5788L6.79101 7.33133C6.53335 7.5079 6.23954 7.62477 5.931 7.67342C5.62245 7.72208 5.30694 7.70129 5.00745 7.61257C4.70796 7.52385 4.43203 7.36944 4.19977 7.16059C3.9675 6.95174 3.78475 6.6937 3.66483 6.40528C3.54492 6.11686 3.49085 5.80532 3.50657 5.49336C3.52229 5.1814 3.6074 4.87688 3.75571 4.60197C3.90402 4.32707 4.11178 4.08872 4.36386 3.90427C4.61595 3.71982 4.906 3.59394 5.2129 3.53578L5.21212 0H5.9899L5.99029 3.53578ZM6.30101 5.6C6.30101 5.69193 6.2829 5.78295 6.24772 5.86788C6.21255 5.95281 6.16098 6.02997 6.09598 6.09497C6.03098 6.15998 5.95381 6.21154 5.86889 6.24672C5.78396 6.28189 5.69293 6.3 5.60101 6.3C5.50908 6.3 5.41806 6.28189 5.33313 6.24672C5.2482 6.21154 5.17103 6.15998 5.10603 6.09497C5.04103 6.02997 4.98947 5.95281 4.95429 5.86788C4.91911 5.78295 4.90101 5.69193 4.90101 5.6C4.90101 5.41435 4.97476 5.2363 5.10603 5.10503C5.23731 4.97375 5.41536 4.9 5.60101 4.9C5.78666 4.9 5.96471 4.97375 6.09598 5.10503C6.22726 5.2363 6.30101 5.41435 6.30101 5.6Z" fill="#828282"/>
<path d="M8.41011 5.59382C8.41028 5.05588 8.25549 4.52927 7.96424 4.07699C7.673 3.62471 7.25764 3.26591 6.76783 3.04348V0.0412598C8.43578 0.187871 9.30222 0.71326 10.0781 1.43232C10.1172 1.46887 10.1556 1.50426 10.1932 1.53848C10.5237 1.84182 10.7866 2.0837 10.9223 2.44537L12.5689 6.82893C12.6129 6.94658 12.6278 7.07316 12.6122 7.19782C12.5967 7.32248 12.5512 7.44151 12.4796 7.54475C12.408 7.64798 12.3125 7.73234 12.2012 7.79061C12.0899 7.84887 11.9661 7.87931 11.8405 7.87931H11.2062V8.78893L8.26039 6.50148C8.36009 6.2094 8.41081 5.90284 8.4105 5.5942M4.4345 3.05126V0.0937599C0.938389 0.619927 0 3.2282 0 4.65698C0 6.8997 1.43228 8.6392 2.10389 9.33648V14H8.75856V11.4676H10.4281C10.5455 11.4676 10.6575 11.4411 10.7571 11.3945L6.64067 8.19781C5.96031 8.47858 5.19676 8.48017 4.51524 8.20224C3.83372 7.9243 3.28904 7.38921 2.99905 6.71273C2.70906 6.03625 2.6971 5.27279 2.96574 4.58756C3.23438 3.90232 3.76202 3.35041 4.4345 3.05126Z" fill="#828282"/>
</svg>
