<svg width="10" height="14" viewBox="0 0 10 14" fill="none" xmlns="http://www.w3.org/2000/svg">
<path fill-rule="evenodd" clip-rule="evenodd" d="M4.89993 0C2.00683 0 0.559929 0 0.138529 0.91C0.10231 0.988398 0.0718953 1.06935 0.0475292 1.1522C-0.239471 2.1231 0.783929 3.2487 2.82933 5.4992L4.19993 7H5.59993L6.97053 5.4999C9.01593 3.2487 10.0386 2.1231 9.75233 1.1529C9.72806 1.06956 9.69765 0.988138 9.66133 0.9093C9.23993 0 7.79303 0 4.89993 0Z" fill="#333333"/>
<path opacity="0.5" d="M0.138345 13.09C0.559745 14 2.00665 14 4.89975 14C7.79285 14 9.23975 14 9.66115 13.09C9.69739 13.0116 9.72781 12.9307 9.75214 12.8478C10.0391 11.8769 9.01575 10.7513 6.97035 8.5008L5.59975 7H4.19975L2.82915 8.5001C0.783745 10.7513 -0.238955 11.8769 0.0473452 12.8471C0.0718452 12.9311 0.101945 13.0116 0.138345 13.09Z" fill="#333333"/>
</svg>
