<svg width="15" height="16" viewBox="0 0 15 16" fill="none" xmlns="http://www.w3.org/2000/svg">
<path d="M1 9.4V6.6C1 3.9603 1 2.6401 1.8204 1.8204C2.6401 1 3.9603 1 6.6 1H8C10.6397 1 11.9599 1 12.7796 1.8204C13.2374 2.2775 13.4397 2.89 13.5286 3.8M13.6 6.6V9.4C13.6 12.0397 13.6 13.3599 12.7796 14.1796C11.9599 15 10.6397 15 8 15H6.6C3.9603 15 2.6401 15 1.8204 14.1796C1.3626 13.7225 1.1603 13.11 1.0714 12.2M4.5 9.4H8M4.5 6.6H5.2M10.1 6.6H7.3" stroke="#2684FF" stroke-width="1.5" stroke-linecap="round"/>
</svg>
