<svg width="13" height="14" viewBox="0 0 13 14" fill="none" xmlns="http://www.w3.org/2000/svg">
<path opacity="0.5" d="M4.44297 3.5C4.44297 2.31 5.35297 1.4 6.54297 1.4C7.73297 1.4 8.64297 2.31 8.64297 3.5V4.9H10.043V3.5C10.043 1.54 8.50297 0 6.54297 0C4.58297 0 3.04297 1.54 3.04297 3.5V4.9H4.44297V3.5ZM7.59297 8.75C7.59297 8.19 7.10297 7.7 6.54297 7.7C5.98297 7.7 5.49297 8.19 5.49297 8.75C5.49297 9.03 5.63297 9.31 5.84297 9.52V10.5C5.84297 10.92 6.12297 11.2 6.54297 11.2C6.96297 11.2 7.24297 10.92 7.24297 10.5V9.52C7.45297 9.31 7.59297 9.03 7.59297 8.75Z" fill="#C8CAC8"/>
<path d="M10.0434 4.8999H3.04336C1.85336 4.8999 0.943359 5.8099 0.943359 6.9999V11.8999C0.943359 13.0899 1.85336 13.9999 3.04336 13.9999H10.0434C11.2334 13.9999 12.1434 13.0899 12.1434 11.8999V6.9999C12.1434 5.8099 11.2334 4.8999 10.0434 4.8999ZM7.24336 9.5199V10.4999C7.24336 10.9199 6.96336 11.1999 6.54336 11.1999C6.12336 11.1999 5.84336 10.9199 5.84336 10.4999V9.5199C5.63336 9.3099 5.49336 9.0299 5.49336 8.7499C5.49336 8.1899 5.98336 7.6999 6.54336 7.6999C7.10336 7.6999 7.59336 8.1899 7.59336 8.7499C7.59336 9.0299 7.45336 9.3099 7.24336 9.5199Z" fill="#C8CAC8"/>
</svg>
