<svg width="12" height="14" viewBox="0 0 12 14" fill="none" xmlns="http://www.w3.org/2000/svg">
<path opacity="0.5" d="M3.49961 3.5C3.49961 2.31 4.40961 1.4 5.59961 1.4C6.78961 1.4 7.69961 2.31 7.69961 3.5V4.9H9.09961V3.5C9.09961 1.54 7.55961 0 5.59961 0C3.63961 0 2.09961 1.54 2.09961 3.5V4.9H3.49961V3.5ZM6.64961 8.75C6.64961 8.19 6.15961 7.7 5.59961 7.7C5.03961 7.7 4.54961 8.19 4.54961 8.75C4.54961 9.03 4.68961 9.31 4.89961 9.52V10.5C4.89961 10.92 5.17961 11.2 5.59961 11.2C6.01961 11.2 6.29961 10.92 6.29961 10.5V9.52C6.50961 9.31 6.64961 9.03 6.64961 8.75Z" fill="#C8CAC8"/>
<path d="M9.1 4.90002H2.1C0.91 4.90002 0 5.81002 0 7.00002V11.9C0 13.09 0.91 14 2.1 14H9.1C10.29 14 11.2 13.09 11.2 11.9V7.00002C11.2 5.81002 10.29 4.90002 9.1 4.90002ZM6.3 9.52002V10.5C6.3 10.92 6.02 11.2 5.6 11.2C5.18 11.2 4.9 10.92 4.9 10.5V9.52002C4.69 9.31002 4.55 9.03002 4.55 8.75002C4.55 8.19002 5.04 7.70002 5.6 7.70002C6.16 7.70002 6.65 8.19002 6.65 8.75002C6.65 9.03002 6.51 9.31002 6.3 9.52002Z" fill="#C8CAC8"/>
</svg>
