<svg width="46" height="45" viewBox="0 0 46 45" fill="none" xmlns="http://www.w3.org/2000/svg">
<rect y="12.5" width="32" height="32" rx="5.33333" fill="#F5D7D7"/>
<g clip-path="url(#clip0_1755_20079)">
<path d="M27.6318 9.74338L23.3495 4.55338C23.1601 4.32412 22.8874 4.17944 22.5914 4.1511C22.2953 4.12277 22.0001 4.21311 21.7706 4.40227L18.0195 7.49671L23.7284 14.4167L27.4795 11.3223C27.9584 10.9278 28.0262 10.2212 27.6318 9.74338Z" fill="#CCD6DD"/>
<path d="M38.8251 28.301L31.9051 22.5921C31.9051 22.5921 29.244 26.0721 26.3428 29.4277C24.1362 31.981 19.5728 31.8888 17.0028 29.3188C14.4328 26.7488 14.3417 22.1855 16.894 19.9788C20.2495 17.0777 23.7295 14.4166 23.7295 14.4166L18.0206 7.49658C18.0206 7.49658 12.3295 11.861 10.6728 13.5299C4.59729 19.6499 4.57618 29.5499 10.674 35.6477C16.7717 41.7455 26.6717 41.7232 32.7917 35.6488C34.4606 33.9921 38.8251 28.301 38.8251 28.301Z" fill="#BE1931"/>
<path d="M36.5786 18.6901L41.7686 22.9723C42.2464 23.3668 42.3142 24.0734 41.9197 24.5512L38.8253 28.3023L31.9053 22.5934L34.9997 18.8423C35.0934 18.7286 35.2085 18.6345 35.3385 18.5653C35.4686 18.496 35.611 18.4531 35.7576 18.439C35.9042 18.4249 36.0522 18.4398 36.1931 18.4829C36.334 18.5259 36.465 18.5964 36.5786 18.6901Z" fill="#CCD6DD"/>
<path d="M32.3523 5.19216L30.4001 3.19994L32.5512 1.09438C32.5578 1.08772 32.5556 1.07772 32.5612 1.07105C32.579 1.04994 32.5845 1.02772 32.5912 1.00105C32.599 0.974383 32.6056 0.95216 32.6023 0.925494C32.6012 0.916605 32.6078 0.908827 32.6067 0.899938C32.6023 0.881049 32.5845 0.873271 32.5756 0.857716C32.5667 0.839938 32.5701 0.818827 32.5556 0.804383C32.549 0.797716 32.539 0.799938 32.5312 0.794383C32.509 0.776605 32.4845 0.771049 32.4567 0.763272C32.4323 0.756605 32.4112 0.749938 32.3867 0.75216C32.3778 0.753272 32.369 0.745494 32.3601 0.747716L26.6534 2.14438C26.6183 2.15331 26.5861 2.17122 26.56 2.19635C26.5339 2.22148 26.5148 2.25296 26.5045 2.28772C26.4948 2.32261 26.4943 2.35945 26.5033 2.39455C26.5123 2.42966 26.5303 2.46178 26.5556 2.48772L28.5078 4.48105L26.3579 6.58772C26.3512 6.59438 26.3534 6.60438 26.3478 6.61105C26.3301 6.63216 26.3245 6.65549 26.3167 6.68216C26.309 6.70883 26.3023 6.72994 26.3056 6.7566C26.3067 6.76549 26.299 6.77327 26.3012 6.78327C26.3078 6.81105 26.3267 6.83105 26.3434 6.85216C26.349 6.85994 26.3467 6.86994 26.3534 6.87772L26.3656 6.88994C26.4123 6.92994 26.4712 6.93883 26.529 6.92994C26.5367 6.92883 26.5412 6.9366 26.549 6.93438L32.2534 5.53772C32.2885 5.52853 32.3206 5.51036 32.3465 5.48501C32.3724 5.45965 32.3913 5.42798 32.4013 5.39311C32.4113 5.35825 32.412 5.32138 32.4034 5.28614C32.3948 5.25091 32.3772 5.21852 32.3523 5.19216ZM45.809 17.2833L43.5256 15.6799L45.2556 13.2166C45.2612 13.2088 45.2567 13.1999 45.2612 13.1922C45.2745 13.1677 45.2756 13.1455 45.2778 13.1177C45.2801 13.0899 45.2834 13.0677 45.2756 13.041C45.2734 13.0322 45.279 13.0244 45.2745 13.0155C45.2667 12.9977 45.2478 12.9933 45.2367 12.9788C45.2245 12.9633 45.2234 12.9433 45.2067 12.931C45.199 12.9255 45.189 12.9299 45.1812 12.9255C45.1556 12.9122 45.1312 12.911 45.1023 12.9088C45.0767 12.9066 45.0545 12.9044 45.0312 12.911C45.0223 12.9133 45.0134 12.9077 45.0045 12.9122L39.6501 15.3266C39.6172 15.3417 39.5888 15.3651 39.5678 15.3945C39.5467 15.424 39.5337 15.4584 39.5301 15.4944C39.5272 15.5305 39.5337 15.5667 39.5488 15.5996C39.564 15.6325 39.5874 15.6609 39.6167 15.6822L41.9001 17.2855L40.1712 19.7488C40.1656 19.7566 40.1701 19.7655 40.1656 19.7733C40.1523 19.7977 40.1512 19.821 40.149 19.8488C40.1467 19.8755 40.1434 19.8988 40.1512 19.9244C40.1534 19.9333 40.1479 19.9422 40.1523 19.951C40.1645 19.9766 40.1867 19.9933 40.2067 20.011C40.2134 20.0177 40.2134 20.0277 40.2212 20.0333L40.2356 20.0422C40.2611 20.0562 40.2895 20.0642 40.3185 20.0658C40.3476 20.0673 40.3766 20.0623 40.4034 20.051C40.4101 20.0488 40.4167 20.0555 40.4234 20.0522L45.7767 17.6366C45.8096 17.6215 45.838 17.5981 45.859 17.5687C45.8801 17.5392 45.8931 17.5048 45.8967 17.4688C45.8988 17.433 45.8918 17.3973 45.8765 17.3649C45.8612 17.3324 45.8379 17.3044 45.809 17.2833Z" fill="#FFAC33"/>
</g>
<defs>
<clipPath id="clip0_1755_20079">
<rect width="40" height="40" fill="white" transform="translate(6 0.5)"/>
</clipPath>
</defs>
</svg>
