<svg width="23" height="16" viewBox="0 0 23 16" fill="none" xmlns="http://www.w3.org/2000/svg">
<path fill-rule="evenodd" clip-rule="evenodd" d="M2.83871 0C2.08584 0 1.3638 0.299077 0.831439 0.831439C0.299078 1.3638 0 2.08584 0 2.83871V13.1613C0 13.9142 0.299078 14.6362 0.831439 15.1686C1.3638 15.7009 2.08584 16 2.83871 16H19.3548C20.1077 16 20.8297 15.7009 21.3621 15.1686C21.8945 14.6362 22.1935 13.9142 22.1935 13.1613V2.83871C22.1935 2.08584 21.8945 1.3638 21.3621 0.831439C20.8297 0.299077 20.1077 0 19.3548 0H2.83871ZM6.37935 4.26942C6.21108 4.15961 6.0067 4.11953 5.80941 4.15764C5.61212 4.19575 5.43738 4.30908 5.32212 4.47367C5.20685 4.63826 5.16009 4.84121 5.19172 5.03964C5.22335 5.23807 5.33089 5.41644 5.49161 5.53703L10.6529 9.14994C10.783 9.24098 10.938 9.28981 11.0968 9.28981C11.2556 9.28981 11.4105 9.24098 11.5406 9.14994L16.7019 5.53703C16.7889 5.4803 16.8635 5.40667 16.9214 5.32052C16.9793 5.23436 17.0193 5.13744 17.039 5.03553C17.0587 4.93361 17.0577 4.82877 17.036 4.72725C17.0144 4.62572 16.9725 4.52959 16.913 4.44456C16.8534 4.35954 16.7774 4.28735 16.6894 4.23231C16.6014 4.17726 16.5032 4.14047 16.4007 4.12413C16.2982 4.10779 16.1935 4.11223 16.0927 4.13719C15.9919 4.16215 15.8972 4.20712 15.8142 4.26942L11.0968 7.57161L6.37935 4.26942Z" fill="#CA2421"/>
</svg>
