<svg width="19" height="18" viewBox="0 0 19 18" fill="none" xmlns="http://www.w3.org/2000/svg">
<path fill-rule="evenodd" clip-rule="evenodd" d="M16.7249 17.3089H2.0003C1.80485 17.3089 1.60669 17.2364 1.47615 17.1757L1.07396 16.8942L0.92483 16.7102C0.771645 16.4899 0.675825 16.2163 0.675825 15.9261V13.8615C6.46705 13.8615 12.2582 13.8615 18.0493 13.8615V15.8872C18.0493 16.1233 18.007 16.2968 17.9386 16.4581C17.8573 16.6496 17.7438 16.8126 17.5878 16.9448C17.4539 17.0583 17.4833 17.057 17.2768 17.1597C17.1247 17.2353 16.9247 17.3089 16.7249 17.3089ZM2.99362 12.0501C2.99362 11.6018 3.08642 11.2586 3.28656 10.9212C3.31556 10.8724 3.34901 10.8284 3.38293 10.7839C3.50481 10.6238 3.57354 10.5564 3.7396 10.4199C3.98868 10.2152 4.44728 10.0245 4.78551 10.0245C5.07742 10.0245 5.15663 10.0074 5.44497 10.0898L5.68968 10.1745C5.76747 10.2064 5.70533 10.1795 5.77009 10.2126C5.92192 10.2901 5.99327 10.3456 6.10991 10.4331C6.21613 10.5128 6.41826 10.7276 6.49589 10.8463C6.7085 11.1714 6.83062 11.4942 6.83062 11.8941V13.1797H2.99362V12.05V12.0501ZM2.33138 13.1798H1.12378V4.34129C1.12378 3.82699 1.1844 3.547 1.52811 3.26129C1.61257 3.19113 1.71975 3.12272 1.83631 3.08284C2.11765 2.98654 2.4125 3.01284 2.76344 3.01284C4.0737 3.01284 5.38387 3.01284 6.69412 3.01284C6.69651 3.01745 6.69992 3.01936 6.70088 3.02682C6.70175 3.03429 6.70604 3.03763 6.70731 3.04081L6.88902 3.67778C6.9533 3.84407 7.04943 4.03635 7.1617 4.18437C7.17243 4.19851 7.17942 4.20916 7.19316 4.22862L7.68649 4.75079C7.80304 4.85344 7.96266 4.95927 8.1052 5.03205L8.13229 5.04516C8.30685 5.13057 8.47561 5.20581 8.66343 5.25293C8.67901 5.25682 8.78142 5.28177 8.78937 5.2836C9.36174 5.41493 10.1012 5.3354 10.5977 5.04476C10.8886 4.87449 11.1563 4.67864 11.3742 4.42074C11.4027 4.38705 11.4223 4.37434 11.4498 4.34041C11.5403 4.22839 11.6263 4.09022 11.6991 3.96627C11.8291 3.745 11.9861 3.31722 12.0114 3.01276L16.4371 3.01268C16.6126 3.01197 16.6984 3.02992 16.8591 3.07473C17.0445 3.12638 17.1603 3.22736 17.3076 3.36807C17.5647 3.61342 17.6013 3.95221 17.6013 4.29902V12.1862C17.6013 12.4172 17.5683 13.0141 17.6207 13.1991C17.4405 13.1481 15.4459 13.1797 15.0896 13.1797C12.5638 13.1797 10.038 13.1797 7.51217 13.1797C7.51217 12.7378 7.565 11.6999 7.41507 11.2564L7.40459 11.227C7.35636 11.0757 7.31354 10.9132 7.23146 10.7742L6.65106 10.0126C6.62762 9.99108 6.64057 10.0014 6.61912 9.98338C6.59497 9.96312 6.59163 9.96367 6.5635 9.94063L6.01925 9.59247C5.99335 9.5796 5.97643 9.56967 5.95458 9.55997L5.65742 9.4481C4.9503 9.2517 4.26502 9.35014 3.64258 9.68019C3.56337 9.72222 3.47923 9.78244 3.40725 9.83337C3.40272 9.83663 3.39017 9.84585 3.38564 9.8491L3.29363 9.91545C3.01666 10.1231 2.7288 10.4905 2.58436 10.8033C2.47686 11.0361 2.37969 11.314 2.35204 11.5874C2.30715 12.0313 2.3313 12.6595 2.3313 13.1797L2.33138 13.1798ZM9.47949 4.66832C9.16875 4.66832 9.03098 4.67157 8.72199 4.5717L8.65263 4.54437C8.58311 4.51402 8.53806 4.49916 8.47275 4.46921L8.12745 4.25143L7.80439 3.93155C7.79136 3.91495 7.79883 3.92289 7.77905 3.89874L7.461 3.29855C7.1818 2.44523 7.49349 1.57213 8.18243 1.05346L8.48753 0.870162C8.97386 0.653098 9.55354 0.59613 10.0624 0.797939L10.1437 0.831707C10.3022 0.905041 10.4754 0.992758 10.6083 1.1086C10.8615 1.32948 11.051 1.5378 11.1909 1.86602C11.2968 2.11455 11.3593 2.40336 11.3609 2.67143C11.3632 3.09261 11.2112 3.57433 10.9357 3.9043C10.8049 4.06082 10.7309 4.13678 10.5644 4.27312L10.3527 4.4116C10.3201 4.43075 10.3051 4.44164 10.2666 4.46126L10.1859 4.4959C9.95764 4.58521 9.76719 4.66847 9.47941 4.66847L9.47949 4.66832ZM6.71375 2.35052C6.1625 2.35052 2.18685 2.32121 1.93896 2.36419C1.66437 2.41178 1.39749 2.50768 1.17892 2.6785C1.03058 2.79443 0.891063 2.92298 0.783881 3.07926L0.768466 3.10214C0.42674 3.5969 0.442155 4.04104 0.442155 4.63304C0.442155 7.48197 0.442155 10.3309 0.442155 13.1798C0.244795 13.1798 0.20904 13.1843 0.105434 13.291C-0.00333669 13.4031 0.013348 13.4472 0.0136658 13.6503C0.0146987 14.285 -0.0368656 15.9279 0.0538693 16.3556C0.090338 16.5273 0.144842 16.6916 0.228108 16.8447L0.497215 17.2546C0.513185 17.2756 0.527964 17.2924 0.554898 17.3165C0.57349 17.3332 0.565465 17.3241 0.586361 17.3434L0.615044 17.3719C0.807399 17.5711 1.0363 17.7335 1.30159 17.8348C1.35705 17.8559 1.40591 17.8748 1.46034 17.8893C1.64348 17.9383 1.86229 17.9864 2.0575 17.9913C2.65411 18.0062 3.27385 17.9905 3.87316 17.9905H9.36405C11.7908 17.9905 14.2264 18.0114 16.652 17.9913C17.306 17.9858 17.9075 17.6606 18.3056 17.1561C18.4726 16.9444 18.6104 16.6457 18.668 16.373C18.7619 15.9274 18.7109 14.3144 18.7114 13.6697C18.7116 13.5043 18.7252 13.3924 18.6355 13.2994C18.6328 13.2966 18.6284 13.293 18.6255 13.2903C18.5274 13.1977 18.4452 13.1798 18.3023 13.1798C18.2511 13.0474 18.2829 11.3411 18.2829 11.057V4.63304C18.2829 4.03055 18.2845 3.54645 17.9324 3.07553C17.7589 2.84361 17.543 2.64648 17.2782 2.52206C17.1135 2.44467 16.9372 2.39589 16.7531 2.36443C16.7475 2.36348 16.7427 2.3622 16.7371 2.36117C16.5191 2.32279 12.5097 2.35052 12.0113 2.35052C12.0046 2.06863 11.8581 1.65515 11.7154 1.40226L11.2081 0.740257L10.5692 0.290397C10.3013 0.148733 9.98473 0.047033 9.67606 0.0157287C9.38399 -0.0139866 9.09152 -0.00294173 8.80851 0.060382C8.41594 0.148177 8.05904 0.315663 7.74035 0.553147C7.67266 0.60352 7.6323 0.640545 7.56747 0.691951C7.39736 0.82702 7.2572 1.01874 7.13818 1.19759C7.09282 1.26576 7.05738 1.31176 7.01845 1.38931L6.95385 1.52263C6.95115 1.52779 6.94344 1.54193 6.94074 1.54702C6.82864 1.76114 6.71359 2.1008 6.71359 2.3506L6.71375 2.35052Z" fill="#333333"/>
<path fill-rule="evenodd" clip-rule="evenodd" d="M3.01316 15.9259C7.32402 15.9259 11.5181 15.9259 15.7122 15.9259C16.1726 15.9259 16.2091 15.4213 15.9107 15.283C15.9067 15.2812 15.9016 15.279 15.8974 15.2773C15.8931 15.2755 15.888 15.2736 15.8836 15.272C15.7421 15.2197 15.4067 15.2443 15.2261 15.2443L3.03628 15.2436C2.72347 15.2432 2.57569 15.4321 2.63028 15.6696C2.66833 15.8354 2.83153 15.926 3.01324 15.926L3.01316 15.9259Z" fill="#333333"/>
<path fill-rule="evenodd" clip-rule="evenodd" d="M5.01926 7.86274C4.81626 7.86274 4.69557 7.87712 4.50663 7.79131C4.35138 7.72076 4.23331 7.63836 4.12041 7.51974L3.93092 7.21846C3.8803 7.08966 3.84987 6.99011 3.8498 6.7918C3.84964 6.21886 4.32445 5.73976 4.84407 5.73976C5.1413 5.73976 5.31975 5.75971 5.56828 5.95079L5.69977 6.0737C6.09942 6.53667 6.06764 7.16721 5.70605 7.51736L5.4286 7.74555C5.32269 7.80823 5.13431 7.86274 5.01934 7.86274H5.01926ZM4.90246 8.54444C5.50972 8.54444 6.01981 8.24602 6.31609 7.83509C6.37424 7.75445 6.43391 7.67165 6.48055 7.57337C6.82013 6.85742 6.66671 6.06894 6.0968 5.52341C6.05159 5.48019 6.05405 5.479 6.00161 5.4388C5.8702 5.33805 5.74498 5.25479 5.58647 5.1944C5.1931 5.0444 4.89976 5.01563 4.49003 5.11217C4.33287 5.14919 4.163 5.22475 4.03667 5.29976C3.84114 5.41584 3.8807 5.40797 3.7531 5.50601C3.64465 5.58944 3.6634 5.58976 3.59134 5.67533L3.38961 5.96032C3.30499 6.1116 3.25406 6.26344 3.21592 6.43219C3.13917 6.77225 3.1696 7.21115 3.33216 7.52777C3.33566 7.53468 3.35632 7.57115 3.35973 7.57766C3.58601 8.00845 3.88277 8.27669 4.34375 8.44441C4.50774 8.50408 4.71416 8.54444 4.9023 8.54444H4.90246Z" fill="#333333"/>
<path fill-rule="evenodd" clip-rule="evenodd" d="M9.81152 7.82366C9.81152 7.97867 9.83758 8.0373 9.94389 8.11962C10.0338 8.1893 10.1695 8.19375 10.2984 8.19375H16.2C16.5102 8.19375 16.7232 8.00155 16.6154 7.71965C16.6041 7.69018 16.6027 7.68874 16.5898 7.66848C16.5319 7.57767 16.4217 7.51196 16.2974 7.51196H10.1427C9.96304 7.51196 9.8116 7.64282 9.8116 7.82358L9.81152 7.82366Z" fill="#333333"/>
<path fill-rule="evenodd" clip-rule="evenodd" d="M10.1226 9.88815H16.3553C16.6726 9.88815 16.8348 9.22226 16.2387 9.22527L10.224 9.22567C10.0927 9.22464 10.071 9.21876 9.98475 9.26349C9.8581 9.3292 9.75919 9.48723 9.82641 9.68109C9.86955 9.80544 9.98436 9.88823 10.1226 9.88823V9.88815Z" fill="#333333"/>
<path fill-rule="evenodd" clip-rule="evenodd" d="M16.6476 11.3685C16.6476 11.2602 16.5711 11.1475 16.4968 11.0951C16.4931 11.0926 16.4885 11.0893 16.4848 11.0869C16.4216 11.0456 16.5171 11.1018 16.4595 11.071L10.1228 11.0374C9.83088 11.0374 9.68469 11.4196 9.92257 11.6269C10.0407 11.7299 10.1634 11.6996 10.3573 11.6996H15.9508C16.0959 11.6996 16.3268 11.7299 16.4355 11.6815C16.5318 11.6387 16.6476 11.5031 16.6476 11.3684V11.3685Z" fill="#333333"/>
<path fill-rule="evenodd" clip-rule="evenodd" d="M8.34961 4.04511L10.6947 2.65477C10.6871 2.64889 10.6679 2.63459 10.6622 2.63085C10.6296 2.60964 10.6108 2.6032 10.5873 2.59057C10.5381 2.56403 10.4902 2.53416 10.4373 2.50436L9.84721 2.16208C9.79716 2.13491 9.74742 2.10734 9.69411 2.07897L9.47299 1.94772C9.4335 1.92515 9.43183 1.91935 9.40387 1.9045L8.69404 1.50223C8.69038 1.50032 8.68522 1.49794 8.68156 1.49595C8.67791 1.49404 8.67306 1.49118 8.66941 1.4892L8.34969 1.29883V4.04511H8.34961Z" fill="#333333"/>
</svg>
