<svg width="41" height="41" viewBox="0 0 41 41" fill="none" xmlns="http://www.w3.org/2000/svg">
<path d="M1.75 20.5C1.75 28.6875 7 35.625 14.25 38.1875V2.8125C7 5.375 1.75 12.3125 1.75 20.5ZM39.25 20.5C39.25 12.3125 34.0625 5.375 26.75 2.8125V38.1875C34.0625 35.625 39.25 28.6875 39.25 20.5Z" fill="#009A49"/>
<path d="M14.25 38.1875C16.1875 38.875 18.3125 39.25 20.5 39.25C22.6875 39.25 24.8125 38.875 26.75 38.1875V2.8125C24.8125 2.125 22.6875 1.75 20.5 1.75C18.3125 1.75 16.1875 2.125 14.25 2.8125V38.1875Z" fill="#F9F9F9"/>
</svg>
