<svg width="15" height="16" viewBox="0 0 15 16" fill="none" xmlns="http://www.w3.org/2000/svg">
<path d="M11.626 5.22808L11.9501 4.90328C12.2081 4.64513 12.5581 4.50007 12.9232 4.5C13.2882 4.49993 13.6383 4.64487 13.8964 4.90293C14.1546 5.16098 14.2996 5.51102 14.2997 5.87603C14.2998 6.24104 14.1548 6.59113 13.8968 6.84928L13.5727 7.17408M11.626 5.22808C11.626 5.22808 11.6666 5.91688 12.2749 6.52518C12.8832 7.13348 13.5727 7.17408 13.5727 7.17408M11.626 5.22808L8.64396 8.21008C8.44096 8.41168 8.34016 8.51318 8.25336 8.62448C8.15116 8.75608 8.06366 8.89748 7.99156 9.04868C7.93066 9.17608 7.88586 9.31118 7.79556 9.58208L7.50646 10.4501L7.41266 10.7308M13.5727 7.17408L10.5907 10.1561C10.3877 10.3591 10.2869 10.4599 10.1756 10.5467C10.044 10.6489 9.90256 10.7364 9.75136 10.8085C9.62396 10.8694 9.48886 10.9142 9.21796 11.0045L8.34996 11.2936L8.06926 11.3874M7.41266 10.7308L7.31956 11.0122C7.29787 11.0775 7.29478 11.1476 7.31064 11.2145C7.32649 11.2815 7.36066 11.3427 7.40932 11.3914C7.45799 11.4401 7.51923 11.4742 7.5862 11.4901C7.65318 11.506 7.72324 11.5029 7.78856 11.4812L8.06926 11.3874M7.41266 10.7308L8.06926 11.3874" stroke="#828282"/>
<path d="M4.5 8.6999H6.25M4.5 5.8999H9.05M4.5 11.4999H5.55" stroke="#828282" stroke-linecap="round"/>
<path opacity="0.5" d="M1 6.6C1 3.9603 1 2.6401 1.8204 1.8204C2.6401 1 3.9603 1 6.6 1H8C10.6397 1 11.9599 1 12.7796 1.8204C13.6 2.6401 13.6 3.9603 13.6 6.6V9.4C13.6 12.0397 13.6 13.3599 12.7796 14.1796C11.9599 15 10.6397 15 8 15H6.6C3.9603 15 2.6401 15 1.8204 14.1796C1 13.3599 1 12.0397 1 9.4V6.6Z" stroke="#828282"/>
</svg>
