<svg width="16" height="16" viewBox="0 0 16 16" fill="none" xmlns="http://www.w3.org/2000/svg">
<path opacity="0.5" d="M1.39844 4.79707C1.39844 2.53605 1.39844 1.40474 2.10121 0.702771C2.80318 -4.76546e-08 3.93449 0 6.19551 0H10.9926C13.2536 0 14.3849 -4.76546e-08 15.0869 0.702771C15.7897 1.40474 15.7897 2.53605 15.7897 4.79707V11.1932C15.7897 13.4542 15.7897 14.5855 15.0869 15.2875C14.3849 15.9902 13.2536 15.9902 10.9926 15.9902H6.19551C3.93449 15.9902 2.80318 15.9902 2.10121 15.2875C1.39844 14.5855 1.39844 13.4542 1.39844 11.1932V4.79707Z" fill="#CA2421"/>
<path fill-rule="evenodd" clip-rule="evenodd" d="M5.99634 0.00976562V16H4.79707V0.00976562H5.99634ZM0 4.79724C0 4.63821 0.0631756 4.48569 0.175629 4.37324C0.288082 4.26079 0.440601 4.19761 0.599634 4.19761H2.19866C2.35769 4.19761 2.51021 4.26079 2.62266 4.37324C2.73512 4.48569 2.79829 4.63821 2.79829 4.79724C2.79829 4.95628 2.73512 5.1088 2.62266 5.22125C2.51021 5.3337 2.35769 5.39688 2.19866 5.39688H0.599634C0.440601 5.39688 0.288082 5.3337 0.175629 5.22125C0.0631756 5.1088 0 4.95628 0 4.79724ZM0 7.99529C0 7.83626 0.0631756 7.68374 0.175629 7.57129C0.288082 7.45883 0.440601 7.39566 0.599634 7.39566H2.19866C2.35769 7.39566 2.51021 7.45883 2.62266 7.57129C2.73512 7.68374 2.79829 7.83626 2.79829 7.99529C2.79829 8.15432 2.73512 8.30684 2.62266 8.4193C2.51021 8.53175 2.35769 8.59493 2.19866 8.59493H0.599634C0.440601 8.59493 0.288082 8.53175 0.175629 8.4193C0.0631756 8.30684 0 8.15432 0 7.99529ZM0 11.1933C0 11.0343 0.0631756 10.8818 0.175629 10.7693C0.288082 10.6569 0.440601 10.5937 0.599634 10.5937H2.19866C2.35769 10.5937 2.51021 10.6569 2.62266 10.7693C2.73512 10.8818 2.79829 11.0343 2.79829 11.1933C2.79829 11.3524 2.73512 11.5049 2.62266 11.6173C2.51021 11.7298 2.35769 11.793 2.19866 11.793H0.599634C0.440601 11.793 0.288082 11.7298 0.175629 11.6173C0.0631756 11.5049 0 11.3524 0 11.1933Z" fill="#CA2421"/>
<path d="M7.59375 3.59793C7.59375 3.43889 7.65693 3.28637 7.76938 3.17392C7.88183 3.06147 8.03435 2.99829 8.19338 2.99829H12.1909C12.35 2.99829 12.5025 3.06147 12.6149 3.17392C12.7274 3.28637 12.7906 3.43889 12.7906 3.59793C12.7906 3.75696 12.7274 3.90948 12.6149 4.02193C12.5025 4.13438 12.35 4.19756 12.1909 4.19756H8.19338C8.03435 4.19756 7.88183 4.13438 7.76938 4.02193C7.65693 3.90948 7.59375 3.75696 7.59375 3.59793ZM7.59375 6.39622C7.59375 6.23718 7.65693 6.08467 7.76938 5.97221C7.88183 5.85976 8.03435 5.79658 8.19338 5.79658H12.1909C12.35 5.79658 12.5025 5.85976 12.6149 5.97221C12.7274 6.08467 12.7906 6.23718 12.7906 6.39622C12.7906 6.55525 12.7274 6.70777 12.6149 6.82022C12.5025 6.93268 12.35 6.99585 12.1909 6.99585H8.19338C8.03435 6.99585 7.88183 6.93268 7.76938 6.82022C7.65693 6.70777 7.59375 6.55525 7.59375 6.39622Z" fill="#CA2421"/>
</svg>
