<svg width="31" height="32" viewBox="0 0 31 32" fill="none" xmlns="http://www.w3.org/2000/svg">
<path fill-rule="evenodd" clip-rule="evenodd" d="M5.4551 24.4061C1.60245 24.4061 -0.508704 19.6432 2.31724 16.818C3.56643 15.5691 5.62162 15.1169 7.26917 15.9166C7.80522 16.1768 8.19796 16.4229 8.59295 16.818C8.98824 17.2133 9.2338 17.6054 9.49432 18.1417C10.2853 19.7701 9.85205 21.8346 8.59295 23.0937C7.83887 23.8478 6.59556 24.4061 5.4551 24.4061ZM8.91637 7.59413H20.7836V9.07754C20.7836 9.37651 20.9791 9.57199 21.2781 9.57199H22.7615V12.5388H8.91637V7.59413ZM21.7725 5.36904L25.0019 8.56778L21.7725 8.58309V5.36904ZM7.92741 7.09968V13.0333C7.92741 13.3322 8.12289 13.5277 8.42186 13.5277H23.2559C23.5549 13.5277 23.7504 13.3322 23.7504 13.0333V9.57199H25.7283V30.3397H5.94955V25.395C7.30009 25.2826 8.44429 24.6596 9.33356 23.7725C9.77917 23.328 10.1138 22.8662 10.3885 22.2933C11.1089 20.7901 11.0557 19.0926 10.374 17.571C9.68119 16.0245 7.66298 14.5548 5.94955 14.5166V4.62724H20.7836V6.60511H8.42192C8.12295 6.60511 7.92747 6.80058 7.92747 7.09956L7.92741 7.09968ZM9.90528 1.66053H29.684V27.3729H26.7172V9.0776C26.7172 8.74201 26.3404 8.48452 26.1454 8.28952L22.0661 4.21018C21.8712 4.01523 21.6136 3.63846 21.278 3.63846H9.90522V1.66059L9.90528 1.66053ZM8.91632 1.16608V3.6384H5.45504C5.15606 3.6384 4.96059 3.83388 4.96059 4.13285V14.5167C3.27244 14.5543 1.30152 15.9717 0.555091 17.5282C-0.748511 20.2461 0.31469 23.4745 3.00314 24.8183C3.48952 25.0615 4.28614 25.38 4.96064 25.395V30.8341C4.96064 31.1331 5.15612 31.3286 5.4551 31.3286H26.2228C26.5217 31.3286 26.7172 31.1331 26.7172 30.8341V28.3618H30.1785C30.4775 28.3618 30.6729 28.1663 30.6729 27.8673V1.16608C30.6729 0.867111 30.4775 0.671631 30.1785 0.671631H9.41082C9.11185 0.671631 8.91637 0.867111 8.91637 1.16608H8.91632Z" fill="#CA2421"/>
<path fill-rule="evenodd" clip-rule="evenodd" d="M8.91602 26.384H23.7501V25.395H8.91602V26.384Z" fill="#CA2421"/>
<path fill-rule="evenodd" clip-rule="evenodd" d="M10.8945 24.406H23.7507V23.417H10.8945V24.406Z" fill="#CA2421"/>
<path fill-rule="evenodd" clip-rule="evenodd" d="M11.8828 18.4723H23.7501V17.4834H11.8828V18.4723Z" fill="#CA2421"/>
<path fill-rule="evenodd" clip-rule="evenodd" d="M11.8828 20.4504H23.7501V19.4614H11.8828V20.4504Z" fill="#CA2421"/>
<path fill-rule="evenodd" clip-rule="evenodd" d="M11.8828 22.4282H23.7501V21.4392H11.8828V22.4282Z" fill="#CA2421"/>
<path fill-rule="evenodd" clip-rule="evenodd" d="M9.90527 11.5499H19.7946V10.561H9.90527V11.5499Z" fill="#CA2421"/>
<path fill-rule="evenodd" clip-rule="evenodd" d="M11.8828 9.57191H19.7943V8.58301H11.8828V9.57191Z" fill="#CA2421"/>
<path fill-rule="evenodd" clip-rule="evenodd" d="M4.48184 20.7128L3.30642 19.5707L2.59863 20.3131C3.20714 20.73 3.98466 21.9337 4.46653 21.9337C4.83921 21.9337 6.10697 20.5096 6.42897 20.1876L8.29865 18.3488L7.57181 17.5923L4.48184 20.7129V20.7128Z" fill="#CA2421"/>
<path fill-rule="evenodd" clip-rule="evenodd" d="M13.8613 16.4945H20.7839V15.5056H13.8613V16.4945Z" fill="#CA2421"/>
<path fill-rule="evenodd" clip-rule="evenodd" d="M21.7725 16.4945H23.7504V15.5056H21.7725V16.4945Z" fill="#CA2421"/>
</svg>
