<svg width="15" height="18" viewBox="0 0 15 18" fill="none" xmlns="http://www.w3.org/2000/svg">
<path d="M14.1955 12.348L10.5679 10.4925C10.4273 10.423 10.2737 10.3946 10.1211 10.4099C9.96841 10.4252 9.82152 10.4838 9.69366 10.5804C9.68344 10.5878 9.67368 10.596 9.66446 10.605L7.75923 12.4613C7.71683 12.4909 7.66871 12.508 7.61913 12.5113C7.56954 12.5145 7.52003 12.5037 7.47498 12.4798C6.22736 11.7913 4.93595 10.3266 4.33365 8.91718C4.31234 8.86607 4.30245 8.80972 4.30487 8.75317C4.30728 8.69662 4.32192 8.64164 4.34748 8.59314L5.97615 6.37937C5.98383 6.36883 5.99074 6.35741 5.99766 6.346C6.08185 6.20005 6.13295 6.03246 6.14636 5.85831C6.15977 5.68417 6.13507 5.50895 6.07448 5.34843L4.44812 1.20891C4.3696 0.999249 4.2337 0.824365 4.06082 0.710518C3.88794 0.59667 3.68741 0.550004 3.48935 0.577528C2.52258 0.723228 1.63526 1.26622 0.993134 2.10508C0.351008 2.94393 -0.00201275 4.02129 8.63287e-06 5.13593C8.63287e-06 11.9151 4.82455 17.4298 10.7554 17.4298C11.7305 17.4321 12.673 17.0286 13.4069 16.2946C14.1408 15.5606 14.6158 14.5464 14.7433 13.4413C14.7672 13.216 14.7268 12.9878 14.6281 12.7908C14.5294 12.5938 14.3777 12.4385 14.1955 12.348ZM14.1356 13.3535C14.0271 14.2894 13.6242 15.148 13.002 15.769C12.3799 16.3899 11.5813 16.7306 10.7554 16.7273C5.16412 16.7273 0.6146 11.527 0.6146 5.13593C0.611739 4.19188 0.90978 3.27897 1.453 2.56786C1.99622 1.85675 2.74743 1.39614 3.56618 1.27213C3.57846 1.27126 3.59077 1.27126 3.60305 1.27213C3.66368 1.27272 3.72279 1.2938 3.77296 1.33271C3.82313 1.37161 3.86211 1.42662 3.885 1.49079L5.50675 5.63032C5.52567 5.68091 5.53393 5.73588 5.53086 5.79079C5.52779 5.8457 5.51348 5.89902 5.48908 5.94645L3.86118 8.15935C3.8535 8.17076 3.84582 8.1813 3.8389 8.19359C3.75217 8.34519 3.7011 8.51978 3.6906 8.70052C3.6801 8.88125 3.71054 9.06203 3.77898 9.2254C4.44658 10.7876 5.82327 12.3498 7.20533 13.1129C7.34923 13.1906 7.50828 13.2244 7.66701 13.211C7.82573 13.1977 7.97872 13.1375 8.11108 13.0365L8.13951 13.0119L10.047 11.1573C10.0879 11.1288 10.134 11.1118 10.1817 11.1077C10.2294 11.1035 10.2772 11.1124 10.3213 11.1336L13.9482 12.9917C14.0094 13.0208 14.0607 13.0718 14.0945 13.137C14.1283 13.2022 14.1427 13.2782 14.1356 13.3535Z" fill="#6D6D6D"/>
</svg>
