<svg width="22" height="24" viewBox="0 0 22 24" fill="none" xmlns="http://www.w3.org/2000/svg">
<g opacity="0.2">
<path d="M20.5556 12.8894C20.8164 13.0548 21.0297 13.2854 21.1743 13.5583C21.3189 13.8312 21.3898 14.1372 21.3801 14.4459C21.3704 14.7546 21.2804 15.0555 21.119 15.3188C20.9576 15.5821 20.7303 15.7989 20.4596 15.9476L6.18538 23.7804C5.91488 23.9288 5.61041 24.0042 5.30193 23.9992C4.99344 23.9942 4.69157 23.909 4.42601 23.7519C4.16046 23.5948 3.94038 23.3713 3.78743 23.1034C3.63448 22.8354 3.55393 22.5323 3.55371 22.2238V5.35339C3.55366 5.03528 3.63901 4.72299 3.80084 4.44913C3.96268 4.17526 4.19506 3.94986 4.47373 3.79645C4.75241 3.64304 5.06715 3.56726 5.38511 3.57701C5.70306 3.58675 6.01258 3.68167 6.28133 3.85186L20.5556 12.8894Z" fill="#CA2421"/>
<path fill-rule="evenodd" clip-rule="evenodd" d="M16.1114 14.2808L7.10761 8.58033V19.2207L16.1114 14.2808ZM20.4596 15.9476C20.7303 15.7989 20.9576 15.5821 21.119 15.3188C21.2804 15.0555 21.3704 14.7546 21.3801 14.4459C21.3898 14.1372 21.3189 13.8312 21.1743 13.5583C21.0297 13.2854 20.8164 13.0548 20.5556 12.8894L6.28133 3.85186C6.01258 3.68167 5.70306 3.58675 5.38511 3.57701C5.06715 3.56726 4.75241 3.64304 4.47373 3.79645C4.19506 3.94986 3.96268 4.17526 3.80084 4.44913C3.63901 4.72299 3.55366 5.03528 3.55371 5.35339V22.2238C3.55393 22.5323 3.63448 22.8354 3.78743 23.1034C3.94038 23.3713 4.16046 23.5948 4.42601 23.7519C4.69157 23.909 4.99344 23.9942 5.30193 23.9992C5.61041 24.0042 5.91488 23.9288 6.18538 23.7804L20.4596 15.9476Z" fill="#CA2421"/>
</g>
<path fill-rule="evenodd" clip-rule="evenodd" d="M1.77695 20.4651L17.7944 11.7883L1.77695 1.77696V20.4651ZM18.6402 13.352C18.9138 13.2041 19.1437 12.9871 19.3071 12.7225C19.4705 12.4579 19.5616 12.1551 19.5713 11.8443C19.581 11.5335 19.509 11.2256 19.3625 10.9514C19.2159 10.6771 19 10.4461 18.7362 10.2814L2.71874 0.270101C2.44975 0.101988 2.14068 0.008938 1.82359 0.000612357C1.50651 -0.00771329 1.19297 0.0689883 0.915541 0.222755C0.638109 0.376521 0.406893 0.601745 0.245898 0.875046C0.0849037 1.14835 -4.74547e-07 1.45976 2.73555e-07 1.77696V20.4651C-0.000170529 20.773 0.0796462 21.0756 0.231629 21.3434C0.383613 21.6111 0.602547 21.8348 0.866978 21.9924C1.13141 22.1501 1.43227 22.2363 1.74006 22.2427C2.04786 22.2491 2.35203 22.1754 2.62278 22.0289L18.6402 13.352Z" fill="#CA2421"/>
</svg>
