<svg width="66" height="66" viewBox="0 0 66 66" fill="none" xmlns="http://www.w3.org/2000/svg">
<path d="M48.2745 28.3801C48.2746 28.3802 48.2746 28.3802 48.2747 28.3802C48.2748 28.3803 48.2749 28.3803 48.2749 28.3804C49.1332 28.8094 49.855 29.4689 50.3595 30.2851C50.8641 31.1014 51.1313 32.0421 51.1313 33.0017C51.1313 33.9614 50.8641 34.9021 50.3595 35.7184C49.8549 36.5346 49.1329 37.1943 48.2745 37.6233L25.9759 48.7726C25.0829 49.2195 24.0903 49.4305 23.0927 49.3857C22.0951 49.3409 21.1255 49.0417 20.2761 48.5165C19.4267 47.9913 18.7258 47.2576 18.2399 46.3852C17.7542 45.5131 17.4995 44.5313 17.5 43.5331M48.2745 28.3801L17.5 43.5319M48.2745 28.3801L25.9759 17.2274L48.2745 28.3801ZM17.5 43.5331C17.5 43.5327 17.5 43.5323 17.5 43.5319M17.5 43.5331L17.5 43.5319M17.5 43.5331L17.5 22.4716M17.5 43.5319V22.4716M17.5 22.4716L17.5 22.4703M17.5 22.4716L17.5 22.4703M17.5 22.4703C17.4995 21.4721 17.7542 20.4904 18.2399 19.6183C18.7258 18.7458 19.4267 18.0121 20.2761 17.4869C21.1255 16.9618 22.0951 16.6625 23.0927 16.6177C24.0845 16.5732 25.0775 16.7779 25.9756 17.2272L17.5 22.4703ZM44.2041 60.0491C40.652 61.5205 36.8448 62.2778 33 62.2778C25.2351 62.2778 17.7881 59.1932 12.2975 53.7025C6.80684 48.2119 3.72222 40.7649 3.72222 33C3.72222 25.2351 6.80684 17.7881 12.2975 12.2975C17.7881 6.80684 25.2351 3.72222 33 3.72222C36.8448 3.72222 40.652 4.47951 44.2041 5.95086C47.7563 7.42221 50.9838 9.57879 53.7025 12.2975C56.4212 15.0162 58.5778 18.2437 60.0491 21.7959C61.5205 25.348 62.2778 29.1552 62.2778 33C62.2778 36.8448 61.5205 40.652 60.0491 44.2041C58.5778 47.7563 56.4212 50.9838 53.7025 53.7025C50.9838 56.4212 47.7563 58.5778 44.2041 60.0491Z" fill="white" fill-opacity="0.24" stroke="white" stroke-width="3.44444"/>
<path d="M47.505 29.9206L25.2057 18.7675C24.5753 18.4521 23.8747 18.3031 23.1705 18.3347C22.4663 18.3664 21.7818 18.5776 21.1823 18.9483C20.5827 19.319 20.0879 19.8369 19.7449 20.4528C19.4019 21.0686 19.2222 21.7619 19.2227 22.4669V43.5331C19.2222 44.238 19.4019 44.9313 19.7449 45.5472C20.0879 46.163 20.5827 46.6809 21.1823 47.0516C21.7818 47.4224 22.4663 47.6336 23.1705 47.6652C23.8747 47.6969 24.5753 47.5479 25.2057 47.2324L47.505 36.0793C48.0764 35.7929 48.5568 35.3532 48.8925 34.8094C49.2283 34.2656 49.4061 33.6391 49.4061 33C49.4061 32.3609 49.2283 31.7343 48.8925 31.1905C48.5568 30.6467 48.0764 30.207 47.505 29.9206Z" fill="white" fill-opacity="0.24" stroke="white" stroke-width="3.44444" stroke-linecap="round" stroke-linejoin="round"/>
<path d="M33 64C50.1208 64 64 50.1208 64 33C64 15.8792 50.1208 2 33 2C15.8792 2 2 15.8792 2 33C2 50.1208 15.8792 64 33 64Z" fill="white" fill-opacity="0.24" stroke="white" stroke-width="3.44444"/>
</svg>
