<svg width="15" height="15" viewBox="0 0 15 15" fill="none" xmlns="http://www.w3.org/2000/svg">
<path d="M10.9984 12.225V14.5H3.99844V12.225C3.99844 11.259 5.56644 10.475 7.49844 10.475C9.43044 10.475 10.9984 11.259 10.9984 12.225ZM7.49844 3.3C8.70518 3.3 9.86249 3.77937 10.7158 4.63266C11.5691 5.48595 12.0484 6.64326 12.0484 7.85C12.0484 8.725 11.8034 9.544 11.3764 10.237L10.2984 9.278C10.5224 8.851 10.6484 8.361 10.6484 7.85C10.6484 6.1 9.24844 4.7 7.49844 4.7C5.74844 4.7 4.34844 6.1 4.34844 7.85C4.34844 8.361 4.47444 8.851 4.69844 9.278L3.62044 10.237C3.19344 9.544 2.94844 8.725 2.94844 7.85C2.94844 6.64326 3.42781 5.48595 4.28111 4.63266C5.1344 3.77937 6.29171 3.3 7.49844 3.3ZM7.49844 0.5C9.44778 0.5 11.3173 1.27437 12.6957 2.65277C14.0741 4.03116 14.8484 5.90066 14.8484 7.85C14.8484 9.446 14.3374 10.923 13.4764 12.127L12.4264 11.182C13.0704 10.23 13.4484 9.082 13.4484 7.85C13.4484 6.27196 12.8216 4.75856 11.7057 3.64271C10.5899 2.52687 9.07648 1.9 7.49844 1.9C5.9204 1.9 4.407 2.52687 3.29116 3.64271C2.17531 4.75856 1.54844 6.27196 1.54844 7.85C1.54844 9.082 1.92644 10.23 2.57044 11.182L1.52044 12.127C0.626743 10.8801 0.146867 9.38412 0.148441 7.85C0.148441 5.90066 0.922814 4.03116 2.30121 2.65277C3.6796 1.27437 5.5491 0.5 7.49844 0.5ZM7.49844 6.1C7.96257 6.1 8.40769 6.28437 8.73588 6.61256C9.06407 6.94075 9.24844 7.38587 9.24844 7.85C9.24844 8.31413 9.06407 8.75925 8.73588 9.08744C8.40769 9.41563 7.96257 9.6 7.49844 9.6C7.03431 9.6 6.58919 9.41563 6.261 9.08744C5.93282 8.75925 5.74844 8.31413 5.74844 7.85C5.74844 7.38587 5.93282 6.94075 6.261 6.61256C6.58919 6.28437 7.03431 6.1 7.49844 6.1Z" fill="#CA2421"/>
</svg>
