<svg width="18" height="14" viewBox="0 0 18 14" fill="none" xmlns="http://www.w3.org/2000/svg">
<path d="M7.73262 5.72779C7.73262 5.37604 7.45962 5.09079 7.12274 5.09079H5.75774C6.04124 3.63829 7.27237 2.54541 8.75024 2.54541C10.2264 2.54541 11.4584 3.63916 11.741 5.09166H9.56399C9.22712 5.09166 8.95412 5.37604 8.95412 5.72691C8.95412 6.07866 9.22712 6.36391 9.56399 6.36391H11.8031V7.63616H9.56399C9.22712 7.63616 8.95412 7.92141 8.95412 8.27316C8.95412 8.62404 9.22712 8.90929 9.56399 8.90929H11.7419C11.4986 10.1562 10.5571 11.1379 9.36099 11.3908V13.3639C9.36099 13.7148 9.08712 14 8.75024 14C8.41337 14 8.13949 13.7148 8.13949 13.3639V11.3908C6.94424 11.1379 6.00187 10.1562 5.75949 8.90929H7.12274C7.45962 8.90929 7.73262 8.62404 7.73262 8.27316C7.73262 7.92141 7.45962 7.63616 7.12274 7.63616H5.69824V6.36391H7.12274C7.45962 6.36391 7.73262 6.07866 7.73262 5.72779Z" fill="#828282"/>
<path opacity="0.5" d="M8.75 0C5.83625 0 3.45275 2.36338 3.26725 5.3515C2.95134 5.18018 2.59762 5.09055 2.23825 5.09075C1.00188 5.09075 0 6.1355 0 7.42438V9.12188C0 10.4099 1.00188 11.4546 2.23825 11.4546C2.28025 11.4546 2.32225 11.4529 2.36338 11.4511V11.4546C3.53063 11.4546 4.4765 10.4685 4.4765 9.25138V5.72688C4.4765 3.26725 6.39013 1.27313 8.75 1.27313C11.1099 1.27313 13.0235 3.26725 13.0235 5.72688V9.25138C13.0235 10.4676 13.9685 11.4546 15.1366 11.4546V11.4511C15.1778 11.4538 15.2198 11.4546 15.2618 11.4546C16.4981 11.4546 17.5 10.4099 17.5 9.121V7.4235C17.5 6.1355 16.4981 5.09075 15.2618 5.09075C14.8908 5.09075 14.5408 5.18525 14.2328 5.3515C14.0473 2.36338 11.6629 0 8.75 0Z" fill="#828282"/>
</svg>
