<svg width="12" height="15" viewBox="0 0 12 15" fill="none" xmlns="http://www.w3.org/2000/svg">
<path d="M5.8714 7.4157L5.91282 7.41628C6.28376 7.41618 6.64012 7.27187 6.90663 7.01386C7.17313 6.75585 7.32889 6.40435 7.341 6.03361V6.03127C7.32948 5.66013 7.17398 5.30803 6.90742 5.04952C6.64085 4.79102 6.28415 4.64639 5.91282 4.64627L5.86907 4.64685H5.8714L5.82998 4.64627C5.45904 4.64637 5.10268 4.79068 4.83618 5.04869C4.56967 5.3067 4.41391 5.6582 4.4018 6.02894V6.03127C4.41332 6.40242 4.56882 6.75452 4.83539 7.01303C5.10195 7.27153 5.45865 7.41616 5.82998 7.41628L5.87373 7.4157H5.8714ZM5.8714 2.57226C4.92694 2.5449 4.01014 2.89295 3.32178 3.54019C2.63343 4.18743 2.22964 5.08109 2.19886 6.02544V6.03127C2.19994 6.47824 2.29088 6.92042 2.46627 7.33154C2.64166 7.74265 2.89792 8.11431 3.21982 8.42441L3.22099 8.42557C3.41631 8.12708 3.67733 7.87723 3.98408 7.69515L3.99458 7.68932C3.77458 7.47296 3.59969 7.21512 3.48002 6.93072C3.36035 6.64631 3.29828 6.341 3.29741 6.03244V6.03186C3.31786 5.38232 3.59015 4.7662 4.0567 4.31382C4.52324 3.86143 5.14745 3.60824 5.79731 3.60781L5.87373 3.60897H5.87023L5.94316 3.60781C6.59237 3.60776 7.21616 3.86016 7.68267 4.31165C8.14918 4.76313 8.42185 5.37833 8.44306 6.02719V6.03127C8.44222 6.34056 8.37995 6.64661 8.25987 6.93163C8.13979 7.21666 7.96429 7.475 7.74355 7.69165L7.74297 7.69223C8.05226 7.87342 8.3159 8.12309 8.51365 8.42207L8.5189 8.43083C8.84225 8.12042 9.0998 7.7481 9.2762 7.33605C9.45261 6.92401 9.54426 6.48066 9.54569 6.03244V6.03186C9.51613 5.08565 9.11218 4.18987 8.42258 3.54129C7.73299 2.89272 6.81415 2.5444 5.8679 2.57284H5.87315L5.8714 2.57226ZM5.8714 0.501167C2.62825 0.500583 0 2.97714 0 6.03127C0.0100421 6.98891 0.271543 7.92709 0.758308 8.75185C1.24507 9.57661 1.94001 10.259 2.77351 10.7306L2.80035 10.7446C2.7638 10.4921 2.74547 10.2373 2.74551 9.9821V9.98152C2.74843 9.80125 2.76826 9.62797 2.80327 9.45995L2.80035 9.47804C2.2731 9.07086 1.84544 8.549 1.54978 7.95203C1.25412 7.35505 1.09822 6.69861 1.09389 6.03244V6.03069C1.09389 3.54596 3.23265 1.53146 5.87082 1.53146C8.50898 1.53146 10.6477 3.54596 10.6477 6.03069C10.6439 6.6965 10.4886 7.3527 10.1935 7.94958C9.89848 8.54645 9.47145 9.06835 8.94479 9.47571L8.93487 9.48329C8.96695 9.63148 8.98679 9.80241 8.99087 9.97802V9.98094C8.99035 10.2481 8.97047 10.5148 8.93137 10.779L8.93487 10.7487C10.6052 9.80533 11.72 8.05044 11.7422 6.03361V6.03069C11.7422 2.97598 9.11339 0.5 5.87082 0.5L5.8714 0.501167ZM5.8714 8.1082L5.81423 8.10762C5.30422 8.10779 4.81424 8.30614 4.44772 8.66079C4.08121 9.01544 3.86685 9.49863 3.8499 10.0084V10.0113C3.8499 11.0626 4.75593 14.5 5.87082 14.5C6.98571 14.5 7.89174 11.0602 7.89174 10.0113C7.87543 9.49048 7.65306 8.99745 7.27347 8.64051C6.89388 8.28357 6.38813 8.0919 5.86732 8.10762H5.87023L5.8714 8.1082Z" fill="#CA2421"/>
</svg>
