<svg width="18" height="14" viewBox="0 0 18 14" fill="none" xmlns="http://www.w3.org/2000/svg">
<path d="M7.73357 5.72726C7.73357 5.37551 7.46057 5.09027 7.1237 5.09027H5.75872C6.04221 3.63778 7.27333 2.54492 8.75118 2.54492C10.2273 2.54492 11.4593 3.63866 11.7419 5.09114H9.56493C9.22805 5.09114 8.95506 5.37552 8.95506 5.72639C8.95506 6.07813 9.22805 6.36338 9.56493 6.36338H11.804V7.63562H9.56493C9.22805 7.63562 8.95506 7.92086 8.95506 8.27261C8.95506 8.62348 9.22805 8.90873 9.56493 8.90873H11.7428C11.4995 10.1556 10.558 11.1373 9.36193 11.3902V13.3633C9.36193 13.7142 9.08806 13.9994 8.75118 13.9994C8.41431 13.9994 8.14044 13.7142 8.14044 13.3633V11.3902C6.9452 11.1373 6.00284 10.1556 5.76047 8.90873H7.1237C7.46057 8.90873 7.73357 8.62348 7.73357 8.27261C7.73357 7.92086 7.46057 7.63562 7.1237 7.63562H5.69922V6.36338H7.1237C7.46057 6.36338 7.73357 6.07813 7.73357 5.72726Z" fill="#CA2421"/>
<path opacity="0.5" d="M8.7499 0C5.83618 0 3.45271 2.36335 3.26721 5.35144C2.95131 5.18012 2.59759 5.09049 2.23822 5.09069C1.00186 5.09069 0 6.13543 0 7.42429V9.12177C0 10.4098 1.00186 11.4545 2.23822 11.4545C2.28022 11.4545 2.32222 11.4527 2.36335 11.451V11.4545C3.53059 11.4545 4.47645 10.4684 4.47645 9.25127V5.72681C4.47645 3.26721 6.39005 1.27311 8.7499 1.27311C11.1097 1.27311 13.0234 3.26721 13.0234 5.72681V9.25127C13.0234 10.4675 13.9683 11.4545 15.1365 11.4545V11.451C15.1776 11.4536 15.2196 11.4545 15.2616 11.4545C16.4979 11.4545 17.4998 10.4098 17.4998 9.1209V7.42342C17.4998 6.13543 16.4979 5.09069 15.2616 5.09069C14.8906 5.09069 14.5406 5.18519 14.2326 5.35144C14.0471 2.36335 11.6627 0 8.7499 0Z" fill="#CA2421"/>
</svg>
