<svg width="102" height="49" viewBox="0 0 102 49" fill="none" xmlns="http://www.w3.org/2000/svg">
<rect x="50" y="16.5" width="32" height="32" rx="5.33333" fill="#F5D7D7"/>
<path d="M91.2838 20.5632L91.2646 20.6136C91.2706 20.5984 91.2754 20.5828 91.2814 20.5676L91.2838 20.5632ZM89.2578 30.3416L88.7046 31.0256C89.4526 31.116 90.1766 31.222 90.8546 31.3504L88.663 31.9996L91.5882 32.7776L93.7686 32.09C95.1078 32.5392 96.9622 33.0884 97.5766 33.7128H93.2046L93.639 34.9832H98.1758C98.1622 35.6992 96.8822 36.2808 95.6598 36.752L92.5594 36.0816L89.6382 37.1284L92.7582 37.8404C90.9366 38.3364 87.8782 38.638 85.3462 38.7768L85.2398 37.3208H82.1974L82.0906 38.7768C79.5587 38.638 76.5007 38.3368 74.6787 37.8408L77.7991 37.1284L74.8779 36.0816L71.7771 36.752C70.5723 36.386 69.2751 35.6992 69.2615 34.9832H73.7987L74.2331 33.7128H69.8611C70.4755 33.0884 72.3299 32.5392 73.6691 32.09L75.8495 32.7776L78.7747 31.9996L76.5831 31.3504C77.2908 31.2196 78.0027 31.1119 78.7175 31.0276L78.1723 30.3424C72.2583 30.9572 67.3431 32.2664 66.0543 34.334C63.9987 37.6292 71.5819 40.9439 83.4666 40.9955C83.6434 41.0043 83.8178 40.9979 83.9826 40.9955C95.8606 40.9411 103.437 37.6276 101.383 34.334C100.093 32.2656 95.1754 30.956 89.2578 30.3416Z" fill="#FFAC33"/>
<path d="M83.6608 1.0001C82.557 1.01534 81.5036 1.46456 80.7284 2.25057C79.9533 3.03657 79.5187 4.09615 79.5188 5.20008C79.5188 6.31398 79.9613 7.38227 80.749 8.16992C81.5366 8.95756 82.6049 9.40006 83.7188 9.40006C84.8327 9.40006 85.901 8.95756 86.6887 8.16992C87.4763 7.38227 87.9188 6.31398 87.9188 5.20008C87.9188 4.08618 87.4763 3.0179 86.6887 2.23025C85.901 1.4426 84.8327 1.0001 83.7188 1.0001C83.6995 0.999967 83.6801 0.999967 83.6608 1.0001ZM83.638 10.4369C80.5044 10.4377 77.3997 11.7841 77.726 14.4752L78.526 20.3252C78.6664 21.3544 79.362 23 80.4008 23H80.4748L81.3256 32.8124C81.3624 33.2544 81.6824 33.6124 82.1256 33.6124H85.3256C85.7688 33.6124 86.0888 33.2544 86.1256 32.8124L86.9764 23.0004H87.0508C88.0896 23.0004 88.7848 21.3544 88.9256 20.3252L89.7256 14.4752C89.9352 11.7817 86.772 10.4365 83.638 10.4369ZM0.0192016 25.7268L0 25.7772C0.00639997 25.762 0.0107997 25.7468 0.0171996 25.7312C0.0171996 25.7296 0.0188044 25.7284 0.0196044 25.7272L0.0192016 25.7268Z" fill="#CA2421"/>
</svg>
