<svg width="18" height="20" viewBox="0 0 18 20" fill="none" xmlns="http://www.w3.org/2000/svg">
<path d="M1 11.8V8.2C1 4.8061 1 3.1087 2.0548 2.0548C3.1087 1 4.8061 1 8.2 1H10C13.3939 1 15.0913 1 16.1452 2.0548C16.7338 2.6425 16.9939 3.43 17.1082 4.6M17.2 8.2V11.8C17.2 15.1939 17.2 16.8913 16.1452 17.9452C15.0913 19 13.3939 19 10 19H8.2C4.8061 19 3.1087 19 2.0548 17.9452C1.4662 17.3575 1.2061 16.57 1.0918 15.4M5.5 11.8H10M5.5 8.2H6.4M12.7 8.2H9.1" stroke="#333333" stroke-width="1.5" stroke-linecap="round"/>
</svg>
