<svg width="15" height="14" viewBox="0 0 15 14" fill="none" xmlns="http://www.w3.org/2000/svg">
<path d="M9.10551 0.0756887C9.38743 0.000168061 9.68146 -0.0190824 9.97081 0.0190365C10.2602 0.0571554 10.5392 0.151897 10.7919 0.297851C11.0447 0.443806 11.2662 0.638115 11.4438 0.869682C11.6214 1.10125 11.7517 1.36554 11.8272 1.64746L14.0237 9.8433C14.0992 10.1252 14.1184 10.4192 14.0803 10.7086C14.0422 10.998 13.9475 11.277 13.8015 11.5297C13.6555 11.7824 13.4612 12.004 13.2297 12.1816C12.9981 12.3592 12.7338 12.4895 12.4519 12.565L7.37858 13.9243C6.80934 14.0768 6.20282 13.997 5.69241 13.7024C5.182 13.4078 4.80951 12.9225 4.65687 12.3533L2.45963 4.15664C2.38412 3.87467 2.3649 3.58059 2.40307 3.29119C2.44124 3.0018 2.53606 2.72276 2.68209 2.47001C2.82812 2.21726 3.02252 1.99576 3.25418 1.81816C3.48583 1.64056 3.75021 1.51033 4.03221 1.43493L9.10551 0.0756887ZM2.45235 7.2517L3.87624 12.5618C4.01619 13.0879 4.29601 13.5662 4.68597 13.9461L4.32797 13.9275C3.73946 13.8966 3.18732 13.6332 2.793 13.1952C2.39867 12.7572 2.19446 12.1806 2.22527 11.592L2.45235 7.2517ZM9.41906 1.24664L4.34575 2.60588C4.2176 2.6402 4.09747 2.69943 3.99222 2.78018C3.88696 2.86094 3.79864 2.96163 3.73231 3.07652C3.66597 3.19141 3.62292 3.31824 3.6056 3.44977C3.58828 3.5813 3.59704 3.71495 3.63138 3.84309L5.82782 12.0389C5.89715 12.2976 6.06632 12.5181 6.29816 12.652C6.53001 12.786 6.80555 12.8224 7.06423 12.7533L12.1383 11.3941C12.2665 11.3597 12.3866 11.3005 12.4919 11.2198C12.5971 11.139 12.6855 11.0383 12.7518 10.9234C12.8181 10.8085 12.8612 10.6817 12.8785 10.5502C12.8958 10.4186 12.8871 10.285 12.8527 10.1568L10.6563 1.96101C10.5869 1.70238 10.4178 1.48186 10.1859 1.34791C9.95409 1.21396 9.67855 1.17753 9.41987 1.24664M1.70485 6.05731L1.41797 11.5492C1.38807 12.1141 1.51495 12.6507 1.76061 13.117L1.42605 12.9877C1.15358 12.8831 0.904364 12.7259 0.692649 12.525C0.480935 12.3241 0.310865 12.0835 0.19215 11.8168C0.073435 11.5502 0.00840102 11.2628 0.0007615 10.9711C-0.00687802 10.6793 0.0430264 10.3889 0.147625 10.1164L1.70485 6.05731ZM5.63549 3.51581C5.73801 3.48832 5.84493 3.4813 5.95016 3.49514C6.05539 3.50897 6.15686 3.5434 6.24879 3.59645C6.34071 3.64951 6.42129 3.72015 6.48591 3.80434C6.55053 3.88853 6.59794 3.98463 6.62543 4.08714C6.65291 4.18966 6.65994 4.29658 6.6461 4.40181C6.63226 4.50704 6.59784 4.60851 6.54478 4.70044C6.49173 4.79236 6.42109 4.87293 6.3369 4.93756C6.25271 5.00218 6.15661 5.04959 6.05409 5.07708C5.84706 5.13259 5.62645 5.10358 5.4408 4.99643C5.25515 4.88928 5.11967 4.71278 5.06416 4.50574C5.00865 4.29871 5.03766 4.0781 5.14481 3.89245C5.25195 3.7068 5.42846 3.57132 5.63549 3.51581Z" fill="#828282"/>
</svg>
