<svg width="31" height="30" viewBox="0 0 31 30" fill="none" xmlns="http://www.w3.org/2000/svg">
<path fill-rule="evenodd" clip-rule="evenodd" d="M16.0084 24.1787H17.5362C17.4567 24.4765 16.9208 25.3306 16.2912 24.6266C16.1795 24.5016 16.0837 24.3209 16.0084 24.1787ZM14.8128 22.6509L17.9348 22.6509C18.268 22.6498 18.7983 22.5428 18.7983 22.8502C18.7983 23.0057 18.6881 23.1159 18.5326 23.1159H15.0121C14.716 23.1159 14.7658 22.8334 14.8128 22.6509ZM13.9493 21.0568H19.5954C19.7768 21.0568 20.2696 21.5405 19.3336 21.5257L13.75 21.5218C13.7082 21.342 13.6475 21.0568 13.9493 21.0568L13.9493 21.0568ZM16.7391 7.77178C20.7578 7.77178 23.1158 11.9305 21.7414 15.1653C21.4907 15.7553 21.1375 16.1711 20.763 16.6447L20.2306 17.308C19.7289 17.9711 19.2164 19.119 19.1968 19.994H14.3478C14.3478 18.6061 13.5148 17.4692 12.7075 16.5196C10.8115 14.2897 11.1108 11.2621 13.1018 9.24913C13.8579 8.48473 15.2326 7.77178 16.7392 7.77178H16.7391ZM10.3623 13.0858C10.3623 16.2227 11.7693 16.6868 12.685 18.269C12.9387 18.7073 13.285 19.5138 13.285 20.1932C12.3318 20.4477 12.3685 22.475 13.6836 22.5845C13.6836 23.4533 13.8778 23.8248 14.5594 24.1C14.8841 24.2311 14.7983 24.2104 14.9464 24.51C15.9194 26.4782 17.6743 26.4587 18.5977 24.5095C18.9141 23.8415 18.9713 24.3126 19.4831 23.8008C19.8067 23.4773 19.8611 23.2024 19.8611 22.5845C21.1977 22.4732 21.2093 20.4467 20.2596 20.1932C20.2596 19.5444 20.6073 18.739 20.8534 18.3293C21.1614 17.8167 21.5261 17.3842 21.905 16.9232C23.8845 14.5141 23.4967 10.7644 21.3391 8.61865C19.9791 7.26614 18.5709 6.70898 16.5398 6.70898C15.4944 6.70898 14.7737 7.01189 14.0243 7.31551C12.1001 8.09512 10.3623 10.5362 10.3623 13.0858Z" fill="#CA2421"/>
<path fill-rule="evenodd" clip-rule="evenodd" d="M26.7025 6.50965H26.3703C25.1289 6.50965 23.8462 5.28911 23.8462 4.05191C23.8462 3.13185 23.923 2.59147 24.6157 1.89876C26.1119 0.402539 29.2266 1.03459 29.2266 3.98551C29.2266 5.25979 27.9767 6.50965 26.7024 6.50965H26.7025ZM23.5141 6.1111C23.1 6.7295 21.9863 7.39048 21.9863 7.9046C21.9863 8.22585 22.1964 8.43597 22.5177 8.43597C23.0318 8.43597 23.6927 7.32231 24.3112 6.90821C24.6073 6.98728 26.7078 8.51922 28.9156 6.73002C29.3573 6.37208 29.1472 6.58683 29.569 6.05488C29.7179 5.86709 29.7967 5.70386 29.9138 5.46978C31.162 2.9756 29.2943 0 26.5696 0C23.8116 0 21.4836 3.07882 23.5141 6.1111Z" fill="#CA2421"/>
<path fill-rule="evenodd" clip-rule="evenodd" d="M22.6504 26.4371C22.6504 25.5015 22.797 24.9138 23.4622 24.2598C25.1125 22.6373 28.0308 23.8626 28.0308 26.0386C28.0308 26.9083 27.912 27.4488 27.2942 28.0918C26.2254 29.2041 24.4787 29.2211 23.3872 28.0916C22.9786 27.6688 22.6504 27.0641 22.6504 26.4371ZM22.6504 23.5809C22.1202 23.2258 22.2804 23.2607 21.9582 23.0111C21.5642 22.7059 21.5797 22.5181 21.0563 22.5181C20.8616 22.5181 20.6451 22.7929 20.6277 22.9926C20.6028 23.2794 20.7546 23.3916 20.9377 23.5666C21.1248 23.7454 21.2473 23.8142 21.4382 23.9961C21.5756 24.127 21.8439 24.3491 21.9863 24.4445C21.199 25.9322 21.4777 27.6796 22.7329 28.9454C24.4925 30.7197 27.5855 30.1829 28.7411 27.8781C29.0817 27.1985 29.2564 26.181 29.0157 25.3196C28.7841 24.4906 28.4548 23.9286 27.8824 23.3974C26.7935 22.3869 24.9592 22.1542 23.6678 22.8048C23.3351 22.9724 22.8357 23.3043 22.6504 23.581V23.5809Z" fill="#CA2421"/>
<path fill-rule="evenodd" clip-rule="evenodd" d="M1.06279 13.7502C1.06279 13.1291 1.04876 12.9208 1.32672 12.3534C2.61602 9.72155 6.44325 10.8892 6.44325 13.3516V13.7502C6.44325 15.7869 3.7146 17.2191 1.87506 15.5285C1.48995 15.1746 1.06286 14.4624 1.06286 13.7502H1.06279ZM0 13.2188C0 14.4625 0.171722 15.3185 1.04386 16.2268C2.90651 18.1669 6.452 17.5241 7.36449 14.7379C7.4038 14.6179 7.41757 14.3597 7.50187 14.2773C7.84976 13.9374 9.16668 14.6888 9.16668 13.6173C9.16668 12.9844 8.49069 13.1523 7.50605 13.1523C7.50605 11.5603 5.75994 9.76465 3.78622 9.76465C1.73676 9.76465 0 11.5499 0 13.2187V13.2188Z" fill="#CA2421"/>
<path fill-rule="evenodd" clip-rule="evenodd" d="M15.0121 12.6871C15.3434 12.5282 15.9111 12.5885 16.1938 12.3411C16.339 12.2141 16.6872 11.5818 16.7392 11.3586C16.7876 11.4143 16.8359 11.4683 16.8863 11.5436C17.0251 11.7508 17.1515 12.1108 17.3231 12.3025C17.5945 12.6058 18.1728 12.5144 18.5327 12.6871C18.3378 12.9781 18.0111 13.1323 17.8438 13.4626C17.6524 13.8406 17.8684 14.2699 17.8684 14.7462C16.0854 13.8906 16.7906 14.4866 15.6764 14.7462C15.6855 14.3376 15.892 13.8351 15.7281 13.5019C15.5541 13.1481 15.2171 12.993 15.0122 12.6871L15.0121 12.6871ZM13.418 12.2222C13.418 12.9639 14.5716 13.4641 14.6696 13.9649C14.7017 14.1286 14.5666 15.0252 14.5338 15.2663C14.5069 15.4645 14.4488 15.6909 14.5424 15.8771C14.8564 16.5021 15.4367 16.0358 15.8565 15.8563C16.9021 15.4092 16.579 15.2902 17.6029 15.8088C17.7368 15.8767 18.3963 16.2077 18.5327 16.2077C19.5607 16.2077 18.7466 14.342 18.8972 13.9159C19.0685 13.4313 20.3782 12.7773 20.1092 12.1133C19.9372 11.6887 19.1872 11.6737 18.5376 11.5531C18.0515 11.4629 18.0934 11.5661 17.8894 11.1385C17.6678 10.6739 17.0195 9.17082 16.3942 9.88345C16.2986 9.99229 16.0827 10.4193 16.009 10.562C15.4455 11.6533 15.6137 11.4829 14.0127 11.7541C13.8225 11.7863 13.7389 11.7991 13.6196 11.8924C13.5454 11.9505 13.418 12.089 13.418 12.2222L13.418 12.2222Z" fill="#CA2421"/>
<path fill-rule="evenodd" clip-rule="evenodd" d="M25.972 2.78973V3.25469C25.5894 3.25469 24.9092 3.1751 24.9092 3.78612C24.9092 4.44462 25.5256 4.31755 25.972 4.31755C25.972 4.67824 25.932 5.44675 26.5034 5.44675C27.1609 5.44675 27.1012 4.75046 27.1012 4.31755C27.5475 4.31755 28.164 4.44468 28.164 3.78612C28.164 3.17516 27.4839 3.25469 27.1012 3.25469C27.1012 2.73247 27.1519 2.19189 26.5034 2.19189C26.1607 2.19189 25.972 2.46842 25.972 2.78973Z" fill="#CA2421"/>
<path fill-rule="evenodd" clip-rule="evenodd" d="M3.18877 12.6872V13.0193C2.75202 13.0193 2.12598 12.919 2.12598 13.5508C2.12598 14.1825 2.75195 14.0821 3.18877 14.0821V14.5471C3.18877 15.3219 4.31798 15.5098 4.31798 14.4807V14.0821C4.75473 14.0821 5.38077 14.1825 5.38077 13.5508C5.38077 12.919 4.7548 13.0193 4.31798 13.0193C4.31798 12.5368 4.40084 11.9565 3.72014 11.9565C3.31669 11.9565 3.18871 12.2918 3.18871 12.6873L3.18877 12.6872Z" fill="#CA2421"/>
<path fill-rule="evenodd" clip-rule="evenodd" d="M24.7767 25.3079V25.7064C24.2387 25.7064 23.7139 25.5739 23.7139 26.3042C23.7139 26.778 24.438 26.7692 24.7767 26.7692C24.7767 28.3865 25.9059 27.9282 25.9059 27.1014V26.7692C26.2235 26.7692 26.9687 26.8233 26.9687 26.2378C26.9687 25.5793 26.3522 25.7063 25.9059 25.7063C25.9059 25.3457 25.9458 24.5771 25.3744 24.5771C24.9667 24.5771 24.7766 24.8933 24.7766 25.3078L24.7767 25.3079Z" fill="#CA2421"/>
<path fill-rule="evenodd" clip-rule="evenodd" d="M8.56934 19.7281C8.56934 20.0502 8.66943 20.3924 9.0343 20.3924C9.53406 20.3924 11.2928 18.5275 11.2928 18.2004C11.2928 17.9984 11.0968 17.6689 10.7614 17.6689C10.4366 17.6689 10.2919 17.9035 10.1136 18.084C9.79426 18.4072 8.5694 19.5178 8.5694 19.7281H8.56934Z" fill="#CA2421"/>
<path fill-rule="evenodd" clip-rule="evenodd" d="M24.3779 13.5508C24.3779 13.9357 24.5247 14.215 25.1086 14.215C26.4576 14.215 27.6327 14.4574 27.6327 13.6172C27.6327 12.856 26.2121 13.0858 25.1086 13.0858C24.789 13.0858 24.3779 13.268 24.3779 13.5508Z" fill="#CA2421"/>
<path fill-rule="evenodd" clip-rule="evenodd" d="M16.2079 3.65322C16.2079 4.73841 15.9948 6.04449 16.8057 6.04449C17.1485 6.04449 17.3372 5.76797 17.3372 5.44666V3.38747C17.3372 2.68399 16.208 2.37691 16.208 3.65315L16.2079 3.65322Z" fill="#CA2421"/>
<path fill-rule="evenodd" clip-rule="evenodd" d="M11.0264 8.43591C11.3477 8.43591 11.5578 8.22579 11.5578 7.90454C11.5578 7.53785 10.8512 6.96548 10.4784 6.59265C10.1725 6.28674 9.61325 5.44562 9.08992 5.96896C8.55737 6.5015 9.65047 7.28999 10.3124 7.95436C10.5022 8.14496 10.6886 8.43591 11.0264 8.43591H11.0264Z" fill="#CA2421"/>
</svg>
