<svg width="89" height="14" viewBox="0 0 89 14" fill="none" xmlns="http://www.w3.org/2000/svg">
<path d="M14.167 6.37711L11.2435 8.92853L12.1192 12.7271C12.1656 12.9257 12.1524 13.1335 12.0812 13.3247C12.0101 13.5158 11.8842 13.6817 11.7193 13.8016C11.5544 13.9215 11.3578 13.9902 11.154 13.999C10.9503 14.0078 10.7485 13.9564 10.5739 13.8512L7.26079 11.8417L3.95484 13.8512C3.78019 13.9564 3.57838 14.0078 3.37466 13.999C3.17093 13.9902 2.97433 13.9215 2.80942 13.8016C2.64451 13.6817 2.51862 13.5158 2.44749 13.3247C2.37635 13.1335 2.36313 12.9257 2.40947 12.7271L3.28393 8.93242L0.35978 6.37711C0.205119 6.24372 0.0932826 6.06764 0.038296 5.87094C-0.0166906 5.67425 -0.0123799 5.4657 0.0506875 5.27144C0.113755 5.07719 0.232771 4.90587 0.392812 4.77899C0.552853 4.6521 0.746793 4.5753 0.950313 4.55819L4.80466 4.22436L6.3092 0.63578C6.38776 0.447481 6.52029 0.286638 6.69008 0.173503C6.85988 0.060368 7.05935 0 7.26338 0C7.46742 0 7.66689 0.060368 7.83668 0.173503C8.00648 0.286638 8.139 0.447481 8.21757 0.63578L9.72664 4.22436L13.5797 4.55819C13.7832 4.5753 13.9772 4.6521 14.1372 4.77899C14.2972 4.90587 14.4163 5.07719 14.4793 5.27144C14.5424 5.4657 14.5467 5.67425 14.4917 5.87094C14.4367 6.06764 14.3249 6.24372 14.1702 6.37711H14.167Z" fill="#FFC55A"/>
<path d="M32.6982 6.37711L29.7747 8.92853L30.6505 12.7271C30.6968 12.9257 30.6836 13.1335 30.6125 13.3247C30.5413 13.5158 30.4154 13.6817 30.2505 13.8016C30.0856 13.9215 29.889 13.9902 29.6853 13.999C29.4816 14.0078 29.2798 13.9564 29.1051 13.8512L25.792 11.8417L22.4861 13.8512C22.3114 13.9564 22.1096 14.0078 21.9059 13.999C21.7022 13.9902 21.5056 13.9215 21.3407 13.8016C21.1758 13.6817 21.0499 13.5158 20.9787 13.3247C20.9076 13.1335 20.8944 12.9257 20.9407 12.7271L21.8152 8.93242L18.891 6.37711C18.7364 6.24372 18.6245 6.06764 18.5695 5.87094C18.5146 5.67425 18.5189 5.4657 18.5819 5.27144C18.645 5.07719 18.764 4.90587 18.9241 4.77899C19.0841 4.6521 19.278 4.5753 19.4816 4.55819L23.3359 4.22436L24.8404 0.63578C24.919 0.447481 25.0515 0.286638 25.2213 0.173503C25.3911 0.060368 25.5906 0 25.7946 0C25.9987 0 26.1981 0.060368 26.3679 0.173503C26.5377 0.286638 26.6703 0.447481 26.7488 0.63578L28.2579 4.22436L32.1109 4.55819C32.3145 4.5753 32.5084 4.6521 32.6684 4.77899C32.8285 4.90587 32.9475 5.07719 33.0106 5.27144C33.0736 5.4657 33.0779 5.67425 33.023 5.87094C32.968 6.06764 32.8561 6.24372 32.7015 6.37711H32.6982Z" fill="#FFC55A"/>
<path d="M51.2256 6.37711L48.3021 8.92853L49.1778 12.7271C49.2242 12.9257 49.211 13.1335 49.1398 13.3247C49.0687 13.5158 48.9428 13.6817 48.7779 13.8016C48.613 13.9215 48.4164 13.9902 48.2126 13.999C48.0089 14.0078 47.8071 13.9564 47.6325 13.8512L44.3194 11.8417L41.0134 13.8512C40.8388 13.9564 40.637 14.0078 40.4333 13.999C40.2295 13.9902 40.0329 13.9215 39.868 13.8016C39.7031 13.6817 39.5772 13.5158 39.5061 13.3247C39.4349 13.1335 39.4217 12.9257 39.4681 12.7271L40.3425 8.93242L37.4184 6.37711C37.2637 6.24372 37.1519 6.06764 37.0969 5.87094C37.0419 5.67425 37.0462 5.4657 37.1093 5.27144C37.1723 5.07719 37.2914 4.90587 37.4514 4.77899C37.6114 4.6521 37.8054 4.5753 38.0089 4.55819L41.8633 4.22436L43.3678 0.63578C43.4464 0.447481 43.5789 0.286638 43.7487 0.173503C43.9185 0.060368 44.1179 0 44.322 0C44.526 0 44.7255 0.060368 44.8953 0.173503C45.0651 0.286638 45.1976 0.447481 45.2762 0.63578L46.7852 4.22436L50.6383 4.55819C50.8418 4.5753 51.0357 4.6521 51.1958 4.77899C51.3558 4.90587 51.4748 5.07719 51.5379 5.27144C51.601 5.4657 51.6053 5.67425 51.5503 5.87094C51.4953 6.06764 51.3835 6.24372 51.2288 6.37711H51.2256Z" fill="#FFC55A"/>
<path d="M69.7568 6.37711L66.8333 8.92853L67.7091 12.7271C67.7554 12.9257 67.7422 13.1335 67.6711 13.3247C67.5999 13.5158 67.474 13.6817 67.3091 13.8016C67.1442 13.9215 66.9476 13.9902 66.7439 13.999C66.5402 14.0078 66.3384 13.9564 66.1637 13.8512L62.8506 11.8417L59.5447 13.8512C59.37 13.9564 59.1682 14.0078 58.9645 13.999C58.7608 13.9902 58.5642 13.9215 58.3993 13.8016C58.2344 13.6817 58.1085 13.5158 58.0373 13.3247C57.9662 13.1335 57.953 12.9257 57.9993 12.7271L58.8738 8.93242L55.9496 6.37711C55.795 6.24372 55.6831 6.06764 55.6281 5.87094C55.5732 5.67425 55.5775 5.4657 55.6405 5.27144C55.7036 5.07719 55.8226 4.90587 55.9827 4.77899C56.1427 4.6521 56.3366 4.5753 56.5402 4.55819L60.3945 4.22436L61.899 0.63578C61.9776 0.447481 62.1101 0.286638 62.2799 0.173503C62.4497 0.060368 62.6492 0 62.8532 0C63.0573 0 63.2567 0.060368 63.4265 0.173503C63.5963 0.286638 63.7288 0.447481 63.8074 0.63578L65.3165 4.22436L69.1695 4.55819C69.3731 4.5753 69.567 4.6521 69.727 4.77899C69.8871 4.90587 70.0061 5.07719 70.0692 5.27144C70.1322 5.4657 70.1365 5.67425 70.0816 5.87094C70.0266 6.06764 69.9147 6.24372 69.7601 6.37711H69.7568Z" fill="#FFC55A"/>
<path d="M88.5934 5.2693C88.5306 5.07573 88.4123 4.90491 88.2531 4.77812C88.0939 4.65133 87.9009 4.57417 87.6982 4.55625L83.8484 4.22436L82.3393 0.63578C82.2608 0.447481 82.1283 0.286638 81.9585 0.173503C81.7887 0.060368 81.5892 0 81.3852 0C81.1811 0 80.9817 0.060368 80.8119 0.173503C80.6421 0.286638 80.5095 0.447481 80.431 0.63578L78.9264 4.22436L75.0721 4.55754C74.8684 4.57452 74.6743 4.65129 74.5141 4.77822C74.354 4.90514 74.2348 5.07656 74.1717 5.27095C74.1087 5.46534 74.1044 5.67404 74.1595 5.87084C74.2146 6.06764 74.3267 6.24377 74.4816 6.37711L77.4057 8.93242L76.5293 12.7271C76.483 12.9257 76.4962 13.1335 76.5673 13.3246C76.6385 13.5158 76.7643 13.6817 76.9293 13.8016C77.0942 13.9215 77.2908 13.9902 77.4945 13.999C77.6982 14.0078 77.9 13.9564 78.0747 13.8512L81.3806 11.8417L84.6937 13.8512C84.8684 13.9564 85.0702 14.0078 85.2739 13.999C85.4776 13.9902 85.6742 13.9215 85.8391 13.8016C86.004 13.6817 86.1299 13.5158 86.2011 13.3246C86.2722 13.1335 86.2854 12.9257 86.2391 12.7271L85.3633 8.92853L88.2868 6.37711C88.4415 6.24326 88.5531 6.06668 88.6076 5.86957C88.6622 5.67245 88.6572 5.46361 88.5934 5.2693ZM87.6068 5.59341L84.6833 8.14482C84.541 8.26859 84.4352 8.42881 84.3772 8.60825C84.3192 8.78768 84.3112 8.97954 84.354 9.16319L85.2324 12.9644L81.9219 10.9549C81.7604 10.8565 81.5749 10.8045 81.3858 10.8045V1.04287L82.8897 4.62626C82.9627 4.80041 83.0819 4.95131 83.2344 5.06269C83.3869 5.17407 83.567 5.2417 83.7551 5.25828L87.6081 5.59146V5.596L87.6068 5.59341Z" fill="#FFC55A"/>
</svg>
