<svg width="20" height="16" viewBox="0 0 20 16" fill="none" xmlns="http://www.w3.org/2000/svg">
<path fill-rule="evenodd" clip-rule="evenodd" d="M12.0142 13L12.0082 15.003C12.0072 15.473 12.0062 15.708 11.8592 15.854C11.7122 16 11.4772 16 11.0052 16H7.99523C4.21523 16 2.32523 16 1.15023 14.828C0.340231 14.022 0.0892307 12.877 0.0102307 11.011C-0.00476933 10.641 -0.0127693 10.455 0.0562307 10.332C0.126231 10.209 0.401231 10.055 0.953231 9.746C1.26416 9.57266 1.52317 9.31942 1.70347 9.01247C1.88378 8.70552 1.97884 8.35599 1.97884 8C1.97884 7.64401 1.88378 7.29448 1.70347 6.98753C1.52317 6.68058 1.26416 6.42734 0.953231 6.254C0.401231 5.946 0.125231 5.791 0.0562307 5.668C-0.0127693 5.545 -0.00476941 5.36 0.0112306 4.989C0.0892306 3.123 0.341231 1.979 1.15023 1.172C2.32423 8.34465e-07 4.21423 1.00209e-06 7.99523 1.00209e-06H11.5052C11.5709 -0.000130451 11.6359 0.0126723 11.6966 0.0376783C11.7574 0.0626843 11.8126 0.0994036 11.8591 0.14574C11.9056 0.192077 11.9425 0.247122 11.9678 0.307735C11.993 0.368348 12.0061 0.43334 12.0062 0.499001L12.0142 3C12.0142 3.552 12.4632 4 13.0162 4V6C12.4632 6 12.0142 6.448 12.0142 7V9C12.0142 9.552 12.4632 10 13.0162 10V12C12.4632 12 12.0142 12.448 12.0142 13Z" fill="#CA2421"/>
<path opacity="0.5" d="M13.0117 12.0007C13.5647 12.0007 14.0137 12.4487 14.0137 13.0007V14.9767C14.0137 15.4587 14.0137 15.6997 14.1687 15.8467C14.3227 15.9947 14.5587 15.9847 15.0317 15.9647C16.8947 15.8857 18.0387 15.6337 18.8457 14.8287C19.6547 14.0227 19.9057 12.8767 19.9847 11.0107C19.9997 10.6407 20.0077 10.4557 19.9387 10.3327C19.8697 10.2087 19.5937 10.0547 19.0417 9.74668C18.7308 9.57333 18.4718 9.3201 18.2915 9.01315C18.1112 8.7062 18.0161 8.35666 18.0161 8.00068C18.0161 7.64469 18.1112 7.29515 18.2915 6.9882C18.4718 6.68125 18.7308 6.42802 19.0417 6.25467C19.5937 5.94568 19.8697 5.79168 19.9387 5.66868C20.0087 5.54468 19.9997 5.35968 19.9847 4.98968C19.9057 3.12368 19.6547 1.97868 18.8447 1.17168C17.9677 0.296676 16.6907 0.0756761 14.5227 0.0196761C14.4564 0.0180756 14.3905 0.0297485 14.3288 0.0540075C14.2671 0.0782665 14.2109 0.114621 14.1635 0.160932C14.1161 0.207244 14.0784 0.262575 14.0527 0.323669C14.0269 0.384764 14.0137 0.450387 14.0137 0.516676V3.00068C14.0137 3.55268 13.5647 4.00068 13.0117 4.00068V6.00068C13.1432 6.00041 13.2735 6.02608 13.395 6.07622C13.5166 6.12636 13.627 6.19998 13.7201 6.29286C13.8132 6.38575 13.887 6.49607 13.9374 6.61753C13.9878 6.73899 14.0137 6.86918 14.0137 7.00068V9.00068C14.0137 9.55268 13.5647 10.0007 13.0117 10.0007V12.0007Z" fill="#CA2421"/>
</svg>
