<svg width="18" height="15" viewBox="0 0 18 15" fill="none" xmlns="http://www.w3.org/2000/svg">
<path opacity="0.16" d="M16.0546 7.49996C16.0546 11.0898 13.1445 13.9999 9.55465 13.9999C5.96482 13.9999 3.05469 11.0898 3.05469 7.49996C3.05469 3.91013 5.96482 1 9.55465 1C13.1445 1 16.0546 3.91013 16.0546 7.49996Z" fill="#CA2421" fill-opacity="0.1" stroke="#CA2421"/>
<path d="M4.6049 12.4497C5.75013 13.5949 7.25706 14.3076 8.86888 14.4663C10.4807 14.6249 12.0977 14.2198 13.4442 13.3198C14.7908 12.4199 15.7836 11.0808 16.2535 9.53089C16.7234 7.98094 16.6413 6.31601 16.0212 4.81982C15.4011 3.32362 14.2813 2.08876 12.8527 1.32567C11.4242 0.562573 9.77518 0.318471 8.18679 0.634958C6.5984 0.951446 5.16891 1.80894 4.14192 3.06131C3.11492 4.31367 2.55398 5.88342 2.55469 7.50303V9.05546" fill="#CA2421" fill-opacity="0.1"/>
<path d="M4.6049 12.4497C5.75013 13.5949 7.25706 14.3076 8.86888 14.4663C10.4807 14.6249 12.0977 14.2198 13.4442 13.3198C14.7908 12.4199 15.7836 11.0808 16.2535 9.53089C16.7234 7.98094 16.6413 6.31601 16.0212 4.81982C15.4011 3.32362 14.2813 2.08876 12.8527 1.32567C11.4242 0.562573 9.77518 0.318471 8.18679 0.634958C6.5984 0.951446 5.16891 1.80894 4.14192 3.06131C3.11492 4.31367 2.55398 5.88342 2.55469 7.50303V9.05546" stroke="#CA2421" stroke-linecap="round" stroke-linejoin="round"/>
<path d="M1 7.49997L2.55555 9.05551L4.1111 7.49997M8.77774 4.38887V8.27774H12.6666" fill="#CA2421" fill-opacity="0.1"/>
<path d="M1 7.49997L2.55555 9.05551L4.1111 7.49997M8.77774 4.38887V8.27774H12.6666" stroke="#CA2421" stroke-linecap="round" stroke-linejoin="round"/>
</svg>
