<svg width="14" height="14" viewBox="0 0 14 14" fill="none" xmlns="http://www.w3.org/2000/svg">
<path d="M6.94101 8.225C6.65401 8.225 6.41602 7.98701 6.41602 7.70001V4.20004C6.41602 3.91305 6.65401 3.67505 6.94101 3.67505C7.22801 3.67505 7.46601 3.91305 7.46601 4.20004V7.70001C7.46601 7.98701 7.22801 8.225 6.94101 8.225Z" fill="#A39FAB"/>
<path d="M8.96597 1.01499H4.92001C4.64001 1.01499 4.41602 0.790992 4.41602 0.510995C4.41602 0.230998 4.64001 0 4.92001 0H8.96597C9.24597 0 9.46997 0.223998 9.46997 0.503995C9.46997 0.783992 9.24597 1.01499 8.96597 1.01499Z" fill="#A39FAB"/>
<path opacity="0.4" d="M9.04197 12.579V10.521C9.04197 9.63198 9.57396 9.09999 10.463 9.09999H12.5209C12.6539 9.09999 12.7729 9.11399 12.8919 9.14199C12.9689 8.74999 13.0109 8.344 13.0109 7.931C13.0109 4.58503 10.288 1.86206 6.94199 1.86206C3.59602 1.86206 0.873047 4.58503 0.873047 7.931C0.873047 11.277 3.59602 13.9999 6.94199 13.9999C7.78898 13.9999 8.59397 13.8249 9.32896 13.5099C9.14697 13.2719 9.04197 12.964 9.04197 12.579Z" fill="#A39FAB"/>
<path d="M12.5219 9.1001H10.464C9.57496 9.1001 9.04297 9.63209 9.04297 10.5211V12.5791C9.04297 13.4681 9.57496 14 10.464 14H12.5219C13.4109 14 13.9429 13.4681 13.9429 12.5791V10.5211C13.9429 9.63209 13.4109 9.1001 12.5219 9.1001ZM12.3259 12.2221L11.4999 12.6981C11.3319 12.7961 11.1639 12.8451 11.0099 12.8451C10.891 12.8451 10.786 12.8171 10.688 12.7611C10.464 12.6281 10.338 12.3691 10.338 12.0261V11.0741C10.338 10.7311 10.464 10.4721 10.688 10.3391C10.912 10.2061 11.1989 10.2341 11.4999 10.4021L12.3259 10.8781C12.6199 11.0531 12.7879 11.2911 12.7879 11.5501C12.7879 11.8091 12.6269 12.0471 12.3259 12.2221Z" fill="#A39FAB"/>
</svg>
