<svg width="23" height="24" viewBox="0 0 23 24" fill="none" xmlns="http://www.w3.org/2000/svg">
<path d="M10.7379 14.0997C10.2459 14.0997 9.83789 13.6917 9.83789 13.1997V7.1998C9.83789 6.7078 10.2459 6.2998 10.7379 6.2998C11.2299 6.2998 11.6379 6.7078 11.6379 7.1998V13.1997C11.6379 13.6917 11.2299 14.0997 10.7379 14.0997Z" fill="#CA2421"/>
<path d="M14.2062 1.73998H7.27024C6.79025 1.73998 6.40625 1.35599 6.40625 0.875991C6.40625 0.395996 6.79025 0 7.27024 0H14.2062C14.6862 0 15.0702 0.383996 15.0702 0.863992C15.0702 1.34399 14.6862 1.73998 14.2062 1.73998Z" fill="#CA2421"/>
<path opacity="0.4" d="M14.3378 21.5642V18.0362C14.3378 16.5123 15.2498 15.6003 16.7738 15.6003H20.3018C20.5298 15.6003 20.7338 15.6243 20.9378 15.6723C21.0698 15.0003 21.1418 14.3043 21.1418 13.5963C21.1418 7.86034 16.4738 3.19238 10.7379 3.19238C5.00194 3.19238 0.333984 7.86034 0.333984 13.5963C0.333984 19.3322 5.00194 24.0002 10.7379 24.0002C12.1899 24.0002 13.5699 23.7002 14.8298 23.1602C14.5178 22.7522 14.3378 22.2242 14.3378 21.5642Z" fill="#CA2421"/>
<path d="M20.3018 15.6006H16.7739C15.2499 15.6006 14.3379 16.5126 14.3379 18.0366V21.5645C14.3379 23.0885 15.2499 24.0005 16.7739 24.0005H20.3018C21.8258 24.0005 22.7378 23.0885 22.7378 21.5645V18.0366C22.7378 16.5126 21.8258 15.6006 20.3018 15.6006ZM19.9658 20.9525L18.5498 21.7685C18.2619 21.9365 17.9739 22.0205 17.7099 22.0205C17.5059 22.0205 17.3259 21.9725 17.1579 21.8765C16.7739 21.6485 16.5579 21.2045 16.5579 20.6165V18.9846C16.5579 18.3966 16.7739 17.9526 17.1579 17.7246C17.5419 17.4966 18.0339 17.5446 18.5498 17.8326L19.9658 18.6486C20.4698 18.9486 20.7578 19.3565 20.7578 19.8005C20.7578 20.2445 20.4818 20.6525 19.9658 20.9525Z" fill="#CA2421"/>
</svg>
