<svg width="17" height="15" viewBox="0 0 17 15" fill="none" xmlns="http://www.w3.org/2000/svg">
<path opacity="0.2" d="M15.2731 1.13636H1.27308C1.10431 1.13636 0.942447 1.20341 0.823105 1.32275C0.703764 1.44209 0.636719 1.60395 0.636719 1.77273V10.6818C0.636719 10.8506 0.703764 11.0125 0.823105 11.1318C0.942447 11.2511 1.10431 11.3182 1.27308 11.3182H15.2731C15.4419 11.3182 15.6037 11.2511 15.7231 11.1318C15.8424 11.0125 15.9094 10.8506 15.9094 10.6818V1.77273C15.9094 1.60395 15.8424 1.44209 15.7231 1.32275C15.6037 1.20341 15.4419 1.13636 15.2731 1.13636ZM7.00035 8.77273V3.68182L10.8185 6.22727L7.00035 8.77273Z" fill="#CA2421"/>
<path d="M11.1714 5.6975L7.35318 3.15205C7.25732 3.08809 7.1459 3.05136 7.03079 3.04579C6.91569 3.04021 6.80124 3.06599 6.69965 3.12038C6.59805 3.17477 6.51313 3.25573 6.45396 3.35461C6.39478 3.45349 6.36356 3.56658 6.36364 3.68182V8.77273C6.36356 8.88796 6.39478 9.00106 6.45396 9.09994C6.51313 9.19882 6.59805 9.27977 6.69965 9.33416C6.80124 9.38855 6.91569 9.41433 7.03079 9.40876C7.1459 9.40318 7.25732 9.36646 7.35318 9.3025L11.1714 6.75705C11.2587 6.69896 11.3302 6.6202 11.3797 6.52777C11.4293 6.43535 11.4552 6.33212 11.4552 6.22727C11.4552 6.12242 11.4293 6.0192 11.3797 5.92677C11.3302 5.83435 11.2587 5.75559 11.1714 5.6975ZM7.63636 7.58352V4.875L9.67114 6.22727L7.63636 7.58352ZM15.2727 0.5H1.27273C0.935179 0.5 0.611456 0.63409 0.372773 0.872773C0.13409 1.11146 0 1.43518 0 1.77273V10.6818C0 11.0194 0.13409 11.3431 0.372773 11.5818C0.611456 11.8205 0.935179 11.9545 1.27273 11.9545H15.2727C15.6103 11.9545 15.934 11.8205 16.1727 11.5818C16.4114 11.3431 16.5455 11.0194 16.5455 10.6818V1.77273C16.5455 1.43518 16.4114 1.11146 16.1727 0.872773C15.934 0.63409 15.6103 0.5 15.2727 0.5ZM15.2727 10.6818H1.27273V1.77273H15.2727V10.6818ZM16.5455 13.8636C16.5455 14.0324 16.4784 14.1943 16.3591 14.3136C16.2397 14.433 16.0779 14.5 15.9091 14.5H0.636364C0.467589 14.5 0.305728 14.433 0.186387 14.3136C0.0670452 14.1943 0 14.0324 0 13.8636C0 13.6949 0.0670452 13.533 0.186387 13.4137C0.305728 13.2943 0.467589 13.2273 0.636364 13.2273H15.9091C16.0779 13.2273 16.2397 13.2943 16.3591 13.4137C16.4784 13.533 16.5455 13.6949 16.5455 13.8636Z" fill="#CA2421"/>
</svg>
