<svg width="17" height="14" viewBox="0 0 17 14" fill="none" xmlns="http://www.w3.org/2000/svg">
<path opacity="0.2" d="M15.2731 0.636475H1.27308C1.10431 0.636475 0.942447 0.70352 0.823105 0.822861C0.703764 0.942203 0.636719 1.10406 0.636719 1.27284V10.1819C0.636719 10.3507 0.703764 10.5126 0.823105 10.6319C0.942447 10.7512 1.10431 10.8183 1.27308 10.8183H15.2731C15.4419 10.8183 15.6037 10.7512 15.7231 10.6319C15.8424 10.5126 15.9094 10.3507 15.9094 10.1819V1.27284C15.9094 1.10406 15.8424 0.942203 15.7231 0.822861C15.6037 0.70352 15.4419 0.636475 15.2731 0.636475ZM7.00035 8.27284V3.18193L10.8185 5.72738L7.00035 8.27284Z" fill="#6D6D6D"/>
<path d="M11.1714 5.1975L7.35318 2.65205C7.25732 2.58809 7.1459 2.55136 7.03079 2.54579C6.91569 2.54021 6.80124 2.56599 6.69965 2.62038C6.59805 2.67477 6.51313 2.75573 6.45396 2.85461C6.39478 2.95349 6.36356 3.06658 6.36364 3.18182V8.27273C6.36356 8.38796 6.39478 8.50106 6.45396 8.59994C6.51313 8.69882 6.59805 8.77977 6.69965 8.83416C6.80124 8.88855 6.91569 8.91433 7.03079 8.90876C7.1459 8.90318 7.25732 8.86646 7.35318 8.8025L11.1714 6.25705C11.2587 6.19896 11.3302 6.1202 11.3797 6.02777C11.4293 5.93535 11.4552 5.83212 11.4552 5.72727C11.4552 5.62242 11.4293 5.5192 11.3797 5.42677C11.3302 5.33435 11.2587 5.25559 11.1714 5.1975ZM7.63636 7.08352V4.375L9.67114 5.72727L7.63636 7.08352ZM15.2727 0H1.27273C0.935179 0 0.611456 0.13409 0.372773 0.372773C0.13409 0.611456 0 0.935179 0 1.27273V10.1818C0 10.5194 0.13409 10.8431 0.372773 11.0818C0.611456 11.3205 0.935179 11.4545 1.27273 11.4545H15.2727C15.6103 11.4545 15.934 11.3205 16.1727 11.0818C16.4114 10.8431 16.5455 10.5194 16.5455 10.1818V1.27273C16.5455 0.935179 16.4114 0.611456 16.1727 0.372773C15.934 0.13409 15.6103 0 15.2727 0ZM15.2727 10.1818H1.27273V1.27273H15.2727V10.1818ZM16.5455 13.3636C16.5455 13.5324 16.4784 13.6943 16.3591 13.8136C16.2397 13.933 16.0779 14 15.9091 14H0.636364C0.467589 14 0.305728 13.933 0.186387 13.8136C0.0670452 13.6943 0 13.5324 0 13.3636C0 13.1949 0.0670452 13.033 0.186387 12.9137C0.305728 12.7943 0.467589 12.7273 0.636364 12.7273H15.9091C16.0779 12.7273 16.2397 12.7943 16.3591 12.9137C16.4784 13.033 16.5455 13.1949 16.5455 13.3636Z" fill="#6D6D6D"/>
</svg>
