<svg width="18" height="14" viewBox="0 0 18 14" fill="none" xmlns="http://www.w3.org/2000/svg">
<path d="M11.8125 3.0625C11.8125 3.46467 11.7333 3.86291 11.5794 4.23447C11.4255 4.60603 11.1999 4.94363 10.9155 5.22801C10.6311 5.51239 10.2935 5.73798 9.92197 5.89188C9.55041 6.04579 9.15217 6.125 8.75 6.125C8.34783 6.125 7.94959 6.04579 7.57803 5.89188C7.20647 5.73798 6.86887 5.51239 6.58449 5.22801C6.30011 4.94363 6.07452 4.60603 5.92062 4.23447C5.76671 3.86291 5.6875 3.46467 5.6875 3.0625C5.6875 2.25027 6.01016 1.47132 6.58449 0.896986C7.15882 0.322655 7.93777 0 8.75 0C9.56223 0 10.3412 0.322655 10.9155 0.896986C11.4898 1.47132 11.8125 2.25027 11.8125 3.0625Z" fill="#333333"/>
<path opacity="0.4" d="M15.3125 3.0625C15.3125 3.64266 15.082 4.19906 14.6718 4.6093C14.2616 5.01953 13.7052 5.25 13.125 5.25C12.5448 5.25 11.9884 5.01953 11.5782 4.6093C11.168 4.19906 10.9375 3.64266 10.9375 3.0625C10.9375 2.48234 11.168 1.92594 11.5782 1.5157C11.9884 1.10547 12.5448 0.875 13.125 0.875C13.7052 0.875 14.2616 1.10547 14.6718 1.5157C15.082 1.92594 15.3125 2.48234 15.3125 3.0625ZM2.1875 3.0625C2.1875 3.64266 2.41797 4.19906 2.8282 4.6093C3.23844 5.01953 3.79484 5.25 4.375 5.25C4.95516 5.25 5.51156 5.01953 5.9218 4.6093C6.33203 4.19906 6.5625 3.64266 6.5625 3.0625C6.5625 2.48234 6.33203 1.92594 5.9218 1.5157C5.51156 1.10547 4.95516 0.875 4.375 0.875C3.79484 0.875 3.23844 1.10547 2.8282 1.5157C2.41797 1.92594 2.1875 2.48234 2.1875 3.0625Z" fill="#333333"/>
<path d="M14 10.9375C14 12.6289 11.6497 14 8.75 14C5.85025 14 3.5 12.6289 3.5 10.9375C3.5 9.24612 5.85025 7.875 8.75 7.875C11.6497 7.875 14 9.24612 14 10.9375Z" fill="#333333"/>
<path opacity="0.4" d="M17.5 10.9375C17.5 12.145 15.9338 13.125 14 13.125C12.0662 13.125 10.5 12.145 10.5 10.9375C10.5 9.73 12.0662 8.75 14 8.75C15.9338 8.75 17.5 9.73 17.5 10.9375ZM0 10.9375C0 12.145 1.56625 13.125 3.5 13.125C5.43375 13.125 7 12.145 7 10.9375C7 9.73 5.43375 8.75 3.5 8.75C1.56625 8.75 0 9.73 0 10.9375Z" fill="#333333"/>
</svg>
