<svg width="15" height="15" viewBox="0 0 15 15" fill="none" xmlns="http://www.w3.org/2000/svg">
<path opacity="0.4" d="M10.2964 5.65764C11.5171 5.65764 12.5068 4.66801 12.5068 3.44723C12.5068 2.22645 11.5171 1.23682 10.2964 1.23682C9.07557 1.23682 8.08594 2.22645 8.08594 3.44723C8.08594 4.66801 9.07557 5.65764 10.2964 5.65764Z" fill="#CA2421"/>
<path opacity="0.4" d="M11.0336 13.7625C13.0683 13.7625 14.7177 12.7729 14.7177 11.5521C14.7177 10.3313 13.0683 9.34167 11.0336 9.34167C8.999 9.34167 7.34961 10.3313 7.34961 11.5521C7.34961 12.7729 8.999 13.7625 11.0336 13.7625Z" fill="#CA2421"/>
<path d="M5.8769 6.39443C7.50461 6.39443 8.82412 5.07492 8.82412 3.44722C8.82412 1.81951 7.50461 0.5 5.8769 0.5C4.2492 0.5 2.92969 1.81951 2.92969 3.44722C2.92969 5.07492 4.2492 6.39443 5.8769 6.39443Z" fill="#CA2421"/>
<path d="M5.87638 14.5C8.72486 14.5 11.034 13.1805 11.034 11.5528C11.034 9.9251 8.72486 8.60559 5.87638 8.60559C3.0279 8.60559 0.71875 9.9251 0.71875 11.5528C0.71875 13.1805 3.0279 14.5 5.87638 14.5Z" fill="#CA2421"/>
</svg>
