<svg width="40" height="40" viewBox="0 0 40 40" fill="none" xmlns="http://www.w3.org/2000/svg">
<rect width="40" height="40" rx="20" fill="white"/>
<path d="M19.6202 13C23.828 13 27.2389 16.4116 27.2389 20.6202C27.2389 21.1436 27.1856 21.6548 27.0858 22.1485C26.8016 22.1775 26.5312 22.2857 26.3056 22.4609L26.2934 22.47C26.2072 22.2883 26.0928 22.1215 25.9544 21.9756C26.158 21.0249 26.145 20.0406 25.9163 19.0957H23.3572C23.4299 19.8553 23.4483 20.6191 23.412 21.3813H22.2669C22.3072 20.6191 22.287 19.8548 22.2068 19.0957H17.0329C16.8992 20.3645 16.9338 21.6454 17.1358 22.9051H18.8972C18.8718 23.0285 18.8591 23.1555 18.8591 23.286V24.0479H17.3803C17.7315 25.3468 18.2656 26.3319 18.8583 26.7982V27.8572C18.8583 27.976 18.869 28.0921 18.8903 28.2054C15.0239 27.8382 12 24.5812 12 20.6194C12 16.4116 15.4116 13 19.6202 13ZM16.1979 24.0486H14.1233C14.8591 25.2256 15.9525 26.136 17.2432 26.6466C16.8447 26.0219 16.5164 25.2402 16.2756 24.3496L16.1979 24.0486ZM15.8817 19.0957H13.3234L13.3203 19.1087C13.2019 19.6038 13.1424 20.1111 13.1428 20.6202C13.1428 21.4247 13.2898 22.195 13.558 22.9058H15.9754C15.8628 22.1492 15.8073 21.3852 15.8093 20.6202C15.8093 20.0991 15.8345 19.5886 15.8817 19.0957ZM17.2439 14.5931L17.2264 14.5992C15.6669 15.2215 14.4087 16.4234 13.7157 17.9529H16.0379C16.2764 16.6181 16.6931 15.4555 17.2439 14.5931ZM19.6202 14.1428L19.5318 14.1466C18.5673 14.235 17.6363 15.7602 17.2036 17.9529H22.0361C21.6049 15.7663 20.6777 14.2434 19.7162 14.1474L19.6202 14.1428ZM21.9972 14.5923L22.078 14.7256C22.5884 15.5728 22.9755 16.6852 23.2018 17.9537H25.5239C24.8629 16.494 23.6859 15.33 22.2189 14.6853L21.9972 14.5923ZM19.6202 23.286C19.6202 22.9829 19.7406 22.6922 19.9549 22.4779C20.1692 22.2636 20.4599 22.1432 20.763 22.1432H24.5724C24.8754 22.1432 25.1661 22.2636 25.3804 22.4779C25.5948 22.6922 25.7152 22.9829 25.7152 23.286V23.8764L26.7703 23.0643C26.8831 22.9775 27.018 22.924 27.1596 22.9099C27.3013 22.8958 27.444 22.9216 27.5717 22.9845C27.6994 23.0474 27.8069 23.1448 27.8821 23.2657C27.9572 23.3866 27.997 23.5261 27.997 23.6684V27.4725C27.9969 27.6147 27.957 27.7541 27.8818 27.8749C27.8066 27.9957 27.699 28.093 27.5714 28.1558C27.4437 28.2186 27.301 28.2444 27.1594 28.2303C27.0179 28.2161 26.8831 28.1626 26.7703 28.0759L25.7152 27.2637V27.8572C25.7152 28.1603 25.5948 28.451 25.3804 28.6653C25.1661 28.8796 24.8754 29 24.5724 29H20.763C20.4599 29 20.1692 28.8796 19.9549 28.6653C19.7406 28.451 19.6202 28.1603 19.6202 27.8572V23.286Z" fill="#CA2421"/>
</svg>
