<svg width="23" height="16" viewBox="0 0 23 16" fill="none" xmlns="http://www.w3.org/2000/svg">
<path d="M22.3417 2.50551C22.2107 2.02123 21.9551 1.57974 21.6003 1.22498C21.2456 0.870223 20.8041 0.614585 20.3198 0.483521C18.5469 0 11.4116 0 11.4116 0C11.4116 0 4.27585 0.0146359 2.50294 0.498157C2.01866 0.629228 1.57716 0.88488 1.22242 1.23965C0.867681 1.59443 0.612068 2.03594 0.481039 2.52023C-0.0552245 5.67035 -0.263251 10.4704 0.495764 13.4945C0.626807 13.9788 0.882426 14.4203 1.23717 14.775C1.59191 15.1298 2.03339 15.3854 2.51766 15.5165C4.29057 16 11.4261 16 11.4261 16C11.4261 16 18.5616 16 20.3344 15.5165C20.8187 15.3854 21.2602 15.1298 21.6149 14.775C21.9697 14.4203 22.2253 13.9788 22.3564 13.4945C22.922 10.3399 23.0963 5.54282 22.3417 2.50551Z" fill="#CA2421"/>
<path d="M9.14062 11.4284L15.06 7.99984L9.14062 4.57129V11.4284Z" fill="white"/>
</svg>
